M48
; DRILL file {KiCad 9.0.5} date 2026-08-03T23:31:19+0700
; FORMAT={-:-/ absolute / metric / decimal}
; #@! TF.CreationDate,2026-08-03T23:31:19+07:00
; #@! TF.GenerationSoftware,Kicad,Pcbnew,9.0.5
; #@! TF.FileFunction,Plated,1,2,PTH
FMAT,2
METRIC
; #@! TA.AperFunction,Plated,PTH,ViaDrill
T1C0.300
; #@! TA.AperFunction,Plated,PTH,ComponentDrill
T2C0.300
; #@! TA.AperFunction,Plated,PTH,ViaDrill
T3C0.500
; #@! TA.AperFunction,Plated,PTH,ViaDrill
T4C0.600
; #@! TA.AperFunction,Plated,PTH,ComponentDrill
T5C0.750
; #@! TA.AperFunction,Plated,PTH,ComponentDrill
T6C0.900
; #@! TA.AperFunction,Plated,PTH,ComponentDrill
T7C1.000
; #@! TA.AperFunction,Plated,PTH,ComponentDrill
T8C1.500
%
G90
G05
T1
X169.228Y-142.328
X170.525Y-141.275
X170.53Y-142.27
X172.7Y-128.55
X176.9Y-153.7
X176.9Y-154.45
X176.9Y-155.2
X177.5Y-191.185
X177.65Y-153.7
X177.65Y-154.45
X177.65Y-155.2
X177.814Y-196.603
X178.4Y-153.7
X178.4Y-154.45
X178.4Y-155.2
X179.139Y-191.159
X179.145Y-196.609
X180.401Y-158.799
X180.42Y-162.084
X180.443Y-162.98
X180.504Y-163.839
X180.666Y-164.664
X180.773Y-196.596
X180.775Y-191.161
X181.11Y-165.35
X181.581Y-166.0
X181.721Y-158.149
X181.841Y-191.194
X182.434Y-196.589
X182.438Y-152.3
X182.438Y-155.8
X183.397Y-188.852
X184.201Y-157.498
X184.75Y-193.0
X185.975Y-192.475
X188.75Y-198.75
X190.616Y-156.3
X190.688Y-152.8
X190.787Y-117.037
X192.4Y-165.2
X192.4Y-166.0
X192.905Y-192.536
X192.955Y-190.744
X193.2Y-165.2
X193.2Y-166.0
X193.426Y-146.462
X194.561Y-162.303
X195.25Y-185.0
X195.526Y-147.5
X196.25Y-158.0
X196.9Y-183.25
X196.947Y-166.1
X197.434Y-162.303
X197.8Y-169.5
X197.8Y-170.3
X197.8Y-171.1
X198.021Y-164.839
X198.25Y-159.492
X198.302Y-166.754
X198.705Y-171.235
X198.799Y-164.652
X199.025Y-182.187
X199.25Y-116.25
X199.25Y-119.75
X199.654Y-164.801
X199.75Y-159.5
X200.425Y-174.0
X200.669Y-164.905
X200.75Y-116.25
X200.75Y-119.75
X201.151Y-172.147
X201.396Y-159.773
X201.742Y-164.8
X202.25Y-158.0
X202.25Y-159.75
X202.25Y-160.919
X202.354Y-166.491
X202.482Y-163.673
X202.494Y-162.873
X202.55Y-164.583
X202.697Y-182.91
X202.947Y-182.15
X203.6Y-156.25
X203.6Y-157.0
X203.883Y-165.371
X204.0Y-167.2
X204.195Y-143.695
X204.262Y-163.865
X204.305Y-164.691
X204.35Y-156.25
X204.35Y-157.0
X204.489Y-163.098
X204.618Y-162.262
X204.75Y-160.0
X204.754Y-161.474
X206.255Y-161.25
X206.5Y-152.25
X206.5Y-153.0
X206.725Y-144.725
X207.25Y-152.25
X207.25Y-153.0
X207.476Y-160.743
X207.75Y-115.75
X209.587Y-114.837
X210.2Y-154.651
X214.5Y-115.0
X215.0Y-155.75
X216.75Y-155.5
X220.0Y-153.25
X221.05Y-165.269
X221.25Y-156.25
X221.25Y-157.0
X221.25Y-157.75
X221.4Y-165.999
X221.788Y-193.984
X222.0Y-156.25
X222.0Y-157.0
X222.0Y-157.75
X222.75Y-156.25
X222.75Y-157.0
X222.75Y-157.75
X227.65Y-127.75
X228.5Y-139.0
T2
X187.476Y-143.603
X187.476Y-147.603
X212.548Y-143.6
X212.548Y-147.6
T3
X172.75Y-141.0
X179.9Y-181.1
X194.7Y-154.631
X195.0Y-186.75
X195.507Y-165.797
X195.8Y-194.2
X200.857Y-179.393
X201.25Y-155.75
X204.2Y-194.2
X230.15Y-141.55
X235.457Y-140.594
X235.507Y-142.125
T4
X205.4Y-188.0
X208.6Y-193.2
X209.25Y-159.5
X209.251Y-163.866
X212.301Y-162.0
T5
X217.0Y-197.3
X219.0Y-197.3
T6
X167.47Y-137.221
X170.0Y-137.0
X173.47Y-125.221
X176.0Y-125.0
X185.73Y-117.2
X187.0Y-115.0
X196.0Y-115.0
X197.27Y-112.8
X202.73Y-112.8
X204.0Y-115.0
X213.0Y-115.0
X214.27Y-117.2
X224.0Y-125.0
X226.53Y-125.221
X230.0Y-137.0
X232.53Y-137.221
T7
X195.475Y-191.25
X196.18Y-152.775
X198.015Y-191.25
X198.72Y-152.775
X198.735Y-194.985
X198.735Y-197.525
X201.26Y-152.775
X201.275Y-194.985
X201.275Y-197.525
X201.985Y-191.25
X203.8Y-152.775
X204.525Y-191.25
T8
X185.0Y-185.5
X185.0Y-189.5
X215.0Y-185.5
X215.0Y-189.5
M30
