%TF.GenerationSoftware,KiCad,Pcbnew,9.0.5*%
%TF.CreationDate,2026-08-03T23:31:16+07:00*%
%TF.ProjectId,minichinh,6d696e69-6368-4696-9e68-2e6b69636164,rev?*%
%TF.SameCoordinates,Original*%
%TF.FileFunction,Copper,L2,Bot*%
%TF.FilePolarity,Positive*%
%FSLAX46Y46*%
G04 Gerber Fmt 4.6, Leading zero omitted, Abs format (unit mm)*
G04 Created by KiCad (PCBNEW 9.0.5) date 2026-08-03 23:31:16*
%MOMM*%
%LPD*%
G01*
G04 APERTURE LIST*
G04 Aperture macros list*
%AMRoundRect*
0 Rectangle with rounded corners*
0 $1 Rounding radius*
0 $2 $3 $4 $5 $6 $7 $8 $9 X,Y pos of 4 corners*
0 Add a 4 corners polygon primitive as box body*
4,1,4,$2,$3,$4,$5,$6,$7,$8,$9,$2,$3,0*
0 Add four circle primitives for the rounded corners*
1,1,$1+$1,$2,$3*
1,1,$1+$1,$4,$5*
1,1,$1+$1,$6,$7*
1,1,$1+$1,$8,$9*
0 Add four rect primitives between the rounded corners*
20,1,$1+$1,$2,$3,$4,$5,0*
20,1,$1+$1,$4,$5,$6,$7,0*
20,1,$1+$1,$6,$7,$8,$9,0*
20,1,$1+$1,$8,$9,$2,$3,0*%
%AMRotRect*
0 Rectangle, with rotation*
0 The origin of the aperture is its center*
0 $1 length*
0 $2 width*
0 $3 Rotation angle, in degrees counterclockwise*
0 Add horizontal line*
21,1,$1,$2,0,0,$3*%
G04 Aperture macros list end*
%TA.AperFunction,EtchedComponent*%
%ADD10C,0.000000*%
%TD*%
%TA.AperFunction,SMDPad,CuDef*%
%ADD11C,0.500000*%
%TD*%
%TA.AperFunction,SMDPad,CuDef*%
%ADD12R,0.800000X0.500000*%
%TD*%
%TA.AperFunction,ComponentPad*%
%ADD13R,1.000000X1.000000*%
%TD*%
%TA.AperFunction,SMDPad,CuDef*%
%ADD14RoundRect,0.237500X-0.237500X0.300000X-0.237500X-0.300000X0.237500X-0.300000X0.237500X0.300000X0*%
%TD*%
%TA.AperFunction,ComponentPad*%
%ADD15C,1.800000*%
%TD*%
%TA.AperFunction,ComponentPad*%
%ADD16RotRect,1.800000X1.800000X175.000000*%
%TD*%
%TA.AperFunction,ComponentPad*%
%ADD17R,1.700000X1.700000*%
%TD*%
%TA.AperFunction,ComponentPad*%
%ADD18C,1.700000*%
%TD*%
%TA.AperFunction,ComponentPad*%
%ADD19RotRect,1.800000X1.800000X120.000000*%
%TD*%
%TA.AperFunction,ComponentPad*%
%ADD20RotRect,1.800000X1.800000X240.000000*%
%TD*%
%TA.AperFunction,ComponentPad*%
%ADD21RotRect,1.800000X1.800000X185.000000*%
%TD*%
%TA.AperFunction,ComponentPad*%
%ADD22RoundRect,0.250000X0.350000X0.625000X-0.350000X0.625000X-0.350000X-0.625000X0.350000X-0.625000X0*%
%TD*%
%TA.AperFunction,ComponentPad*%
%ADD23O,1.200000X1.750000*%
%TD*%
%TA.AperFunction,SMDPad,CuDef*%
%ADD24RoundRect,0.237500X0.237500X-0.300000X0.237500X0.300000X-0.237500X0.300000X-0.237500X-0.300000X0*%
%TD*%
%TA.AperFunction,SMDPad,CuDef*%
%ADD25C,2.000000*%
%TD*%
%TA.AperFunction,ViaPad*%
%ADD26C,0.600000*%
%TD*%
%TA.AperFunction,ViaPad*%
%ADD27C,1.200000*%
%TD*%
%TA.AperFunction,ViaPad*%
%ADD28C,0.700000*%
%TD*%
%TA.AperFunction,ViaPad*%
%ADD29C,1.800000*%
%TD*%
%TA.AperFunction,Conductor*%
%ADD30C,0.300000*%
%TD*%
%TA.AperFunction,Conductor*%
%ADD31C,0.750000*%
%TD*%
%TA.AperFunction,Conductor*%
%ADD32C,1.778000*%
%TD*%
%TA.AperFunction,Conductor*%
%ADD33C,0.500000*%
%TD*%
%TA.AperFunction,Conductor*%
%ADD34C,1.000000*%
%TD*%
G04 APERTURE END LIST*
D10*
%TA.AperFunction,EtchedComponent*%
%TO.C,NT1*%
G36*
X220500000Y-197500000D02*
G01*
X219500000Y-197500000D01*
X219500000Y-197000000D01*
X220500000Y-197000000D01*
X220500000Y-197500000D01*
G37*
%TD.AperFunction*%
%TA.AperFunction,EtchedComponent*%
%TO.C,NT2*%
G36*
X220000000Y-197250001D02*
G01*
X218000000Y-197250001D01*
X218000000Y-193250001D01*
X220000000Y-193250001D01*
X220000000Y-197250001D01*
G37*
%TD.AperFunction*%
%TD*%
D11*
%TO.P,NT1,2,2*%
%TO.N,GNDA*%
X220500000Y-197250000D03*
%TO.P,NT1,1,1*%
%TO.N,GND*%
X219500000Y-197250000D03*
%TD*%
D12*
%TO.P,J5,3,Pin_3*%
%TO.N,unconnected-(J5-Pin_3-Pad3)*%
X187875630Y-145203210D03*
D13*
%TO.P,J5,1,Pin_1*%
%TO.N,Net-(J5-Pin_1)*%
X187475630Y-143603210D03*
%TO.P,J5,6,Pin_6*%
%TO.N,Net-(J5-Pin_6)*%
X187475630Y-147603210D03*
D12*
%TO.P,J5,5,Pin_5*%
%TO.N,unconnected-(J5-Pin_5-Pad5)*%
X187875630Y-146003210D03*
%TD*%
D14*
%TO.P,C4,2*%
%TO.N,Net-(J5-Pin_6)*%
X189925987Y-146462498D03*
%TO.P,C4,1*%
%TO.N,Net-(J5-Pin_1)*%
X189925987Y-144737498D03*
%TD*%
D15*
%TO.P,J4,1,Pin_1*%
%TO.N,+3.3V*%
X215000000Y-189500000D03*
%TO.P,J4,6,Pin_6*%
%TO.N,GND*%
X215000000Y-185500000D03*
%TD*%
D16*
%TO.P,D3,1,K*%
%TO.N,Net-(D3-K)*%
X232530336Y-137221376D03*
D15*
%TO.P,D3,2,A*%
%TO.N,+5V*%
X230000000Y-137000000D03*
%TD*%
%TO.P,J7,1,Pin_1*%
%TO.N,+3.3V*%
X185000000Y-185500000D03*
%TO.P,J7,6,Pin_6*%
%TO.N,GND*%
X185000000Y-189500000D03*
%TD*%
D17*
%TO.P,J3,1,Pin_1*%
%TO.N,Net-(J3-Pin_1)*%
X204525000Y-191250000D03*
D18*
%TO.P,J3,2,Pin_2*%
%TO.N,Net-(J3-Pin_2)*%
X201985000Y-191250000D03*
%TD*%
D19*
%TO.P,D4,1,K*%
%TO.N,Net-(D4-K)*%
X204000000Y-115000000D03*
D15*
%TO.P,D4,2,A*%
%TO.N,+5V*%
X202730000Y-112800295D03*
%TD*%
D20*
%TO.P,Q10,1,C*%
%TO.N,VDDA*%
X187000000Y-115000000D03*
D15*
%TO.P,Q10,2,E*%
%TO.N,IRR_L*%
X185730000Y-117199705D03*
%TD*%
D17*
%TO.P,J9,1,Pin_1*%
%TO.N,+5V*%
X203800000Y-152775000D03*
D18*
%TO.P,J9,2,Pin_2*%
%TO.N,GND*%
X201260000Y-152775000D03*
%TO.P,J9,3,Pin_3*%
%TO.N,RX*%
X198720000Y-152775000D03*
%TO.P,J9,4,Pin_4*%
%TO.N,TX*%
X196180000Y-152775001D03*
%TD*%
D13*
%TO.P,J6,1,Pin_1*%
%TO.N,Net-(J6-Pin_1)*%
X212548429Y-147600403D03*
D12*
%TO.P,J6,3,Pin_3*%
%TO.N,unconnected-(J6-Pin_3-Pad3)*%
X212148429Y-146000403D03*
%TO.P,J6,5,Pin_5*%
%TO.N,unconnected-(J6-Pin_5-Pad5)*%
X212148429Y-145200403D03*
D13*
%TO.P,J6,6,Pin_6*%
%TO.N,Net-(J6-Pin_6)*%
X212548429Y-143600403D03*
%TD*%
D16*
%TO.P,Q11,1,C*%
%TO.N,VDDA*%
X226530335Y-125221376D03*
D15*
%TO.P,Q11,2,E*%
%TO.N,IRR_FR*%
X223999999Y-125000000D03*
%TD*%
D17*
%TO.P,J2,1,Pin_1*%
%TO.N,Net-(J2-Pin_1)*%
X195475000Y-191250000D03*
D18*
%TO.P,J2,2,Pin_2*%
%TO.N,Net-(J2-Pin_2)*%
X198015000Y-191250000D03*
%TD*%
D21*
%TO.P,D2,1,K*%
%TO.N,Net-(D2-K)*%
X170000000Y-137000000D03*
D15*
%TO.P,D2,2,A*%
%TO.N,+5V*%
X167469664Y-137221376D03*
%TD*%
D20*
%TO.P,D1,1,K*%
%TO.N,Net-(D1-K)*%
X197270000Y-112800295D03*
D15*
%TO.P,D1,2,A*%
%TO.N,+5V*%
X196000000Y-115000000D03*
%TD*%
D17*
%TO.P,J8,1,Pin_1*%
%TO.N,+3.3V*%
X201275000Y-197525000D03*
D18*
%TO.P,J8,2,Pin_2*%
%TO.N,SWDIO*%
X198735000Y-197525000D03*
%TO.P,J8,3,Pin_3*%
%TO.N,SWCLK*%
X201275000Y-194985000D03*
%TO.P,J8,4,Pin_4*%
%TO.N,GND*%
X198735000Y-194985000D03*
%TD*%
D21*
%TO.P,Q9,1,C*%
%TO.N,VDDA*%
X176000000Y-125000000D03*
D15*
%TO.P,Q9,2,E*%
%TO.N,IRR_FL*%
X173469664Y-125221376D03*
%TD*%
D22*
%TO.P,J1,1,Pin_1*%
%TO.N,GND*%
X219000000Y-197300000D03*
D23*
%TO.P,J1,2,Pin_2*%
%TO.N,Net-(J1-Pin_2)*%
X217000000Y-197300000D03*
%TD*%
D19*
%TO.P,Q12,1,C*%
%TO.N,VDDA*%
X214270000Y-117199705D03*
D15*
%TO.P,Q12,2,E*%
%TO.N,IRR_R*%
X213000000Y-115000000D03*
%TD*%
D24*
%TO.P,C15,1*%
%TO.N,Net-(J6-Pin_1)*%
X210100000Y-146462500D03*
%TO.P,C15,2*%
%TO.N,Net-(J6-Pin_6)*%
X210100000Y-144737500D03*
%TD*%
D25*
%TO.P,NT2,1,1*%
%TO.N,GNDPWR*%
X219000000Y-193250000D03*
%TO.P,NT2,2,2*%
%TO.N,GND*%
X219000000Y-197250002D03*
%TD*%
D26*
%TO.N,RESET*%
X180419726Y-162083961D03*
%TO.N,BL*%
X181110102Y-165350000D03*
D27*
%TO.N,+3.3V*%
X179900000Y-181100000D03*
D26*
%TO.N,AIN1*%
X180443304Y-162979621D03*
%TO.N,BOOT*%
X180666363Y-164663796D03*
X183396571Y-188852329D03*
D27*
%TO.N,GNDA*%
X230150000Y-141550000D03*
D28*
X228500000Y-139000000D03*
%TO.N,IRR_FR*%
X196250000Y-158000000D03*
D27*
%TO.N,GND*%
X194699999Y-154630892D03*
D26*
%TO.N,IRR_FR*%
X198250000Y-159492384D03*
%TO.N,TX*%
X184201000Y-157498017D03*
%TO.N,IRR_R*%
X227649535Y-127750000D03*
D28*
%TO.N,GND*%
X169227777Y-142327777D03*
%TO.N,Net-(D1-K)*%
X170530025Y-142269975D03*
%TO.N,IRR_R*%
X214500000Y-115000000D03*
D27*
%TO.N,GND*%
X235506847Y-142125094D03*
X235456847Y-140594347D03*
%TO.N,GNDPWR*%
X195800000Y-194200000D03*
X204200000Y-194200000D03*
D29*
X205400000Y-188000000D03*
%TO.N,GND*%
X212301304Y-162000000D03*
D26*
X193200000Y-166000000D03*
X192400000Y-166000000D03*
X193200000Y-165200000D03*
X192400000Y-165200000D03*
X204000000Y-167200000D03*
D28*
%TO.N,Net-(D2-K)*%
X170525000Y-141275000D03*
D26*
%TO.N,+5V*%
X180400983Y-158799017D03*
%TO.N,GND*%
X210200000Y-154650605D03*
X204350000Y-157000000D03*
X203600000Y-157000000D03*
X204350000Y-156250000D03*
X203600000Y-156250000D03*
D28*
%TO.N,GNDA*%
X190787500Y-117037500D03*
D26*
%TO.N,GND*%
X207476175Y-160743065D03*
X200750000Y-119750000D03*
X199250000Y-119750000D03*
X200750000Y-116250000D03*
X199250000Y-116250000D03*
X207250000Y-152250000D03*
X207250000Y-153000000D03*
X206500000Y-153000000D03*
X206500000Y-152250000D03*
X216750000Y-155500000D03*
X220000000Y-153250000D03*
D28*
%TO.N,GNDA*%
X209587500Y-114837500D03*
D26*
%TO.N,VOL*%
X206254981Y-161250000D03*
%TO.N,Net-(J5-Pin_1)*%
X195525987Y-147499998D03*
%TO.N,Net-(J5-Pin_6)*%
X193425987Y-146462498D03*
%TO.N,AIN2*%
X180503661Y-163838503D03*
X202250000Y-160919239D03*
D27*
%TO.N,+3.3V*%
X195507110Y-165797302D03*
X195000000Y-186750000D03*
D26*
%TO.N,BOOT*%
X194561397Y-162303158D03*
X204753981Y-161473854D03*
X185975000Y-192475000D03*
D27*
%TO.N,GNDA*%
X201250000Y-155750000D03*
D28*
X207750000Y-115750000D03*
D27*
X172750000Y-141000000D03*
D26*
%TO.N,BIN1*%
X202697426Y-182910048D03*
X204617957Y-162262208D03*
%TO.N,BIN2*%
X202947090Y-182150000D03*
X204489042Y-163098197D03*
D29*
%TO.N,GNDPWR*%
X208600000Y-193200000D03*
D26*
%TO.N,AIN1*%
X202250000Y-159750000D03*
D28*
%TO.N,IRR_L*%
X172700000Y-128550500D03*
%TO.N,GND*%
X221250000Y-157750000D03*
D26*
X177650000Y-153700000D03*
D28*
X221250000Y-156250000D03*
D26*
X202353752Y-166490798D03*
X176900000Y-155200000D03*
D28*
X222000000Y-156250000D03*
X182434485Y-196589439D03*
X188750000Y-198750000D03*
X195250000Y-185000000D03*
X177813967Y-196602678D03*
X184750000Y-193000000D03*
X222000000Y-157750000D03*
X222750000Y-156250000D03*
D27*
X200857295Y-179392705D03*
D29*
X209250000Y-159500000D03*
D26*
X200424998Y-174000000D03*
X201395791Y-159773447D03*
X202550220Y-164583458D03*
X177650000Y-154450000D03*
X178400000Y-153700000D03*
D28*
X190615980Y-156300000D03*
D29*
X209250543Y-163866224D03*
D28*
X179144517Y-196609298D03*
X222750000Y-157000000D03*
D26*
X177650000Y-155200000D03*
D28*
X221787847Y-193984382D03*
D26*
X176900000Y-154450000D03*
D28*
X180772952Y-196596059D03*
D26*
X178400000Y-155200000D03*
D28*
X190687500Y-152800000D03*
X222000000Y-157000000D03*
D26*
X178400000Y-154450000D03*
X176900000Y-153700000D03*
D28*
X222750000Y-157750000D03*
X221250000Y-157000000D03*
X192955013Y-190743960D03*
X192905013Y-192535627D03*
D26*
X204750000Y-160000000D03*
%TO.N,Net-(U2-VINT)*%
X196900000Y-183250000D03*
X199025000Y-182186610D03*
D28*
%TO.N,Net-(D3-K)*%
X182437500Y-152300000D03*
%TO.N,Net-(D4-K)*%
X182437500Y-155800000D03*
D26*
%TO.N,MOSI*%
X198704568Y-171235328D03*
X198798744Y-164652432D03*
%TO.N,SCK*%
X197800000Y-170300003D03*
X198302001Y-166753589D03*
%TO.N,MISO*%
X198020719Y-164838647D03*
X197800000Y-171100006D03*
%TO.N,CSB*%
X197800000Y-169500000D03*
X196946630Y-166100000D03*
%TO.N,Net-(D6-A)*%
X200668555Y-164904596D03*
D28*
X180774824Y-191161421D03*
D26*
%TO.N,RESET*%
X199750000Y-159500000D03*
D28*
%TO.N,Net-(D9-A)*%
X179139451Y-191158988D03*
D26*
X199654221Y-164800737D03*
%TO.N,VOL*%
X197434132Y-162303158D03*
%TO.N,Net-(J6-Pin_6)*%
X206725000Y-144725000D03*
%TO.N,Net-(J6-Pin_1)*%
X204195000Y-143695000D03*
%TO.N,BR*%
X221400000Y-165999000D03*
X204304626Y-164691489D03*
%TO.N,AR*%
X221050000Y-165269240D03*
X204261736Y-163865227D03*
%TO.N,AL*%
X202481872Y-163672981D03*
X181580536Y-166000000D03*
%TO.N,BL*%
X202494137Y-162873072D03*
%TO.N,SWDIO*%
X201151000Y-172147120D03*
%TO.N,SWCLK*%
X203882649Y-165371151D03*
D28*
%TO.N,Net-(D7-A)*%
X181840644Y-191194414D03*
D26*
X201741623Y-164800001D03*
%TO.N,RX*%
X181721258Y-158149018D03*
%TO.N,PC13*%
X202250000Y-158000000D03*
X177500000Y-191185432D03*
D28*
%TO.N,GND*%
X215000000Y-155750000D03*
%TD*%
D30*
%TO.N,BL*%
X201156687Y-162873072D02*
X202494137Y-162873072D01*
X200528760Y-163501000D02*
X201156687Y-162873072D01*
X194959520Y-163501000D02*
X200528760Y-163501000D01*
X182961102Y-163499000D02*
X194957520Y-163499000D01*
X194957520Y-163499000D02*
X194959520Y-163501000D01*
X181110102Y-165350000D02*
X182961102Y-163499000D01*
%TO.N,AL*%
X194749999Y-164000000D02*
X194752001Y-164002000D01*
X183580536Y-164000000D02*
X194749999Y-164000000D01*
X201065300Y-163672981D02*
X202481872Y-163672981D01*
X181580536Y-166000000D02*
X183580536Y-164000000D01*
X200736282Y-164002000D02*
X201065300Y-163672981D01*
X194752001Y-164002000D02*
X200736282Y-164002000D01*
%TO.N,Net-(U2-VINT)*%
X197961610Y-183250000D02*
X199025000Y-182186610D01*
X196900000Y-183250000D02*
X197961610Y-183250000D01*
%TO.N,AIN1*%
X202250000Y-159839892D02*
X202250000Y-159750000D01*
X201666445Y-160423447D02*
X202250000Y-159839892D01*
X199847842Y-161152158D02*
X200576553Y-160423447D01*
X195039572Y-161152158D02*
X199847842Y-161152158D01*
X195038571Y-161151158D02*
X195039572Y-161152158D01*
X194084223Y-161151158D02*
X195038571Y-161151158D01*
X194083222Y-161152158D02*
X194084223Y-161151158D01*
X182270767Y-161152158D02*
X194083222Y-161152158D01*
X200576553Y-160423447D02*
X201666445Y-160423447D01*
X180443304Y-162979621D02*
X182270767Y-161152158D01*
%TO.N,AIN2*%
X202244792Y-160924447D02*
X202250000Y-160919239D01*
X200055363Y-161653158D02*
X200784073Y-160924447D01*
X194831051Y-161652158D02*
X194832051Y-161653158D01*
X194832051Y-161653158D02*
X200055363Y-161653158D01*
X200784073Y-160924447D02*
X202244792Y-160924447D01*
X182689006Y-161653158D02*
X194290743Y-161653158D01*
X180503661Y-163838503D02*
X182689006Y-161653158D01*
X194290743Y-161653158D02*
X194291743Y-161652158D01*
X194291743Y-161652158D02*
X194831051Y-161652158D01*
%TO.N,BOOT*%
X183027001Y-162303158D02*
X194561397Y-162303158D01*
X180666363Y-164663796D02*
X183027001Y-162303158D01*
D31*
%TO.N,GNDA*%
X224000000Y-147700000D02*
X224050000Y-147650000D01*
X221750000Y-197250000D02*
X224000000Y-195000000D01*
X224000000Y-195000000D02*
X224000000Y-147700000D01*
X221250000Y-197250000D02*
X221750000Y-197250000D01*
D30*
%TO.N,Net-(D4-K)*%
X219800000Y-112000000D02*
X207000000Y-112000000D01*
X231100000Y-123300000D02*
X219800000Y-112000000D01*
X231100000Y-133100000D02*
X231100000Y-123300000D01*
X234000000Y-136000000D02*
X231100000Y-133100000D01*
X233500000Y-139000000D02*
X234000000Y-138500000D01*
X207000000Y-112000000D02*
X204000000Y-115000000D01*
X218305795Y-151251000D02*
X230556794Y-139000000D01*
X234000000Y-138500000D02*
X234000000Y-136000000D01*
X186986500Y-151251000D02*
X218305795Y-151251000D01*
X182437500Y-155800000D02*
X186986500Y-151251000D01*
X230556794Y-139000000D02*
X233500000Y-139000000D01*
D31*
%TO.N,GNDA*%
X210901000Y-113524000D02*
X209587500Y-114837500D01*
X219497280Y-113524000D02*
X210901000Y-113524000D01*
X228500000Y-139000000D02*
X228500000Y-136250000D01*
X228500000Y-136250000D02*
X229750000Y-135000000D01*
X229750000Y-123776720D02*
X219497280Y-113524000D01*
X229750000Y-135000000D02*
X229750000Y-123776720D01*
D32*
%TO.N,GNDPWR*%
X207600000Y-194200000D02*
X204200000Y-194200000D01*
X208600000Y-193200000D02*
X207600000Y-194200000D01*
X207000000Y-189600000D02*
X205400000Y-188000000D01*
X207000000Y-191600000D02*
X207000000Y-189600000D01*
X208600000Y-193200000D02*
X207000000Y-191600000D01*
X218650000Y-193250000D02*
X219000000Y-193250000D01*
X218600000Y-193200000D02*
X218650000Y-193250000D01*
X208600000Y-193200000D02*
X218600000Y-193200000D01*
X219000000Y-193250000D02*
X219000001Y-193249998D01*
D30*
%TO.N,AR*%
X220171500Y-166147740D02*
X221050000Y-165269240D01*
X207821752Y-166101000D02*
X207868491Y-166147740D01*
X205556707Y-163865227D02*
X207792480Y-166101000D01*
X207868491Y-166147740D02*
X220171500Y-166147740D01*
X204261736Y-163865227D02*
X205556707Y-163865227D01*
X207792480Y-166101000D02*
X207821752Y-166101000D01*
%TO.N,BR*%
X220750260Y-166648740D02*
X221400000Y-165999000D01*
X208076009Y-166648740D02*
X220750260Y-166648740D01*
X208076007Y-166648742D02*
X208076009Y-166648740D01*
X207660965Y-166648738D02*
X207660970Y-166648740D01*
X207660970Y-166648740D02*
X208076007Y-166648742D01*
X207614228Y-166602000D02*
X207660965Y-166648738D01*
X207584959Y-166602000D02*
X207614228Y-166602000D01*
X204304626Y-164691489D02*
X205674449Y-164691489D01*
X205674449Y-164691489D02*
X207584959Y-166602000D01*
%TO.N,BIN2*%
X204546090Y-183749000D02*
X202947090Y-182150000D01*
X220792480Y-183749000D02*
X204546090Y-183749000D01*
X222750000Y-181791480D02*
X220792480Y-183749000D01*
X222750000Y-166000000D02*
X222750000Y-181791480D01*
X221742595Y-164992595D02*
X222750000Y-166000000D01*
X221742595Y-164991181D02*
X221742595Y-164992595D01*
X221361249Y-164609835D02*
X221742595Y-164991181D01*
X221359836Y-164609835D02*
X221361249Y-164609835D01*
X221350000Y-164600000D02*
X221359836Y-164609835D01*
X220800000Y-164600000D02*
X221350000Y-164600000D01*
X208029272Y-165600000D02*
X208076012Y-165646740D01*
X219753261Y-165646740D02*
X220800000Y-164600000D01*
X208000000Y-165600000D02*
X208029272Y-165600000D01*
X208076012Y-165646740D02*
X219753261Y-165646740D01*
X205498197Y-163098197D02*
X208000000Y-165600000D01*
X204489042Y-163098197D02*
X205498197Y-163098197D01*
%TO.N,BIN1*%
X204037378Y-184250000D02*
X202697426Y-182910048D01*
X221000000Y-184250000D02*
X204037378Y-184250000D01*
X223251000Y-181999000D02*
X221000000Y-184250000D01*
X221568770Y-164108835D02*
X223251000Y-165791065D01*
X219545740Y-165145740D02*
X220592480Y-164099000D01*
X208283532Y-165145740D02*
X219545740Y-165145740D01*
X220592480Y-164099000D02*
X221557521Y-164099000D01*
X205400000Y-162262208D02*
X208283532Y-165145740D01*
X221567355Y-164108835D02*
X221568770Y-164108835D01*
X223251000Y-165791065D02*
X223251000Y-181999000D01*
X204617957Y-162262208D02*
X205400000Y-162262208D01*
X221557521Y-164099000D02*
X221567355Y-164108835D01*
%TO.N,Net-(D2-K)*%
X170000000Y-140750000D02*
X170000000Y-137000000D01*
X170525000Y-141275000D02*
X170000000Y-140750000D01*
%TO.N,IRR_L*%
X171500000Y-124000000D02*
X180250000Y-115250000D01*
X172649500Y-128550500D02*
X171500000Y-127401000D01*
X172700000Y-128550500D02*
X172649500Y-128550500D01*
X183780295Y-115250000D02*
X185730000Y-117199705D01*
X171500000Y-127401000D02*
X171500000Y-124000000D01*
X180250000Y-115250000D02*
X183780295Y-115250000D01*
%TO.N,SWCLK*%
X200010000Y-196250000D02*
X201275000Y-194985000D01*
X197750000Y-196250000D02*
X200010000Y-196250000D01*
X186520740Y-197020740D02*
X196979260Y-197020740D01*
X183604260Y-191000000D02*
X183604260Y-194104260D01*
X182305000Y-183029080D02*
X182305000Y-189700740D01*
X182679080Y-182655000D02*
X182305000Y-183029080D01*
X193655000Y-182655000D02*
X182679080Y-182655000D01*
X202349000Y-179901000D02*
X198250000Y-184000000D01*
X202349000Y-167730347D02*
X202349000Y-179901000D01*
X182305000Y-189700740D02*
X183604260Y-191000000D01*
X198250000Y-184000000D02*
X195000000Y-184000000D01*
X195000000Y-184000000D02*
X193655000Y-182655000D01*
X203882649Y-166196698D02*
X202349000Y-167730347D01*
X203882649Y-165371151D02*
X203882649Y-166196698D01*
X183604260Y-194104260D02*
X186520740Y-197020740D01*
X196979260Y-197020740D02*
X197750000Y-196250000D01*
%TO.N,Net-(D9-A)*%
X200017555Y-165164071D02*
X199654221Y-164800737D01*
X200017555Y-165174250D02*
X200017555Y-165164071D01*
X200149999Y-165306694D02*
X200017555Y-165174250D01*
X200149999Y-170807961D02*
X200149999Y-165306694D01*
X180301000Y-182199000D02*
X181849000Y-180651000D01*
X179139451Y-191110549D02*
X180301000Y-189949000D01*
X179139451Y-191158988D02*
X179139451Y-191110549D01*
%TO.N,Net-(D6-A)*%
X200650999Y-164919655D02*
X200666058Y-164904596D01*
X198250000Y-173416480D02*
X200650999Y-171015481D01*
X197598000Y-181152000D02*
X198250000Y-180500000D01*
X180802000Y-182406520D02*
X182056520Y-181152000D01*
%TO.N,Net-(D9-A)*%
X181849000Y-180651000D02*
X197349000Y-180651000D01*
%TO.N,Net-(D6-A)*%
X180802000Y-191134245D02*
X180802000Y-182406520D01*
X180774824Y-191161421D02*
X180802000Y-191134245D01*
%TO.N,Net-(D7-A)*%
X201699999Y-164800001D02*
X201741623Y-164800001D01*
X198750000Y-173625000D02*
X201151999Y-171223001D01*
X198750000Y-180750000D02*
X198750000Y-173625000D01*
%TO.N,Net-(D6-A)*%
X200650999Y-171015481D02*
X200650999Y-164919655D01*
%TO.N,Net-(D7-A)*%
X197847000Y-181653000D02*
X198750000Y-180750000D01*
%TO.N,Net-(D9-A)*%
X197349000Y-180651000D02*
X197750000Y-180250000D01*
%TO.N,Net-(D7-A)*%
X181303000Y-182614040D02*
X182264040Y-181653000D01*
X181303000Y-190656770D02*
X181303000Y-182614040D01*
X181840644Y-191194414D02*
X181303000Y-190656770D01*
%TO.N,SWDIO*%
X199250000Y-174048120D02*
X201151000Y-172147120D01*
X199250000Y-180958521D02*
X199250000Y-174048120D01*
X198054521Y-182154000D02*
X199250000Y-180958521D01*
%TO.N,Net-(D6-A)*%
X182056520Y-181152000D02*
X197598000Y-181152000D01*
%TO.N,Net-(D9-A)*%
X197750000Y-173207960D02*
X200149999Y-170807961D01*
%TO.N,SWDIO*%
X182471560Y-182154000D02*
X198054521Y-182154000D01*
X181804000Y-182821560D02*
X182471560Y-182154000D01*
%TO.N,Net-(D7-A)*%
X201151999Y-171223001D02*
X201151999Y-165348001D01*
%TO.N,SWDIO*%
X181804000Y-190054000D02*
X181804000Y-182821560D01*
X183045698Y-191295698D02*
X181804000Y-190054000D01*
X183045698Y-194295698D02*
X183045698Y-191295698D01*
%TO.N,Net-(D6-A)*%
X198250000Y-180500000D02*
X198250000Y-173416480D01*
%TO.N,SWDIO*%
X186275000Y-197525000D02*
X183045698Y-194295698D01*
X198735000Y-197525000D02*
X186275000Y-197525000D01*
%TO.N,Net-(D7-A)*%
X201151999Y-165348001D02*
X201699999Y-164800001D01*
%TO.N,Net-(D9-A)*%
X180301000Y-189949000D02*
X180301000Y-182199000D01*
X197750000Y-180250000D02*
X197750000Y-173207960D01*
%TO.N,Net-(D6-A)*%
X200666058Y-164904596D02*
X200668555Y-164904596D01*
%TO.N,Net-(D7-A)*%
X182264040Y-181653000D02*
X197847000Y-181653000D01*
D31*
%TO.N,GNDA*%
X197940990Y-121374000D02*
X202126000Y-121374000D01*
X194816990Y-118250000D02*
X197940990Y-121374000D01*
X192000000Y-118250000D02*
X194816990Y-118250000D01*
X190787500Y-117037500D02*
X192000000Y-118250000D01*
X202126000Y-121374000D02*
X207750000Y-115750000D01*
D30*
%TO.N,BOOT*%
X195258239Y-163000000D02*
X194561397Y-162303158D01*
X200321239Y-163000000D02*
X195258239Y-163000000D01*
X201250000Y-162071239D02*
X200321239Y-163000000D01*
X204262468Y-161487532D02*
X203678762Y-162071239D01*
X204740303Y-161487532D02*
X204262468Y-161487532D01*
X203678762Y-162071239D02*
X201250000Y-162071239D01*
X204753981Y-161473854D02*
X204740303Y-161487532D01*
D33*
%TO.N,Net-(J5-Pin_1)*%
X189925987Y-144737498D02*
X192763487Y-144737498D01*
X192763487Y-144737498D02*
X195525987Y-147499998D01*
X188889487Y-143700998D02*
X188028156Y-143700998D01*
%TO.N,Net-(J5-Pin_6)*%
X189925987Y-146462498D02*
X188788084Y-147600401D01*
X193425987Y-146462498D02*
X189925987Y-146462498D01*
X188788084Y-147600401D02*
X187477558Y-147600401D01*
%TO.N,Net-(J5-Pin_1)*%
X189925987Y-144737498D02*
X188889487Y-143700998D01*
%TO.N,+3.3V*%
X195000000Y-186750000D02*
X193750000Y-185500000D01*
X193750000Y-185500000D02*
X185000000Y-185500000D01*
%TO.N,VDDA*%
X227000000Y-125691041D02*
X226530335Y-125221376D01*
D30*
%TO.N,MOSI*%
X199574999Y-170364897D02*
X199574999Y-166074999D01*
X199574999Y-166074999D02*
X198798744Y-165298744D01*
X198798744Y-165298744D02*
X198798744Y-164652432D01*
X198704568Y-171235328D02*
X199574999Y-170364897D01*
%TO.N,SCK*%
X197920651Y-170300003D02*
X197800000Y-170300003D01*
X198302001Y-166753589D02*
X198305589Y-166753589D01*
X198305589Y-166753589D02*
X198451000Y-166899000D01*
X198451000Y-169769654D02*
X197920651Y-170300003D01*
X198451000Y-166899000D02*
X198451000Y-169769654D01*
%TO.N,MISO*%
X198952000Y-170068657D02*
X198952000Y-169250000D01*
X198000000Y-165500000D02*
X198238000Y-165738000D01*
X197800000Y-171100006D02*
X197920651Y-171100006D01*
X198238000Y-165738000D02*
X198238000Y-165762000D01*
X197920651Y-171100006D02*
X198952000Y-170068657D01*
X198000000Y-164859366D02*
X198000000Y-165500000D01*
X198952000Y-166476000D02*
X198952000Y-170068657D01*
X198020719Y-164838647D02*
X198000000Y-164859366D01*
X198238000Y-165762000D02*
X198952000Y-166476000D01*
%TO.N,VOL*%
X200262885Y-162154158D02*
X200417043Y-162000000D01*
X200170043Y-162247000D02*
X200417043Y-162000000D01*
X200113885Y-162303158D02*
X200170043Y-162247000D01*
X197434132Y-162303158D02*
X200113885Y-162303158D01*
D33*
%TO.N,Net-(J6-Pin_6)*%
X210100000Y-144646737D02*
X211146334Y-143600403D01*
X206725000Y-144725000D02*
X206737500Y-144737500D01*
X210100000Y-144737500D02*
X210100000Y-144646737D01*
X210100000Y-144737500D02*
X210296807Y-144737500D01*
X206737500Y-144737500D02*
X210100000Y-144737500D01*
X212548429Y-143600403D02*
X212255666Y-143600403D01*
X211146334Y-143600403D02*
X212548429Y-143600403D01*
X212255666Y-143600403D02*
X212255263Y-143600000D01*
%TO.N,Net-(J6-Pin_1)*%
X206962500Y-146462500D02*
X210100000Y-146462500D01*
X204195000Y-143695000D02*
X206962500Y-146462500D01*
X210100000Y-146462500D02*
X211237903Y-147600403D01*
X211237903Y-147600403D02*
X212548429Y-147600403D01*
D30*
%TO.N,Net-(D7-A)*%
X181840644Y-191194414D02*
X181847452Y-191194414D01*
X181847452Y-191194414D02*
X181962447Y-191309409D01*
%TO.N,VOL*%
X202679761Y-161570239D02*
X203500000Y-160750000D01*
X200846804Y-161570239D02*
X202679761Y-161570239D01*
X200170043Y-162247000D02*
X200846804Y-161570239D01*
X203500000Y-160750000D02*
X205754981Y-160750000D01*
X205754981Y-160750000D02*
X206254981Y-161250000D01*
D31*
%TO.N,GNDA*%
X172000000Y-129500000D02*
X172000000Y-140250000D01*
X170250000Y-127750000D02*
X172000000Y-129500000D01*
X170250000Y-123250000D02*
X170250000Y-127750000D01*
X180750000Y-112750000D02*
X170250000Y-123250000D01*
X172000000Y-140250000D02*
X172750000Y-141000000D01*
X190787500Y-115537500D02*
X188000000Y-112750000D01*
X188000000Y-112750000D02*
X180750000Y-112750000D01*
X190787500Y-117037500D02*
X190787500Y-115537500D01*
D30*
%TO.N,CSB*%
X196946630Y-167025977D02*
X196946630Y-166100000D01*
X197800000Y-167879347D02*
X196946630Y-167025977D01*
X197800000Y-169500000D02*
X197800000Y-167879347D01*
%TO.N,Net-(D1-K)*%
X195719705Y-111250000D02*
X197270000Y-112800295D01*
X180250000Y-111250000D02*
X195719705Y-111250000D01*
X168600000Y-122900000D02*
X180250000Y-111250000D01*
X165750000Y-135400000D02*
X168600000Y-132550000D01*
X170530025Y-142269975D02*
X165750000Y-137489950D01*
X165750000Y-137489950D02*
X165750000Y-135400000D01*
X168600000Y-132550000D02*
X168600000Y-122900000D01*
%TO.N,Net-(D3-K)*%
X231626898Y-137221376D02*
X232530336Y-137221376D01*
X182437500Y-152300000D02*
X183987500Y-150750000D01*
X183987500Y-150750000D02*
X218098274Y-150750000D01*
X218098274Y-150750000D02*
X231626898Y-137221376D01*
%TO.N,IRR_R*%
X219250000Y-115000000D02*
X214500000Y-115000000D01*
X228500000Y-124250000D02*
X219250000Y-115000000D01*
X228500000Y-126899535D02*
X228500000Y-124250000D01*
X227649535Y-127750000D02*
X228500000Y-126899535D01*
%TO.N,TX*%
X196180000Y-154494394D02*
X196180000Y-152775001D01*
X193177377Y-157497017D02*
X196180000Y-154494394D01*
X184202000Y-157497017D02*
X193177377Y-157497017D01*
X184201000Y-157498017D02*
X184202000Y-157497017D01*
%TO.N,+5V*%
X202575000Y-154000000D02*
X203800000Y-152775000D01*
X193654503Y-158799017D02*
X198453520Y-154000000D01*
X198453520Y-154000000D02*
X202575000Y-154000000D01*
X180400983Y-158799017D02*
X193654503Y-158799017D01*
%TO.N,RX*%
X198720000Y-153025000D02*
X198720000Y-152775000D01*
X181722259Y-158148017D02*
X193596983Y-158148017D01*
X193596983Y-158148017D02*
X198720000Y-153025000D01*
X181721258Y-158149018D02*
X181722259Y-158148017D01*
%TO.N,IRR_FR*%
X198250000Y-159492384D02*
X197739790Y-159492384D01*
X197500000Y-159252594D02*
X197500000Y-159250000D01*
X197500000Y-159250000D02*
X196250000Y-158000000D01*
X197739790Y-159492384D02*
X197500000Y-159252594D01*
D34*
%TO.N,GNDPWR*%
X204200000Y-194200000D02*
X202962834Y-192962834D01*
X197037166Y-192962834D02*
X195800000Y-194200000D01*
X202962834Y-192962834D02*
X197037166Y-192962834D01*
D31*
%TO.N,GNDA*%
X209800000Y-153000000D02*
X208000000Y-154800000D01*
X218700000Y-153000000D02*
X209800000Y-153000000D01*
X230150000Y-141550000D02*
X218700000Y-153000000D01*
X208000000Y-154800000D02*
X202200000Y-154800000D01*
X202200000Y-154800000D02*
X201250000Y-155750000D01*
D30*
%TO.N,BOOT*%
X183459619Y-189959619D02*
X185975000Y-192475000D01*
X183396571Y-188936952D02*
X183459619Y-189000000D01*
X183459619Y-189000000D02*
X183459619Y-189959619D01*
X183396571Y-188852329D02*
X183396571Y-188936952D01*
D33*
%TO.N,+3.3V*%
X179900000Y-181100000D02*
X178850000Y-181100000D01*
X178850000Y-181100000D02*
X178101000Y-180351000D01*
X178101000Y-180351000D02*
X178101000Y-167399000D01*
X178101000Y-167399000D02*
X178600000Y-166900000D01*
X178600000Y-166900000D02*
X194404412Y-166900000D01*
X194404412Y-166900000D02*
X195507110Y-165797302D01*
%TO.N,GNDA*%
X220500000Y-197250000D02*
X221250000Y-197250000D01*
D30*
%TO.N,RESET*%
X199750000Y-159621558D02*
X199750000Y-159500000D01*
X198720400Y-160651158D02*
X199750000Y-159621558D01*
X181852528Y-160651158D02*
X198720400Y-160651158D01*
X180419726Y-162083961D02*
X181852528Y-160651158D01*
%TO.N,PC13*%
X201401000Y-158849000D02*
X202250000Y-158000000D01*
X199480346Y-158849000D02*
X201401000Y-158849000D01*
X198901000Y-159428346D02*
X199480346Y-158849000D01*
X198901000Y-159762038D02*
X198901000Y-159428346D01*
X198512880Y-160150158D02*
X198901000Y-159762038D01*
X179769726Y-164830274D02*
X179769726Y-161813306D01*
X177500000Y-167100000D02*
X179769726Y-164830274D01*
X177500000Y-180750000D02*
X177500000Y-167100000D01*
X179800000Y-183050000D02*
X177500000Y-180750000D01*
X179769726Y-161813306D02*
X181432874Y-160150158D01*
X179800000Y-188885432D02*
X179800000Y-183050000D01*
X181432874Y-160150158D02*
X198512880Y-160150158D01*
X177500000Y-191185432D02*
X179800000Y-188885432D01*
%TD*%
%TA.AperFunction,Conductor*%
%TO.N,GND*%
G36*
X207996744Y-105500518D02*
G01*
X208629423Y-105511549D01*
X208632819Y-105511656D01*
X209063762Y-105531432D01*
X209066502Y-105531589D01*
X209506316Y-105561622D01*
X209508952Y-105561831D01*
X209957723Y-105602355D01*
X209960359Y-105602622D01*
X210415583Y-105653601D01*
X210418013Y-105653900D01*
X210880295Y-105715562D01*
X210882730Y-105715912D01*
X211350772Y-105788252D01*
X211353250Y-105788661D01*
X211826434Y-105871718D01*
X211828762Y-105872150D01*
X212307076Y-105966066D01*
X212309432Y-105966554D01*
X212790971Y-106071073D01*
X212793342Y-106071612D01*
X212916521Y-106100889D01*
X213279172Y-106187084D01*
X213281398Y-106187635D01*
X213768983Y-106313558D01*
X213771143Y-106314138D01*
X214259370Y-106450273D01*
X214262715Y-106451257D01*
X215250206Y-106757162D01*
X215254608Y-106758616D01*
X216241172Y-107105153D01*
X216245459Y-107106749D01*
X217229649Y-107493791D01*
X217233766Y-107495497D01*
X218212010Y-107922039D01*
X218216049Y-107923888D01*
X218879522Y-108242225D01*
X219184818Y-108388707D01*
X219188801Y-108390707D01*
X220145163Y-108892631D01*
X220149033Y-108894751D01*
X221090329Y-109432568D01*
X221094095Y-109434809D01*
X222018037Y-110007342D01*
X222021705Y-110009706D01*
X222632159Y-110418731D01*
X222926289Y-110615808D01*
X222929872Y-110618302D01*
X223813336Y-111256854D01*
X223816797Y-111259451D01*
X224677676Y-111929442D01*
X224681067Y-111932179D01*
X225518141Y-112632695D01*
X225521416Y-112635536D01*
X226310768Y-113345185D01*
X226333525Y-113365644D01*
X226336738Y-113368637D01*
X227108751Y-114113830D01*
X227123049Y-114127631D01*
X227126155Y-114130737D01*
X227885891Y-114917933D01*
X227888882Y-114921144D01*
X228621398Y-115735967D01*
X228624270Y-115739278D01*
X229328954Y-116581176D01*
X229331702Y-116584579D01*
X230008115Y-117453197D01*
X230010735Y-117456686D01*
X230658459Y-118351725D01*
X230660946Y-118355292D01*
X230989933Y-118845185D01*
X231261237Y-119249184D01*
X231279546Y-119276447D01*
X231281894Y-119280079D01*
X231864293Y-120216392D01*
X231871055Y-120227262D01*
X231873260Y-120230949D01*
X232188183Y-120778815D01*
X232432610Y-121204041D01*
X232434680Y-121207791D01*
X232963841Y-122206710D01*
X232965768Y-122210503D01*
X233170223Y-122630702D01*
X233464435Y-123235372D01*
X233464441Y-123235383D01*
X233466217Y-123239198D01*
X233548192Y-123423352D01*
X233934005Y-124290073D01*
X233935642Y-124293923D01*
X234372199Y-125371031D01*
X234373690Y-125374894D01*
X234778587Y-126478394D01*
X234779934Y-126482263D01*
X235152721Y-127612364D01*
X235153927Y-127616228D01*
X235494172Y-128773345D01*
X235495237Y-128777196D01*
X235803032Y-129963977D01*
X235803740Y-129966849D01*
X235944021Y-130566217D01*
X235944450Y-130568117D01*
X235964289Y-130659342D01*
X236077170Y-131178402D01*
X236077550Y-131180220D01*
X236176474Y-131672053D01*
X236201422Y-131796092D01*
X236201787Y-131797983D01*
X236317291Y-132422256D01*
X236317624Y-132424137D01*
X236424199Y-133054261D01*
X236424500Y-133056132D01*
X236522472Y-133694582D01*
X236522743Y-133696441D01*
X236611683Y-134341025D01*
X236611924Y-134342872D01*
X236692048Y-134995846D01*
X236692259Y-134997680D01*
X236763211Y-135656959D01*
X236763393Y-135658778D01*
X236825297Y-136326363D01*
X236825451Y-136328169D01*
X236878047Y-137002427D01*
X236878174Y-137004217D01*
X236921490Y-137686807D01*
X236921590Y-137688581D01*
X236955426Y-138377966D01*
X236955500Y-138379725D01*
X236979829Y-139077583D01*
X236979877Y-139079324D01*
X236994539Y-139784143D01*
X236994563Y-139785867D01*
X236999463Y-140496528D01*
X236999296Y-140503873D01*
X236983407Y-140807046D01*
X236982050Y-140819953D01*
X236934971Y-141117205D01*
X236932273Y-141129902D01*
X236854374Y-141420623D01*
X236850363Y-141432966D01*
X236742510Y-141713935D01*
X236737231Y-141725793D01*
X236600591Y-141993963D01*
X236594101Y-142005203D01*
X236430187Y-142257608D01*
X236422558Y-142268109D01*
X236233149Y-142502010D01*
X236224464Y-142511655D01*
X236011655Y-142724464D01*
X236002010Y-142733149D01*
X235768109Y-142922558D01*
X235757608Y-142930187D01*
X235505203Y-143094101D01*
X235493963Y-143100591D01*
X235225793Y-143237231D01*
X235213935Y-143242510D01*
X234932966Y-143350363D01*
X234920623Y-143354374D01*
X234629902Y-143432273D01*
X234617205Y-143434971D01*
X234319953Y-143482050D01*
X234307046Y-143483407D01*
X234003244Y-143499330D01*
X233996754Y-143499500D01*
X233701424Y-143499500D01*
X233105508Y-143536992D01*
X233105469Y-143536995D01*
X232513071Y-143611833D01*
X232513054Y-143611836D01*
X231926507Y-143723725D01*
X231926495Y-143723728D01*
X231348145Y-143872223D01*
X231348128Y-143872228D01*
X230780240Y-144056747D01*
X230780226Y-144056752D01*
X230225047Y-144276562D01*
X230225035Y-144276567D01*
X230225034Y-144276568D01*
X229749155Y-144500500D01*
X229684728Y-144530817D01*
X229161487Y-144818470D01*
X229161475Y-144818477D01*
X229161469Y-144818480D01*
X229161465Y-144818483D01*
X228657291Y-145138442D01*
X228657285Y-145138446D01*
X228657282Y-145138448D01*
X228174209Y-145489420D01*
X227714097Y-145870058D01*
X227278815Y-146278815D01*
X226870058Y-146714097D01*
X226489420Y-147174209D01*
X226138448Y-147657282D01*
X226138446Y-147657285D01*
X226138442Y-147657291D01*
X225899307Y-148034108D01*
X225818477Y-148161475D01*
X225818470Y-148161487D01*
X225632098Y-148500498D01*
X225530814Y-148684734D01*
X225340402Y-149089380D01*
X225276562Y-149225047D01*
X225056752Y-149780226D01*
X225056747Y-149780240D01*
X224872228Y-150348128D01*
X224872223Y-150348145D01*
X224819604Y-150553085D01*
X224783866Y-150613123D01*
X224721342Y-150644308D01*
X224651884Y-150636740D01*
X224597543Y-150592821D01*
X224575573Y-150526496D01*
X224575500Y-150522247D01*
X224575500Y-147989742D01*
X224595185Y-147922703D01*
X224611819Y-147902061D01*
X230127061Y-142386819D01*
X230188384Y-142353334D01*
X230214742Y-142350500D01*
X230228844Y-142350500D01*
X230228845Y-142350499D01*
X230383497Y-142319737D01*
X230529179Y-142259394D01*
X230660289Y-142171789D01*
X230771789Y-142060289D01*
X230859394Y-141929179D01*
X230919737Y-141783497D01*
X230950500Y-141628842D01*
X230950500Y-141471158D01*
X230950500Y-141471155D01*
X230950499Y-141471153D01*
X230932204Y-141379179D01*
X230919737Y-141316503D01*
X230872527Y-141202527D01*
X230859397Y-141170827D01*
X230859390Y-141170814D01*
X230771789Y-141039711D01*
X230771786Y-141039707D01*
X230660292Y-140928213D01*
X230660288Y-140928210D01*
X230529185Y-140840609D01*
X230529172Y-140840602D01*
X230383501Y-140780264D01*
X230383489Y-140780261D01*
X230228845Y-140749500D01*
X230228842Y-140749500D01*
X230071158Y-140749500D01*
X230071155Y-140749500D01*
X229916510Y-140780261D01*
X229916498Y-140780264D01*
X229770827Y-140840602D01*
X229770814Y-140840609D01*
X229639711Y-140928210D01*
X229639707Y-140928213D01*
X229528213Y-141039707D01*
X229528210Y-141039711D01*
X229440609Y-141170814D01*
X229440602Y-141170827D01*
X229380264Y-141316498D01*
X229380261Y-141316510D01*
X229349500Y-141471153D01*
X229349500Y-141485258D01*
X229329815Y-141552297D01*
X229313181Y-141572939D01*
X218497939Y-152388181D01*
X218436616Y-152421666D01*
X218410258Y-152424500D01*
X209724233Y-152424500D01*
X209635089Y-152448385D01*
X209635089Y-152448386D01*
X209577865Y-152463719D01*
X209577863Y-152463719D01*
X209577863Y-152463720D01*
X209446635Y-152539485D01*
X209446632Y-152539487D01*
X207797939Y-154188181D01*
X207736616Y-154221666D01*
X207710258Y-154224500D01*
X203145544Y-154224500D01*
X203124298Y-154218261D01*
X203102210Y-154216682D01*
X203091426Y-154208609D01*
X203078505Y-154204815D01*
X203064005Y-154188081D01*
X203046277Y-154174810D01*
X203041569Y-154162189D01*
X203032750Y-154152011D01*
X203029598Y-154130093D01*
X203021860Y-154109346D01*
X203024722Y-154096185D01*
X203022806Y-154082853D01*
X203032005Y-154062709D01*
X203036712Y-154041073D01*
X203049980Y-154023347D01*
X203051831Y-154019297D01*
X203057863Y-154012819D01*
X203208863Y-153861819D01*
X203270186Y-153828334D01*
X203296544Y-153825500D01*
X204669750Y-153825500D01*
X204669751Y-153825499D01*
X204684568Y-153822552D01*
X204728229Y-153813868D01*
X204728229Y-153813867D01*
X204728231Y-153813867D01*
X204794552Y-153769552D01*
X204838867Y-153703231D01*
X204838867Y-153703229D01*
X204838868Y-153703229D01*
X204850118Y-153646666D01*
X204850500Y-153644748D01*
X204850500Y-151905252D01*
X204850500Y-151905249D01*
X204850499Y-151905247D01*
X204838868Y-151846770D01*
X204838867Y-151846769D01*
X204803869Y-151794391D01*
X204782991Y-151727714D01*
X204801475Y-151660334D01*
X204853454Y-151613643D01*
X204906971Y-151601500D01*
X218351937Y-151601500D01*
X218351939Y-151601500D01*
X218441083Y-151577614D01*
X218521007Y-151531470D01*
X230665657Y-139386818D01*
X230726980Y-139353334D01*
X230753338Y-139350500D01*
X233546142Y-139350500D01*
X233546144Y-139350500D01*
X233635288Y-139326614D01*
X233663430Y-139310366D01*
X233715212Y-139280470D01*
X234280470Y-138715212D01*
X234326614Y-138635288D01*
X234350500Y-138546144D01*
X234350500Y-138453856D01*
X234350500Y-135953856D01*
X234326614Y-135864712D01*
X234306584Y-135830019D01*
X234280473Y-135784794D01*
X234280470Y-135784791D01*
X234280469Y-135784788D01*
X234215212Y-135719531D01*
X233205939Y-134710258D01*
X231486819Y-132991137D01*
X231453334Y-132929814D01*
X231450500Y-132903456D01*
X231450500Y-123253858D01*
X231450500Y-123253856D01*
X231426614Y-123164712D01*
X231426611Y-123164706D01*
X231380473Y-123084794D01*
X231380470Y-123084791D01*
X231380469Y-123084788D01*
X231315212Y-123019531D01*
X220015212Y-111719530D01*
X220015211Y-111719529D01*
X220015208Y-111719527D01*
X219935290Y-111673387D01*
X219935289Y-111673386D01*
X219935288Y-111673386D01*
X219846144Y-111649500D01*
X206953856Y-111649500D01*
X206864712Y-111673386D01*
X206864709Y-111673387D01*
X206784791Y-111719527D01*
X206784786Y-111719531D01*
X204738457Y-113765859D01*
X204677134Y-113799344D01*
X204607442Y-113794360D01*
X204551509Y-113752488D01*
X204543389Y-113740178D01*
X204493188Y-113653227D01*
X204493183Y-113653220D01*
X204481191Y-113639547D01*
X204453871Y-113608394D01*
X204382333Y-113573115D01*
X204302739Y-113567898D01*
X204302738Y-113567898D01*
X204302736Y-113567898D01*
X204246276Y-113587064D01*
X204246273Y-113587065D01*
X202653227Y-114506811D01*
X202608395Y-114546128D01*
X202608394Y-114546129D01*
X202601806Y-114559488D01*
X202573115Y-114617666D01*
X202567898Y-114697263D01*
X202587064Y-114753723D01*
X202587065Y-114753726D01*
X203366280Y-116103365D01*
X203506813Y-116346775D01*
X203546129Y-116391606D01*
X203617667Y-116426885D01*
X203697261Y-116432102D01*
X203753725Y-116412935D01*
X205346775Y-115493187D01*
X205391606Y-115453871D01*
X205426885Y-115382333D01*
X205432102Y-115302739D01*
X205412935Y-115246275D01*
X205380944Y-115190865D01*
X205034628Y-114591027D01*
X205018155Y-114523127D01*
X205041008Y-114457100D01*
X205054328Y-114441352D01*
X207108863Y-112386819D01*
X207170186Y-112353334D01*
X207196544Y-112350500D01*
X219603456Y-112350500D01*
X219670495Y-112370185D01*
X219691137Y-112386819D01*
X230713181Y-123408862D01*
X230746666Y-123470185D01*
X230749500Y-123496543D01*
X230749500Y-133146144D01*
X230760646Y-133187742D01*
X230773384Y-133235285D01*
X230773385Y-133235286D01*
X230819527Y-133315208D01*
X230819529Y-133315211D01*
X230819530Y-133315212D01*
X232214576Y-134710258D01*
X233484657Y-135980338D01*
X233518142Y-136041661D01*
X233513158Y-136111353D01*
X233471286Y-136167286D01*
X233405822Y-136191703D01*
X233386169Y-136191547D01*
X231710009Y-136044902D01*
X231710000Y-136044902D01*
X231650728Y-136051394D01*
X231650725Y-136051395D01*
X231580798Y-136089759D01*
X231580796Y-136089761D01*
X231530871Y-136151964D01*
X231530868Y-136151970D01*
X231514187Y-136209204D01*
X231514184Y-136209216D01*
X231457694Y-136854898D01*
X231448310Y-136878886D01*
X231442717Y-136904028D01*
X231434937Y-136913073D01*
X231432241Y-136919966D01*
X231421434Y-136932183D01*
X231413945Y-136939601D01*
X231411686Y-136940906D01*
X231311951Y-137040640D01*
X231311768Y-137040822D01*
X231281253Y-137057298D01*
X231250858Y-137073895D01*
X231250555Y-137073873D01*
X231250288Y-137074018D01*
X231215685Y-137071379D01*
X231181166Y-137068911D01*
X231180923Y-137068729D01*
X231180620Y-137068706D01*
X231152887Y-137047741D01*
X231125233Y-137027039D01*
X231125127Y-137026756D01*
X231124884Y-137026572D01*
X231112894Y-136993957D01*
X231100816Y-136961574D01*
X231100797Y-136961050D01*
X231100776Y-136960993D01*
X231100792Y-136960918D01*
X231100500Y-136952729D01*
X231100500Y-136913389D01*
X231091236Y-136854898D01*
X231073402Y-136742299D01*
X231019873Y-136577555D01*
X230941232Y-136423212D01*
X230839414Y-136283072D01*
X230716928Y-136160586D01*
X230576788Y-136058768D01*
X230422445Y-135980127D01*
X230257701Y-135926598D01*
X230257699Y-135926597D01*
X230257698Y-135926597D01*
X230126271Y-135905781D01*
X230086611Y-135899500D01*
X229963741Y-135899500D01*
X229896702Y-135879815D01*
X229850947Y-135827011D01*
X229841003Y-135757853D01*
X229870028Y-135694297D01*
X229876060Y-135687819D01*
X230210515Y-135353365D01*
X230286281Y-135222135D01*
X230325500Y-135075766D01*
X230325500Y-134924233D01*
X230325500Y-123700954D01*
X230286281Y-123554585D01*
X230210515Y-123423355D01*
X230103365Y-123316205D01*
X219850645Y-113063485D01*
X219785030Y-113025602D01*
X219719416Y-112987719D01*
X219646230Y-112968109D01*
X219573046Y-112948500D01*
X210825234Y-112948500D01*
X210678863Y-112987719D01*
X210610910Y-113026953D01*
X210576933Y-113046570D01*
X210568228Y-113051595D01*
X210547635Y-113063484D01*
X209126987Y-114484132D01*
X209126985Y-114484135D01*
X209051219Y-114615363D01*
X209014146Y-114753725D01*
X209012000Y-114761734D01*
X209012000Y-114913266D01*
X209014712Y-114923386D01*
X209051219Y-115059636D01*
X209088346Y-115123941D01*
X209126985Y-115190865D01*
X209234135Y-115298015D01*
X209329950Y-115353334D01*
X209359136Y-115370185D01*
X209365365Y-115373781D01*
X209511734Y-115413000D01*
X209511736Y-115413000D01*
X209663264Y-115413000D01*
X209663266Y-115413000D01*
X209809635Y-115373781D01*
X209940865Y-115298015D01*
X211103061Y-114135819D01*
X211164384Y-114102334D01*
X211190742Y-114099500D01*
X212050595Y-114099500D01*
X212117634Y-114119185D01*
X212163389Y-114171989D01*
X212173333Y-114241147D01*
X212150913Y-114296386D01*
X212058768Y-114423211D01*
X211980128Y-114577552D01*
X211926597Y-114742302D01*
X211901700Y-114899500D01*
X211899500Y-114913389D01*
X211899500Y-115086611D01*
X211906680Y-115131944D01*
X211916012Y-115190867D01*
X211926598Y-115257701D01*
X211979930Y-115421840D01*
X211980128Y-115422447D01*
X212026259Y-115512984D01*
X212058768Y-115576788D01*
X212160586Y-115716928D01*
X212283072Y-115839414D01*
X212423212Y-115941232D01*
X212577555Y-116019873D01*
X212742299Y-116073402D01*
X212913389Y-116100500D01*
X212913390Y-116100500D01*
X213086610Y-116100500D01*
X213086611Y-116100500D01*
X213257701Y-116073402D01*
X213422445Y-116019873D01*
X213576788Y-115941232D01*
X213716928Y-115839414D01*
X213839414Y-115716928D01*
X213941232Y-115576788D01*
X213966160Y-115527863D01*
X213985742Y-115489432D01*
X214033716Y-115438635D01*
X214101537Y-115421840D01*
X214158228Y-115438339D01*
X214161982Y-115440506D01*
X214161985Y-115440509D01*
X214287515Y-115512984D01*
X214427525Y-115550500D01*
X214427528Y-115550500D01*
X214456775Y-115550500D01*
X214572475Y-115550500D01*
X214712485Y-115512984D01*
X214838015Y-115440509D01*
X214891705Y-115386819D01*
X214953028Y-115353334D01*
X214979386Y-115350500D01*
X219053456Y-115350500D01*
X219120495Y-115370185D01*
X219141137Y-115386819D01*
X228113181Y-124358863D01*
X228146666Y-124420186D01*
X228149500Y-124446544D01*
X228149500Y-126702991D01*
X228129815Y-126770030D01*
X228113181Y-126790672D01*
X227690672Y-127213181D01*
X227629349Y-127246666D01*
X227602991Y-127249500D01*
X227583643Y-127249500D01*
X227456347Y-127283608D01*
X227342221Y-127349500D01*
X227342218Y-127349502D01*
X227249037Y-127442683D01*
X227249035Y-127442686D01*
X227183143Y-127556812D01*
X227167223Y-127616228D01*
X227149035Y-127684108D01*
X227149035Y-127815892D01*
X227151681Y-127825766D01*
X227183143Y-127943187D01*
X227199857Y-127972136D01*
X227249035Y-128057314D01*
X227342221Y-128150500D01*
X227456349Y-128216392D01*
X227583643Y-128250500D01*
X227583645Y-128250500D01*
X227715425Y-128250500D01*
X227715427Y-128250500D01*
X227842721Y-128216392D01*
X227956849Y-128150500D01*
X228050035Y-128057314D01*
X228115927Y-127943186D01*
X228150035Y-127815892D01*
X228150035Y-127796544D01*
X228169720Y-127729505D01*
X228186354Y-127708863D01*
X228452534Y-127442683D01*
X228780470Y-127114747D01*
X228826614Y-127034823D01*
X228830981Y-127018522D01*
X228834959Y-127003681D01*
X228840647Y-126982450D01*
X228850500Y-126945679D01*
X228850500Y-124203856D01*
X228826614Y-124114712D01*
X228808303Y-124082997D01*
X228780469Y-124034787D01*
X219465212Y-114719530D01*
X219465211Y-114719529D01*
X219465208Y-114719527D01*
X219385290Y-114673387D01*
X219385289Y-114673386D01*
X219385288Y-114673386D01*
X219296144Y-114649500D01*
X219296143Y-114649500D01*
X214979386Y-114649500D01*
X214912347Y-114629815D01*
X214891705Y-114613181D01*
X214838017Y-114559493D01*
X214838011Y-114559488D01*
X214712488Y-114487017D01*
X214712489Y-114487017D01*
X214701006Y-114483940D01*
X214572475Y-114449500D01*
X214427525Y-114449500D01*
X214298993Y-114483940D01*
X214287511Y-114487017D01*
X214158227Y-114561660D01*
X214090327Y-114578133D01*
X214024300Y-114555280D01*
X213985742Y-114510568D01*
X213969443Y-114478580D01*
X213941232Y-114423212D01*
X213849086Y-114296385D01*
X213825607Y-114230579D01*
X213841432Y-114162525D01*
X213891538Y-114113830D01*
X213949405Y-114099500D01*
X219207538Y-114099500D01*
X219274577Y-114119185D01*
X219295219Y-114135819D01*
X229138181Y-123978781D01*
X229171666Y-124040104D01*
X229174500Y-124066462D01*
X229174500Y-134710258D01*
X229154815Y-134777297D01*
X229138181Y-134797939D01*
X228039487Y-135896632D01*
X228039485Y-135896635D01*
X227963719Y-136027863D01*
X227928157Y-136160586D01*
X227924500Y-136174234D01*
X227924500Y-139075766D01*
X227934455Y-139112920D01*
X227963719Y-139222136D01*
X227997398Y-139280468D01*
X228039485Y-139353365D01*
X228146635Y-139460515D01*
X228277865Y-139536281D01*
X228424234Y-139575500D01*
X228424236Y-139575500D01*
X228477729Y-139575500D01*
X228544768Y-139595185D01*
X228590523Y-139647989D01*
X228600467Y-139717147D01*
X228571442Y-139780703D01*
X228565410Y-139787181D01*
X218508582Y-149844009D01*
X218447259Y-149877494D01*
X218377567Y-149872510D01*
X218321634Y-149830638D01*
X218297217Y-149765174D01*
X218312069Y-149696901D01*
X218318356Y-149686611D01*
X226387311Y-137820502D01*
X226400500Y-137807314D01*
X226424236Y-137766200D01*
X226450928Y-137726949D01*
X226453211Y-137720396D01*
X226462918Y-137699201D01*
X226466392Y-137693186D01*
X226478678Y-137647330D01*
X226494302Y-137602507D01*
X226495673Y-137583906D01*
X226500500Y-137565892D01*
X226500500Y-137518424D01*
X226503990Y-137471079D01*
X226500500Y-137452756D01*
X226500500Y-128819824D01*
X226502225Y-128804386D01*
X226501950Y-128804361D01*
X226502695Y-128796266D01*
X226500595Y-128742623D01*
X226500500Y-128740196D01*
X226500500Y-128684108D01*
X226497928Y-128674511D01*
X226497540Y-128664584D01*
X226481631Y-128613320D01*
X226480284Y-128608662D01*
X226470461Y-128572001D01*
X226466392Y-128556814D01*
X226466390Y-128556811D01*
X226466390Y-128556809D01*
X226463280Y-128549300D01*
X226463537Y-128549193D01*
X226462136Y-128545989D01*
X226461884Y-128546106D01*
X226458482Y-128538724D01*
X226429834Y-128493304D01*
X226428538Y-128491249D01*
X226400500Y-128442686D01*
X226393477Y-128435663D01*
X226388175Y-128427257D01*
X226346981Y-128389167D01*
X226307314Y-128349500D01*
X226298710Y-128344532D01*
X226291419Y-128337791D01*
X226291414Y-128337787D01*
X226243924Y-128312792D01*
X226239678Y-128310450D01*
X226193184Y-128283607D01*
X226185677Y-128280497D01*
X226185782Y-128280241D01*
X226171320Y-128274579D01*
X221877203Y-126014517D01*
X221827047Y-125965874D01*
X221811151Y-125897837D01*
X221812398Y-125885932D01*
X221822490Y-125820333D01*
X221962020Y-124913389D01*
X222899499Y-124913389D01*
X222899499Y-125086611D01*
X222926597Y-125257701D01*
X222980126Y-125422445D01*
X223058767Y-125576788D01*
X223160585Y-125716928D01*
X223283071Y-125839414D01*
X223423211Y-125941232D01*
X223577554Y-126019873D01*
X223742298Y-126073402D01*
X223913388Y-126100500D01*
X223913389Y-126100500D01*
X224086609Y-126100500D01*
X224086610Y-126100500D01*
X224257700Y-126073402D01*
X224355262Y-126041702D01*
X225353861Y-126041702D01*
X225353861Y-126041711D01*
X225360353Y-126100983D01*
X225360354Y-126100986D01*
X225398718Y-126170913D01*
X225398720Y-126170915D01*
X225460923Y-126220840D01*
X225460929Y-126220843D01*
X225500355Y-126232333D01*
X225518172Y-126237527D01*
X227350668Y-126397850D01*
X227409943Y-126391358D01*
X227479873Y-126352992D01*
X227529800Y-126290786D01*
X227529800Y-126290783D01*
X227529802Y-126290781D01*
X227537277Y-126265131D01*
X227546486Y-126233539D01*
X227706809Y-124401043D01*
X227700317Y-124341768D01*
X227661951Y-124271838D01*
X227661949Y-124271836D01*
X227599746Y-124221911D01*
X227599740Y-124221908D01*
X227542506Y-124205227D01*
X227542500Y-124205225D01*
X227542498Y-124205225D01*
X227542496Y-124205224D01*
X227542493Y-124205224D01*
X225710008Y-124044902D01*
X225709999Y-124044902D01*
X225650727Y-124051394D01*
X225650724Y-124051395D01*
X225580797Y-124089759D01*
X225580795Y-124089761D01*
X225530870Y-124151964D01*
X225530867Y-124151970D01*
X225514186Y-124209204D01*
X225514183Y-124209217D01*
X225353861Y-126041702D01*
X224355262Y-126041702D01*
X224422444Y-126019873D01*
X224576787Y-125941232D01*
X224716927Y-125839414D01*
X224839413Y-125716928D01*
X224941231Y-125576788D01*
X225019872Y-125422445D01*
X225073401Y-125257701D01*
X225100499Y-125086611D01*
X225100499Y-124913389D01*
X225073401Y-124742299D01*
X225019872Y-124577555D01*
X224941231Y-124423212D01*
X224839413Y-124283072D01*
X224716927Y-124160586D01*
X224576787Y-124058768D01*
X224422444Y-123980127D01*
X224257700Y-123926598D01*
X224257698Y-123926597D01*
X224257697Y-123926597D01*
X224126270Y-123905781D01*
X224086610Y-123899500D01*
X223913388Y-123899500D01*
X223873727Y-123905781D01*
X223742301Y-123926597D01*
X223577551Y-123980128D01*
X223423210Y-124058768D01*
X223354261Y-124108863D01*
X223283071Y-124160586D01*
X223283069Y-124160588D01*
X223283068Y-124160588D01*
X223160587Y-124283069D01*
X223160587Y-124283070D01*
X223160585Y-124283072D01*
X223117942Y-124341765D01*
X223058767Y-124423211D01*
X222980127Y-124577552D01*
X222926596Y-124742302D01*
X222917627Y-124798931D01*
X222899499Y-124913389D01*
X221962020Y-124913389D01*
X222740521Y-119853132D01*
X222750500Y-119815892D01*
X222750500Y-119788272D01*
X222754699Y-119760979D01*
X222751238Y-119729394D01*
X222750500Y-119715888D01*
X222750500Y-119684109D01*
X222750499Y-119684105D01*
X222745806Y-119666588D01*
X222745806Y-119666587D01*
X222743351Y-119657428D01*
X222740344Y-119629979D01*
X222726369Y-119594052D01*
X222726368Y-119594050D01*
X222724617Y-119587512D01*
X222724615Y-119587507D01*
X222716392Y-119556814D01*
X222707322Y-119541104D01*
X222707322Y-119541103D01*
X222702581Y-119532892D01*
X222692572Y-119507159D01*
X222669777Y-119476076D01*
X222650500Y-119442686D01*
X222650499Y-119442685D01*
X222650496Y-119442681D01*
X222637677Y-119429862D01*
X222630965Y-119423150D01*
X222614639Y-119400887D01*
X222584575Y-119376761D01*
X220656005Y-117448191D01*
X220650671Y-117442154D01*
X220602895Y-117395077D01*
X220602894Y-117395075D01*
X220602551Y-117394737D01*
X220557314Y-117349500D01*
X220555697Y-117348566D01*
X220554360Y-117347249D01*
X220499144Y-117315911D01*
X220498351Y-117315457D01*
X220443184Y-117283606D01*
X220441090Y-117282739D01*
X220441089Y-117282738D01*
X220439845Y-117282223D01*
X220381456Y-117267038D01*
X220378153Y-117266178D01*
X220377650Y-117266047D01*
X220315892Y-117249500D01*
X220314021Y-117249500D01*
X220312202Y-117249027D01*
X220248551Y-117249496D01*
X220248144Y-117249500D01*
X220184108Y-117249500D01*
X220182297Y-117249985D01*
X220180885Y-117249995D01*
X220180415Y-117249999D01*
X220119183Y-117266891D01*
X220118305Y-117267130D01*
X220053506Y-117284494D01*
X220045891Y-117287110D01*
X215240847Y-118612640D01*
X213224645Y-119168834D01*
X212948416Y-119245035D01*
X212915441Y-119249500D01*
X205363742Y-119249500D01*
X205296703Y-119229815D01*
X205250948Y-119177011D01*
X205241004Y-119107853D01*
X205270029Y-119044297D01*
X205276061Y-119037819D01*
X206731842Y-117582038D01*
X207416912Y-116896968D01*
X212837898Y-116896968D01*
X212857064Y-116953428D01*
X212857065Y-116953431D01*
X213776811Y-118546477D01*
X213776813Y-118546480D01*
X213816129Y-118591311D01*
X213887667Y-118626590D01*
X213967261Y-118631807D01*
X214023725Y-118612640D01*
X215616775Y-117692892D01*
X215661606Y-117653576D01*
X215696885Y-117582038D01*
X215702102Y-117502444D01*
X215682935Y-117445980D01*
X215680266Y-117441358D01*
X215086506Y-116412935D01*
X214763187Y-115852930D01*
X214723871Y-115808099D01*
X214652333Y-115772820D01*
X214572739Y-115767603D01*
X214516275Y-115786770D01*
X214501999Y-115795011D01*
X214501998Y-115795012D01*
X212923227Y-116706516D01*
X212878395Y-116745833D01*
X212878394Y-116745834D01*
X212865130Y-116772731D01*
X212843115Y-116817371D01*
X212837898Y-116896968D01*
X207416912Y-116896968D01*
X208210515Y-116103365D01*
X208286281Y-115972135D01*
X208325500Y-115825767D01*
X208325500Y-115674234D01*
X208286281Y-115527865D01*
X208210515Y-115396635D01*
X208103365Y-115289485D01*
X208028525Y-115246276D01*
X207972136Y-115213719D01*
X207861728Y-115184136D01*
X207825766Y-115174500D01*
X207674233Y-115174500D01*
X207527863Y-115213719D01*
X207396635Y-115289485D01*
X207396632Y-115289487D01*
X201923939Y-120762181D01*
X201862616Y-120795666D01*
X201836258Y-120798500D01*
X198230731Y-120798500D01*
X198163692Y-120778815D01*
X198143050Y-120762181D01*
X196660965Y-119280096D01*
X195170355Y-117789485D01*
X195104740Y-117751602D01*
X195039126Y-117713719D01*
X194961397Y-117692892D01*
X194892756Y-117674500D01*
X194892755Y-117674500D01*
X192289742Y-117674500D01*
X192222703Y-117654815D01*
X192202061Y-117638181D01*
X191399319Y-116835439D01*
X191365834Y-116774116D01*
X191363000Y-116747758D01*
X191363000Y-115461736D01*
X191363000Y-115461734D01*
X191347664Y-115404500D01*
X191323781Y-115315365D01*
X191302213Y-115278009D01*
X191248015Y-115184135D01*
X191140865Y-115076985D01*
X190977269Y-114913389D01*
X194899500Y-114913389D01*
X194899500Y-115086611D01*
X194906680Y-115131944D01*
X194916012Y-115190867D01*
X194926598Y-115257701D01*
X194979930Y-115421840D01*
X194980128Y-115422447D01*
X195026259Y-115512984D01*
X195058768Y-115576788D01*
X195160586Y-115716928D01*
X195283072Y-115839414D01*
X195423212Y-115941232D01*
X195577555Y-116019873D01*
X195742299Y-116073402D01*
X195913389Y-116100500D01*
X195913390Y-116100500D01*
X196086610Y-116100500D01*
X196086611Y-116100500D01*
X196257701Y-116073402D01*
X196422445Y-116019873D01*
X196576788Y-115941232D01*
X196716928Y-115839414D01*
X196839414Y-115716928D01*
X196941232Y-115576788D01*
X197019873Y-115422445D01*
X197073402Y-115257701D01*
X197100500Y-115086611D01*
X197100500Y-114913389D01*
X197073402Y-114742299D01*
X197019873Y-114577555D01*
X196941232Y-114423212D01*
X196839414Y-114283072D01*
X196716928Y-114160586D01*
X196576788Y-114058768D01*
X196422445Y-113980127D01*
X196257701Y-113926598D01*
X196257699Y-113926597D01*
X196257698Y-113926597D01*
X196094787Y-113900795D01*
X196086611Y-113899500D01*
X195913389Y-113899500D01*
X195905213Y-113900795D01*
X195742302Y-113926597D01*
X195577552Y-113980128D01*
X195423211Y-114058768D01*
X195347426Y-114113830D01*
X195283072Y-114160586D01*
X195283070Y-114160588D01*
X195283069Y-114160588D01*
X195160588Y-114283069D01*
X195160588Y-114283070D01*
X195160586Y-114283072D01*
X195150913Y-114296386D01*
X195058768Y-114423211D01*
X194980128Y-114577552D01*
X194926597Y-114742302D01*
X194901700Y-114899500D01*
X194899500Y-114913389D01*
X190977269Y-114913389D01*
X188353365Y-112289485D01*
X188270497Y-112241641D01*
X188222136Y-112213719D01*
X188148950Y-112194109D01*
X188075766Y-112174500D01*
X180825766Y-112174500D01*
X180674233Y-112174500D01*
X180527863Y-112213719D01*
X180396635Y-112289485D01*
X180396632Y-112289487D01*
X169789487Y-122896632D01*
X169789485Y-122896635D01*
X169713719Y-123027863D01*
X169674500Y-123174234D01*
X169674500Y-127825765D01*
X169713719Y-127972136D01*
X169751467Y-128037516D01*
X169789485Y-128103365D01*
X169789487Y-128103367D01*
X171388181Y-129702061D01*
X171421666Y-129763384D01*
X171424500Y-129789742D01*
X171424500Y-140174234D01*
X171424500Y-140325766D01*
X171438553Y-140378213D01*
X171463719Y-140472136D01*
X171477802Y-140496528D01*
X171539485Y-140603365D01*
X171743166Y-140807046D01*
X171913181Y-140977060D01*
X171946666Y-141038383D01*
X171949500Y-141064741D01*
X171949500Y-141078846D01*
X171980261Y-141233489D01*
X171980264Y-141233501D01*
X172040602Y-141379172D01*
X172040609Y-141379185D01*
X172128210Y-141510288D01*
X172128213Y-141510292D01*
X172239707Y-141621786D01*
X172239711Y-141621789D01*
X172370814Y-141709390D01*
X172370827Y-141709397D01*
X172516498Y-141769735D01*
X172516503Y-141769737D01*
X172671153Y-141800499D01*
X172671156Y-141800500D01*
X172671158Y-141800500D01*
X172828844Y-141800500D01*
X172828845Y-141800499D01*
X172983497Y-141769737D01*
X173129179Y-141709394D01*
X173260289Y-141621789D01*
X173371789Y-141510289D01*
X173459394Y-141379179D01*
X173519737Y-141233497D01*
X173550500Y-141078842D01*
X173550500Y-140921158D01*
X173550500Y-140921155D01*
X173550499Y-140921153D01*
X173543365Y-140885288D01*
X173519737Y-140766503D01*
X173517879Y-140762017D01*
X173459397Y-140620827D01*
X173459390Y-140620814D01*
X173371789Y-140489711D01*
X173371786Y-140489707D01*
X173260292Y-140378213D01*
X173260288Y-140378210D01*
X173129185Y-140290609D01*
X173129172Y-140290602D01*
X172983501Y-140230264D01*
X172983489Y-140230261D01*
X172828845Y-140199500D01*
X172828842Y-140199500D01*
X172814742Y-140199500D01*
X172785301Y-140190855D01*
X172755315Y-140184332D01*
X172750299Y-140180577D01*
X172747703Y-140179815D01*
X172727061Y-140163181D01*
X172611819Y-140047939D01*
X172578334Y-139986616D01*
X172575500Y-139960258D01*
X172575500Y-129424236D01*
X172575500Y-129424234D01*
X172536281Y-129277865D01*
X172536278Y-129277861D01*
X172536278Y-129277858D01*
X172534037Y-129272445D01*
X172526573Y-129202975D01*
X172557852Y-129140498D01*
X172617943Y-129104850D01*
X172648601Y-129101000D01*
X172772472Y-129101000D01*
X172772475Y-129101000D01*
X172912485Y-129063484D01*
X173038015Y-128991009D01*
X173140509Y-128888515D01*
X173212984Y-128762985D01*
X173250500Y-128622975D01*
X173250500Y-128478025D01*
X173212984Y-128338015D01*
X173212852Y-128337787D01*
X173140511Y-128212488D01*
X173140506Y-128212482D01*
X173038017Y-128109993D01*
X173038011Y-128109988D01*
X172912488Y-128037517D01*
X172912489Y-128037517D01*
X172901006Y-128034440D01*
X172772475Y-128000000D01*
X172646044Y-128000000D01*
X172579005Y-127980315D01*
X172558363Y-127963681D01*
X171886819Y-127292137D01*
X171853334Y-127230814D01*
X171850500Y-127204456D01*
X171850500Y-125134765D01*
X172369164Y-125134765D01*
X172369164Y-125307986D01*
X172387292Y-125422447D01*
X172396262Y-125479077D01*
X172449791Y-125643821D01*
X172528432Y-125798164D01*
X172630250Y-125938304D01*
X172752736Y-126060790D01*
X172892876Y-126162608D01*
X173047219Y-126241249D01*
X173211963Y-126294778D01*
X173383053Y-126321876D01*
X173383054Y-126321876D01*
X173556274Y-126321876D01*
X173556275Y-126321876D01*
X173727365Y-126294778D01*
X173892109Y-126241249D01*
X174046452Y-126162608D01*
X174186592Y-126060790D01*
X174309078Y-125938304D01*
X174410896Y-125798164D01*
X174489537Y-125643821D01*
X174543066Y-125479077D01*
X174570164Y-125307987D01*
X174570164Y-125134765D01*
X174543066Y-124963675D01*
X174489537Y-124798931D01*
X174410896Y-124644588D01*
X174309078Y-124504448D01*
X174186592Y-124381962D01*
X174052756Y-124284724D01*
X174052755Y-124284722D01*
X174046454Y-124280145D01*
X173892111Y-124201504D01*
X173892110Y-124201503D01*
X173892109Y-124201503D01*
X173824896Y-124179664D01*
X174823526Y-124179664D01*
X174823526Y-124179673D01*
X174983848Y-126012158D01*
X174983851Y-126012171D01*
X175000532Y-126069405D01*
X175000535Y-126069411D01*
X175025878Y-126100986D01*
X175050462Y-126131616D01*
X175120392Y-126169982D01*
X175179667Y-126176474D01*
X177012163Y-126016151D01*
X177043755Y-126006942D01*
X177069405Y-125999467D01*
X177069407Y-125999465D01*
X177069410Y-125999465D01*
X177131616Y-125949538D01*
X177169982Y-125879608D01*
X177176474Y-125820333D01*
X177016151Y-123987837D01*
X177008416Y-123961298D01*
X176999467Y-123930594D01*
X176999464Y-123930588D01*
X176949539Y-123868385D01*
X176949537Y-123868383D01*
X176879610Y-123830019D01*
X176879609Y-123830018D01*
X176879608Y-123830018D01*
X176820333Y-123823526D01*
X176820331Y-123823526D01*
X174987841Y-123983848D01*
X174987828Y-123983851D01*
X174930594Y-124000532D01*
X174930588Y-124000535D01*
X174868385Y-124050460D01*
X174868383Y-124050462D01*
X174830019Y-124120389D01*
X174830018Y-124120392D01*
X174823526Y-124179664D01*
X173824896Y-124179664D01*
X173727365Y-124147974D01*
X173727363Y-124147973D01*
X173727362Y-124147973D01*
X173595935Y-124127157D01*
X173556275Y-124120876D01*
X173383053Y-124120876D01*
X173343392Y-124127157D01*
X173211966Y-124147973D01*
X173047216Y-124201504D01*
X172892875Y-124280144D01*
X172812920Y-124338235D01*
X172752736Y-124381962D01*
X172752734Y-124381964D01*
X172752733Y-124381964D01*
X172630252Y-124504445D01*
X172630252Y-124504446D01*
X172630250Y-124504448D01*
X172586523Y-124564632D01*
X172528432Y-124644587D01*
X172449792Y-124798928D01*
X172396261Y-124963678D01*
X172369164Y-125134765D01*
X171850500Y-125134765D01*
X171850500Y-124196544D01*
X171870185Y-124129505D01*
X171886819Y-124108863D01*
X180358863Y-115636819D01*
X180420186Y-115603334D01*
X180446544Y-115600500D01*
X183583751Y-115600500D01*
X183650790Y-115620185D01*
X183671432Y-115636819D01*
X184185665Y-116151052D01*
X184681347Y-116646733D01*
X184714832Y-116708056D01*
X184711597Y-116772731D01*
X184656598Y-116942002D01*
X184656597Y-116942006D01*
X184629500Y-117113094D01*
X184629500Y-117286316D01*
X184634144Y-117315639D01*
X184656597Y-117457402D01*
X184710128Y-117622152D01*
X184736800Y-117674500D01*
X184788768Y-117776493D01*
X184890586Y-117916633D01*
X185013072Y-118039119D01*
X185153212Y-118140937D01*
X185307555Y-118219578D01*
X185472299Y-118273107D01*
X185643389Y-118300205D01*
X185643390Y-118300205D01*
X185816610Y-118300205D01*
X185816611Y-118300205D01*
X185987701Y-118273107D01*
X186152445Y-118219578D01*
X186306788Y-118140937D01*
X186446928Y-118039119D01*
X186569414Y-117916633D01*
X186671232Y-117776493D01*
X186749873Y-117622150D01*
X186803402Y-117457406D01*
X186830500Y-117286316D01*
X186830500Y-117113094D01*
X186803402Y-116942004D01*
X186749873Y-116777260D01*
X186671232Y-116622917D01*
X186569414Y-116482777D01*
X186446928Y-116360291D01*
X186306788Y-116258473D01*
X186152445Y-116179832D01*
X185987701Y-116126303D01*
X185987699Y-116126302D01*
X185987698Y-116126302D01*
X185856271Y-116105486D01*
X185816611Y-116099205D01*
X185643389Y-116099205D01*
X185635213Y-116100500D01*
X185472301Y-116126302D01*
X185472297Y-116126303D01*
X185303026Y-116181302D01*
X185233185Y-116183297D01*
X185177028Y-116151052D01*
X184602764Y-115576788D01*
X184328712Y-115302736D01*
X185567898Y-115302736D01*
X185567898Y-115302738D01*
X185567898Y-115302739D01*
X185573115Y-115382333D01*
X185608394Y-115453871D01*
X185653225Y-115493187D01*
X186252908Y-115839414D01*
X187209328Y-116391604D01*
X187246275Y-116412935D01*
X187302739Y-116432102D01*
X187382333Y-116426885D01*
X187453871Y-116391606D01*
X187493187Y-116346775D01*
X188412935Y-114753725D01*
X188432102Y-114697261D01*
X188426885Y-114617667D01*
X188391606Y-114546129D01*
X188346775Y-114506813D01*
X188346772Y-114506811D01*
X186753726Y-113587065D01*
X186753723Y-113587064D01*
X186713764Y-113573500D01*
X186697261Y-113567898D01*
X186617667Y-113573115D01*
X186546129Y-113608394D01*
X186546128Y-113608394D01*
X186546128Y-113608395D01*
X186506811Y-113653227D01*
X185587065Y-115246273D01*
X185587064Y-115246276D01*
X185567898Y-115302736D01*
X184328712Y-115302736D01*
X183995507Y-114969530D01*
X183995506Y-114969529D01*
X183995503Y-114969527D01*
X183915585Y-114923387D01*
X183915584Y-114923386D01*
X183915583Y-114923386D01*
X183826439Y-114899500D01*
X180203856Y-114899500D01*
X180203854Y-114899500D01*
X180139184Y-114916827D01*
X180139185Y-114916828D01*
X180114714Y-114923385D01*
X180114709Y-114923387D01*
X180034791Y-114969527D01*
X180034786Y-114969531D01*
X171219529Y-123784788D01*
X171197166Y-123823525D01*
X171197164Y-123823527D01*
X171173388Y-123864706D01*
X171173387Y-123864709D01*
X171173386Y-123864711D01*
X171173386Y-123864712D01*
X171172402Y-123868384D01*
X171149500Y-123953856D01*
X171149500Y-127447144D01*
X171164100Y-127501632D01*
X171164100Y-127501633D01*
X171171917Y-127530808D01*
X171170254Y-127600658D01*
X171131090Y-127658520D01*
X171066862Y-127686023D01*
X170997959Y-127674436D01*
X170964461Y-127650581D01*
X170861819Y-127547939D01*
X170828334Y-127486616D01*
X170825500Y-127460258D01*
X170825500Y-123539742D01*
X170845185Y-123472703D01*
X170861819Y-123452061D01*
X180952061Y-113361819D01*
X181013384Y-113328334D01*
X181039742Y-113325500D01*
X187710258Y-113325500D01*
X187777297Y-113345185D01*
X187797939Y-113361819D01*
X190175681Y-115739561D01*
X190209166Y-115800884D01*
X190212000Y-115827242D01*
X190212000Y-117113265D01*
X190251219Y-117259636D01*
X190283428Y-117315422D01*
X190326985Y-117390865D01*
X191646635Y-118710515D01*
X191777865Y-118786281D01*
X191924234Y-118825500D01*
X192075767Y-118825500D01*
X194527248Y-118825500D01*
X194556688Y-118834144D01*
X194586675Y-118840668D01*
X194591690Y-118844422D01*
X194594287Y-118845185D01*
X194614929Y-118861819D01*
X194790929Y-119037819D01*
X194824414Y-119099142D01*
X194819430Y-119168834D01*
X194777558Y-119224767D01*
X194712094Y-119249184D01*
X194703248Y-119249500D01*
X187084558Y-119249500D01*
X187051583Y-119245035D01*
X179954110Y-117287110D01*
X179946490Y-117284493D01*
X179881730Y-117267141D01*
X179881311Y-117267028D01*
X179819578Y-117249999D01*
X179817702Y-117249985D01*
X179815892Y-117249500D01*
X179752362Y-117249500D01*
X179751448Y-117249497D01*
X179687788Y-117249027D01*
X179685565Y-117249303D01*
X179685538Y-117249307D01*
X179684209Y-117249472D01*
X179622742Y-117265942D01*
X179621860Y-117266175D01*
X179560253Y-117282197D01*
X179558094Y-117283073D01*
X179558093Y-117283073D01*
X179558091Y-117283074D01*
X179556911Y-117283552D01*
X179501706Y-117315422D01*
X179501707Y-117315423D01*
X179501333Y-117315639D01*
X179445645Y-117347247D01*
X179444310Y-117348561D01*
X179442685Y-117349500D01*
X179397716Y-117394469D01*
X179397715Y-117394468D01*
X179397274Y-117394908D01*
X179351775Y-117439743D01*
X179350825Y-117441358D01*
X179344002Y-117448182D01*
X177420221Y-119371963D01*
X177410152Y-119380990D01*
X177385360Y-119400886D01*
X177374633Y-119415514D01*
X177374632Y-119415513D01*
X177369021Y-119423163D01*
X177349500Y-119442686D01*
X177330233Y-119476054D01*
X177326221Y-119481526D01*
X177326219Y-119481531D01*
X177307427Y-119507157D01*
X177300851Y-119524064D01*
X177297416Y-119532896D01*
X177283608Y-119556814D01*
X177273633Y-119594036D01*
X177271179Y-119600347D01*
X177271178Y-119600352D01*
X177259655Y-119629980D01*
X177259655Y-119629982D01*
X177257679Y-119648010D01*
X177254194Y-119666586D01*
X177249501Y-119684105D01*
X177249500Y-119684108D01*
X177249500Y-119722660D01*
X177245301Y-119760979D01*
X177249500Y-119788272D01*
X177249500Y-119815891D01*
X177257725Y-119846590D01*
X177260507Y-119859825D01*
X178187600Y-125885932D01*
X178178338Y-125955185D01*
X178133106Y-126008437D01*
X178122795Y-126014517D01*
X173828672Y-128274582D01*
X173816410Y-128281036D01*
X173806814Y-128283608D01*
X173758230Y-128311657D01*
X173756087Y-128312785D01*
X173756084Y-128312785D01*
X173708586Y-128337785D01*
X173708584Y-128337787D01*
X173703614Y-128342382D01*
X173701289Y-128344532D01*
X173692686Y-128349500D01*
X173653018Y-128389166D01*
X173651240Y-128390811D01*
X173651238Y-128390813D01*
X173611826Y-128427257D01*
X173606630Y-128433506D01*
X173606418Y-128433330D01*
X173604227Y-128436073D01*
X173604445Y-128436241D01*
X173599498Y-128442687D01*
X173572656Y-128489176D01*
X173572657Y-128489177D01*
X173571445Y-128491277D01*
X173541521Y-128538721D01*
X173538575Y-128548207D01*
X173533608Y-128556812D01*
X173533607Y-128556815D01*
X173519714Y-128608661D01*
X173518369Y-128613315D01*
X173502460Y-128664580D01*
X173501085Y-128672593D01*
X173500812Y-128672546D01*
X173500286Y-128676016D01*
X173500560Y-128676052D01*
X173499500Y-128684104D01*
X173499500Y-128684108D01*
X173499500Y-128740211D01*
X173497306Y-128796267D01*
X173499500Y-128805956D01*
X173499500Y-137441052D01*
X173497310Y-137464254D01*
X173496009Y-137471080D01*
X173499164Y-137513865D01*
X173499500Y-137522982D01*
X173499500Y-137565893D01*
X173500395Y-137569233D01*
X173504326Y-137583906D01*
X173505698Y-137602506D01*
X173521316Y-137647315D01*
X173522497Y-137651722D01*
X173522499Y-137651727D01*
X173532375Y-137688585D01*
X173533609Y-137693188D01*
X173537081Y-137699201D01*
X173537082Y-137699204D01*
X173542936Y-137709344D01*
X173549072Y-137726948D01*
X173575750Y-137766181D01*
X173578022Y-137770116D01*
X173578034Y-137770134D01*
X173599500Y-137807314D01*
X173599502Y-137807316D01*
X173604413Y-137812227D01*
X173619271Y-137830182D01*
X181428561Y-149314432D01*
X182075763Y-150266200D01*
X182099500Y-150307314D01*
X182112686Y-150320500D01*
X182119265Y-150330175D01*
X182123173Y-150335923D01*
X182137341Y-150348145D01*
X182159118Y-150366932D01*
X182192686Y-150400500D01*
X182208835Y-150409823D01*
X182217696Y-150417467D01*
X182217697Y-150417469D01*
X182217701Y-150417472D01*
X182222956Y-150422006D01*
X182261588Y-150440668D01*
X182269650Y-150444935D01*
X182306814Y-150466392D01*
X182306816Y-150466392D01*
X182306817Y-150466393D01*
X182313524Y-150468190D01*
X182324828Y-150471219D01*
X182341621Y-150479331D01*
X182388249Y-150488212D01*
X182392653Y-150489392D01*
X182434108Y-150500500D01*
X182434110Y-150500500D01*
X182452761Y-150500500D01*
X182471079Y-150503989D01*
X182518416Y-150500500D01*
X183441956Y-150500500D01*
X183508995Y-150520185D01*
X183554750Y-150572989D01*
X183564694Y-150642147D01*
X183535669Y-150705703D01*
X183529637Y-150712181D01*
X182528637Y-151713181D01*
X182467314Y-151746666D01*
X182440956Y-151749500D01*
X182365025Y-151749500D01*
X182249527Y-151780448D01*
X182225011Y-151787017D01*
X182099488Y-151859488D01*
X182099482Y-151859493D01*
X181996993Y-151961982D01*
X181996988Y-151961988D01*
X181924517Y-152087511D01*
X181924516Y-152087515D01*
X181887000Y-152227525D01*
X181887000Y-152372475D01*
X181912754Y-152468588D01*
X181924517Y-152512488D01*
X181996988Y-152638011D01*
X181996990Y-152638013D01*
X181996991Y-152638015D01*
X182099485Y-152740509D01*
X182099486Y-152740510D01*
X182099488Y-152740511D01*
X182225011Y-152812982D01*
X182225012Y-152812982D01*
X182225015Y-152812984D01*
X182365025Y-152850500D01*
X182365028Y-152850500D01*
X182509972Y-152850500D01*
X182509975Y-152850500D01*
X182649985Y-152812984D01*
X182775515Y-152740509D01*
X182878009Y-152638015D01*
X182950484Y-152512485D01*
X182988000Y-152372475D01*
X182988000Y-152296544D01*
X183007685Y-152229505D01*
X183024319Y-152208863D01*
X184096363Y-151136819D01*
X184157686Y-151103334D01*
X184184044Y-151100500D01*
X186341956Y-151100500D01*
X186408995Y-151120185D01*
X186454750Y-151172989D01*
X186464694Y-151242147D01*
X186435669Y-151305703D01*
X186429637Y-151312181D01*
X182528637Y-155213181D01*
X182467314Y-155246666D01*
X182440956Y-155249500D01*
X182365025Y-155249500D01*
X182236493Y-155283940D01*
X182225011Y-155287017D01*
X182099488Y-155359488D01*
X182099482Y-155359493D01*
X181996993Y-155461982D01*
X181996988Y-155461988D01*
X181924517Y-155587511D01*
X181924516Y-155587515D01*
X181887000Y-155727525D01*
X181887000Y-155872475D01*
X181916749Y-155983497D01*
X181924517Y-156012488D01*
X181996988Y-156138011D01*
X181996990Y-156138013D01*
X181996991Y-156138015D01*
X182099485Y-156240509D01*
X182099486Y-156240510D01*
X182099488Y-156240511D01*
X182225011Y-156312982D01*
X182225012Y-156312982D01*
X182225015Y-156312984D01*
X182365025Y-156350500D01*
X182365028Y-156350500D01*
X182509972Y-156350500D01*
X182509975Y-156350500D01*
X182649985Y-156312984D01*
X182775515Y-156240509D01*
X182878009Y-156138015D01*
X182950484Y-156012485D01*
X182988000Y-155872475D01*
X182988000Y-155796544D01*
X183007685Y-155729505D01*
X183024319Y-155708863D01*
X187095363Y-151637819D01*
X187156686Y-151604334D01*
X187183044Y-151601500D01*
X195644603Y-151601500D01*
X195711642Y-151621185D01*
X195757397Y-151673989D01*
X195767341Y-151743147D01*
X195738316Y-151806703D01*
X195692056Y-151840061D01*
X195682403Y-151844059D01*
X195510342Y-151959025D01*
X195364024Y-152105343D01*
X195249058Y-152277404D01*
X195169870Y-152468580D01*
X195169868Y-152468588D01*
X195129500Y-152671531D01*
X195129500Y-152878470D01*
X195169868Y-153081412D01*
X195169870Y-153081421D01*
X195249059Y-153272599D01*
X195267688Y-153300479D01*
X195364024Y-153444658D01*
X195510342Y-153590976D01*
X195682405Y-153705944D01*
X195752952Y-153735165D01*
X195807356Y-153779006D01*
X195829421Y-153845300D01*
X195829500Y-153849726D01*
X195829500Y-154297850D01*
X195809815Y-154364889D01*
X195793181Y-154385531D01*
X193068514Y-157110198D01*
X193007191Y-157143683D01*
X192980833Y-157146517D01*
X184608676Y-157146517D01*
X184541637Y-157126832D01*
X184520995Y-157110198D01*
X184508316Y-157097519D01*
X184508314Y-157097517D01*
X184451250Y-157064571D01*
X184394187Y-157031625D01*
X184330539Y-157014571D01*
X184266892Y-156997517D01*
X184135108Y-156997517D01*
X184007812Y-157031625D01*
X183893686Y-157097517D01*
X183893683Y-157097519D01*
X183800502Y-157190700D01*
X183800500Y-157190703D01*
X183734608Y-157304829D01*
X183700500Y-157432125D01*
X183700500Y-157563909D01*
X183710037Y-157599502D01*
X183721270Y-157641424D01*
X183719607Y-157711274D01*
X183680444Y-157769136D01*
X183616216Y-157796640D01*
X183601495Y-157797517D01*
X182128933Y-157797517D01*
X182061894Y-157777832D01*
X182041252Y-157761198D01*
X182028574Y-157748520D01*
X182028572Y-157748518D01*
X181964064Y-157711274D01*
X181914445Y-157682626D01*
X181837399Y-157661982D01*
X181787150Y-157648518D01*
X181655366Y-157648518D01*
X181528070Y-157682626D01*
X181413944Y-157748518D01*
X181413941Y-157748520D01*
X181320760Y-157841701D01*
X181320758Y-157841704D01*
X181254866Y-157955830D01*
X181220758Y-158083126D01*
X181220758Y-158214909D01*
X181241528Y-158292424D01*
X181239865Y-158362274D01*
X181200702Y-158420136D01*
X181136474Y-158447640D01*
X181121753Y-158448517D01*
X180809659Y-158448517D01*
X180742620Y-158428832D01*
X180721978Y-158412198D01*
X180708299Y-158398519D01*
X180708297Y-158398517D01*
X180651233Y-158365571D01*
X180594170Y-158332625D01*
X180530522Y-158315571D01*
X180466875Y-158298517D01*
X180335091Y-158298517D01*
X180207795Y-158332625D01*
X180093669Y-158398517D01*
X180093666Y-158398519D01*
X180000485Y-158491700D01*
X180000483Y-158491703D01*
X179934591Y-158605829D01*
X179900483Y-158733125D01*
X179900483Y-158864908D01*
X179934591Y-158992204D01*
X179961891Y-159039488D01*
X180000483Y-159106331D01*
X180093669Y-159199517D01*
X180207797Y-159265409D01*
X180335091Y-159299517D01*
X180335093Y-159299517D01*
X180466873Y-159299517D01*
X180466875Y-159299517D01*
X180594169Y-159265409D01*
X180708297Y-159199517D01*
X180721978Y-159185836D01*
X180783301Y-159152351D01*
X180809659Y-159149517D01*
X193700645Y-159149517D01*
X193700647Y-159149517D01*
X193789791Y-159125631D01*
X193808703Y-159114712D01*
X193869715Y-159079487D01*
X198562383Y-154386819D01*
X198623706Y-154353334D01*
X198650064Y-154350500D01*
X201536258Y-154350500D01*
X201603297Y-154370185D01*
X201649052Y-154422989D01*
X201658996Y-154492147D01*
X201629971Y-154555703D01*
X201623939Y-154562181D01*
X201272939Y-154913181D01*
X201211616Y-154946666D01*
X201185258Y-154949500D01*
X201171155Y-154949500D01*
X201016510Y-154980261D01*
X201016498Y-154980264D01*
X200870827Y-155040602D01*
X200870814Y-155040609D01*
X200739711Y-155128210D01*
X200739707Y-155128213D01*
X200628213Y-155239707D01*
X200628210Y-155239711D01*
X200540609Y-155370814D01*
X200540602Y-155370827D01*
X200480264Y-155516498D01*
X200480261Y-155516510D01*
X200449500Y-155671153D01*
X200449500Y-155828846D01*
X200480261Y-155983489D01*
X200480264Y-155983501D01*
X200540602Y-156129172D01*
X200540609Y-156129185D01*
X200628210Y-156260288D01*
X200628213Y-156260292D01*
X200739707Y-156371786D01*
X200739711Y-156371789D01*
X200870814Y-156459390D01*
X200870827Y-156459397D01*
X201016498Y-156519735D01*
X201016503Y-156519737D01*
X201171153Y-156550499D01*
X201171156Y-156550500D01*
X201171158Y-156550500D01*
X201328844Y-156550500D01*
X201328845Y-156550499D01*
X201483497Y-156519737D01*
X201629179Y-156459394D01*
X201760289Y-156371789D01*
X201871789Y-156260289D01*
X201959394Y-156129179D01*
X202019737Y-155983497D01*
X202050500Y-155828842D01*
X202050500Y-155814742D01*
X202070185Y-155747703D01*
X202086819Y-155727061D01*
X202402061Y-155411819D01*
X202463384Y-155378334D01*
X202489742Y-155375500D01*
X208075764Y-155375500D01*
X208075766Y-155375500D01*
X208222135Y-155336281D01*
X208353365Y-155260515D01*
X210002061Y-153611819D01*
X210063384Y-153578334D01*
X210089742Y-153575500D01*
X218775764Y-153575500D01*
X218775766Y-153575500D01*
X218922135Y-153536281D01*
X219053365Y-153460515D01*
X223212819Y-149301061D01*
X223274142Y-149267576D01*
X223343834Y-149272560D01*
X223399767Y-149314432D01*
X223424184Y-149379896D01*
X223424500Y-149388742D01*
X223424500Y-159441154D01*
X223404815Y-159508193D01*
X223352011Y-159553948D01*
X223282853Y-159563892D01*
X223219297Y-159534867D01*
X223200182Y-159514040D01*
X223182656Y-159489918D01*
X223010081Y-159317343D01*
X223010076Y-159317339D01*
X222812642Y-159173896D01*
X222812641Y-159173895D01*
X222812639Y-159173894D01*
X222595185Y-159063096D01*
X222363076Y-158987679D01*
X222363074Y-158987678D01*
X222363072Y-158987678D01*
X222194769Y-158961021D01*
X222122027Y-158949500D01*
X221877973Y-158949500D01*
X221822093Y-158958350D01*
X221636927Y-158987678D01*
X221404812Y-159063097D01*
X221187357Y-159173896D01*
X220989923Y-159317339D01*
X220989918Y-159317343D01*
X220817343Y-159489918D01*
X220817339Y-159489923D01*
X220673896Y-159687357D01*
X220563097Y-159904812D01*
X220487678Y-160136927D01*
X220449500Y-160377973D01*
X220449500Y-160622026D01*
X220486183Y-160853636D01*
X220487679Y-160863076D01*
X220563096Y-161095185D01*
X220665693Y-161296544D01*
X220673896Y-161312642D01*
X220817339Y-161510076D01*
X220817343Y-161510081D01*
X220989918Y-161682656D01*
X220989923Y-161682660D01*
X221083298Y-161750500D01*
X221187361Y-161826106D01*
X221404815Y-161936904D01*
X221636924Y-162012321D01*
X221877973Y-162050500D01*
X221877974Y-162050500D01*
X222122026Y-162050500D01*
X222122027Y-162050500D01*
X222363076Y-162012321D01*
X222595185Y-161936904D01*
X222812639Y-161826106D01*
X223010083Y-161682655D01*
X223182655Y-161510083D01*
X223200181Y-161485961D01*
X223255511Y-161443294D01*
X223325124Y-161437315D01*
X223386919Y-161469920D01*
X223421277Y-161530758D01*
X223424500Y-161558845D01*
X223424500Y-165169520D01*
X223404815Y-165236559D01*
X223352011Y-165282314D01*
X223282853Y-165292258D01*
X223219297Y-165263233D01*
X223212819Y-165257201D01*
X221783652Y-163828034D01*
X221773359Y-163819011D01*
X221773220Y-163818905D01*
X221772746Y-163818539D01*
X221772734Y-163818532D01*
X221772733Y-163818531D01*
X221739487Y-163799336D01*
X221739484Y-163799334D01*
X221739481Y-163799332D01*
X221692818Y-163772388D01*
X221674875Y-163767580D01*
X221638339Y-163757790D01*
X221603682Y-163748503D01*
X221603676Y-163748502D01*
X221603665Y-163748500D01*
X221602135Y-163748500D01*
X221548310Y-163748500D01*
X221511395Y-163748498D01*
X221511388Y-163748500D01*
X220546336Y-163748500D01*
X220457192Y-163772385D01*
X220377271Y-163818527D01*
X220377266Y-163818531D01*
X219436877Y-164758921D01*
X219375554Y-164792406D01*
X219349196Y-164795240D01*
X208480076Y-164795240D01*
X208413037Y-164775555D01*
X208392395Y-164758921D01*
X205615213Y-161981739D01*
X205615208Y-161981735D01*
X205535290Y-161935595D01*
X205535289Y-161935594D01*
X205535288Y-161935594D01*
X205446144Y-161911708D01*
X205446143Y-161911708D01*
X205293888Y-161911708D01*
X205226849Y-161892023D01*
X205181094Y-161839219D01*
X205171150Y-161770061D01*
X205186500Y-161725709D01*
X205220373Y-161667040D01*
X205254481Y-161539746D01*
X205254481Y-161407962D01*
X205220373Y-161280668D01*
X205220370Y-161280663D01*
X205218545Y-161276254D01*
X205218334Y-161276011D01*
X205218275Y-161275603D01*
X205217261Y-161273154D01*
X205217885Y-161272895D01*
X205214167Y-161247036D01*
X205207269Y-161218578D01*
X205209252Y-161212850D01*
X205208390Y-161206853D01*
X205220551Y-161180223D01*
X205230133Y-161152555D01*
X205234897Y-161148809D01*
X205237415Y-161143297D01*
X205262043Y-161127469D01*
X205285062Y-161109374D01*
X205292400Y-161107960D01*
X205296193Y-161105523D01*
X205331128Y-161100500D01*
X205558437Y-161100500D01*
X205625476Y-161120185D01*
X205646118Y-161136819D01*
X205718162Y-161208863D01*
X205751647Y-161270186D01*
X205754481Y-161296544D01*
X205754481Y-161315891D01*
X205788589Y-161443187D01*
X205788651Y-161443294D01*
X205854481Y-161557314D01*
X205947667Y-161650500D01*
X206061795Y-161716392D01*
X206189089Y-161750500D01*
X206189091Y-161750500D01*
X206320871Y-161750500D01*
X206320873Y-161750500D01*
X206448167Y-161716392D01*
X206562295Y-161650500D01*
X206655481Y-161557314D01*
X206721373Y-161443186D01*
X206755481Y-161315892D01*
X206755481Y-161184108D01*
X206721373Y-161056814D01*
X206655481Y-160942686D01*
X206562295Y-160849500D01*
X206488302Y-160806780D01*
X206448168Y-160783608D01*
X206384520Y-160766554D01*
X206320873Y-160749500D01*
X206320872Y-160749500D01*
X206301525Y-160749500D01*
X206234486Y-160729815D01*
X206213844Y-160713181D01*
X205970194Y-160469531D01*
X205970189Y-160469527D01*
X205890271Y-160423387D01*
X205890270Y-160423386D01*
X205890269Y-160423386D01*
X205801125Y-160399500D01*
X203453856Y-160399500D01*
X203364712Y-160423386D01*
X203364709Y-160423387D01*
X203284791Y-160469527D01*
X203284786Y-160469531D01*
X202934166Y-160820151D01*
X202872843Y-160853636D01*
X202803151Y-160848652D01*
X202747218Y-160806780D01*
X202726711Y-160764565D01*
X202716392Y-160726053D01*
X202650500Y-160611925D01*
X202557314Y-160518739D01*
X202491421Y-160480695D01*
X202443185Y-160452846D01*
X202435682Y-160449739D01*
X202436817Y-160446998D01*
X202389281Y-160418010D01*
X202358766Y-160355156D01*
X202367075Y-160285782D01*
X202411572Y-160231914D01*
X202436170Y-160220687D01*
X202435679Y-160219501D01*
X202443177Y-160216394D01*
X202443186Y-160216392D01*
X202557314Y-160150500D01*
X202650500Y-160057314D01*
X202716392Y-159943186D01*
X202750500Y-159815892D01*
X202750500Y-159684108D01*
X202716392Y-159556814D01*
X202650500Y-159442686D01*
X202557314Y-159349500D01*
X202483380Y-159306814D01*
X202443187Y-159283608D01*
X202375262Y-159265408D01*
X202315892Y-159249500D01*
X202184108Y-159249500D01*
X202056812Y-159283608D01*
X201942686Y-159349500D01*
X201942683Y-159349502D01*
X201849502Y-159442683D01*
X201849500Y-159442686D01*
X201783608Y-159556812D01*
X201749500Y-159684108D01*
X201749500Y-159793348D01*
X201740855Y-159822788D01*
X201734332Y-159852775D01*
X201730577Y-159857790D01*
X201729815Y-159860387D01*
X201713181Y-159881029D01*
X201557582Y-160036628D01*
X201496259Y-160070113D01*
X201469901Y-160072947D01*
X200530409Y-160072947D01*
X200441265Y-160096833D01*
X200441262Y-160096834D01*
X200361344Y-160142974D01*
X200361339Y-160142978D01*
X199738979Y-160765339D01*
X199677656Y-160798824D01*
X199651298Y-160801658D01*
X199364943Y-160801658D01*
X199297904Y-160781973D01*
X199252149Y-160729169D01*
X199242205Y-160660011D01*
X199271230Y-160596455D01*
X199277262Y-160589977D01*
X199577524Y-160289715D01*
X199861855Y-160005382D01*
X199917444Y-159973288D01*
X199943186Y-159966392D01*
X200057314Y-159900500D01*
X200150500Y-159807314D01*
X200216392Y-159693186D01*
X200250500Y-159565892D01*
X200250500Y-159434108D01*
X200229462Y-159355592D01*
X200231125Y-159285743D01*
X200270288Y-159227881D01*
X200334516Y-159200377D01*
X200349237Y-159199500D01*
X201447142Y-159199500D01*
X201447144Y-159199500D01*
X201536288Y-159175614D01*
X201540145Y-159173386D01*
X201540148Y-159173386D01*
X201616205Y-159129474D01*
X201616204Y-159129474D01*
X201616212Y-159129470D01*
X202208862Y-158536818D01*
X202270185Y-158503334D01*
X202296543Y-158500500D01*
X202315890Y-158500500D01*
X202315892Y-158500500D01*
X202443186Y-158466392D01*
X202557314Y-158400500D01*
X202650500Y-158307314D01*
X202716392Y-158193186D01*
X202750500Y-158065892D01*
X202750500Y-157934108D01*
X202716392Y-157806814D01*
X202650500Y-157692686D01*
X202557314Y-157599500D01*
X202488017Y-157559491D01*
X202443187Y-157533608D01*
X202379539Y-157516554D01*
X202315892Y-157499500D01*
X202184108Y-157499500D01*
X202056812Y-157533608D01*
X201942686Y-157599500D01*
X201942683Y-157599502D01*
X201849502Y-157692683D01*
X201849500Y-157692686D01*
X201783608Y-157806812D01*
X201749500Y-157934108D01*
X201749500Y-157953456D01*
X201729815Y-158020495D01*
X201713181Y-158041137D01*
X201292137Y-158462181D01*
X201230814Y-158495666D01*
X201204456Y-158498500D01*
X199434202Y-158498500D01*
X199359381Y-158518548D01*
X199359380Y-158518548D01*
X199345060Y-158522384D01*
X199345059Y-158522385D01*
X199265137Y-158568527D01*
X199265132Y-158568531D01*
X198737228Y-159096436D01*
X198675905Y-159129921D01*
X198606213Y-159124937D01*
X198561866Y-159096436D01*
X198557316Y-159091886D01*
X198557314Y-159091884D01*
X198466562Y-159039488D01*
X198443187Y-159025992D01*
X198379539Y-159008938D01*
X198315892Y-158991884D01*
X198184108Y-158991884D01*
X198056814Y-159025992D01*
X198056813Y-159025992D01*
X198056811Y-159025993D01*
X198056810Y-159025993D01*
X197956799Y-159083735D01*
X197929734Y-159090301D01*
X197903645Y-159100032D01*
X197896252Y-159098423D01*
X197888899Y-159100208D01*
X197862581Y-159091099D01*
X197835372Y-159085180D01*
X197826679Y-159078672D01*
X197822872Y-159077355D01*
X197807118Y-159064029D01*
X197794772Y-159051683D01*
X197784076Y-159039488D01*
X197780465Y-159034782D01*
X196836819Y-158091136D01*
X196803334Y-158029813D01*
X196800500Y-158003455D01*
X196800500Y-157927527D01*
X196800500Y-157927525D01*
X196762984Y-157787515D01*
X196757194Y-157777487D01*
X196690511Y-157661988D01*
X196690506Y-157661982D01*
X196588017Y-157559493D01*
X196588011Y-157559488D01*
X196462488Y-157487017D01*
X196462489Y-157487017D01*
X196451006Y-157483940D01*
X196322475Y-157449500D01*
X196177525Y-157449500D01*
X196048993Y-157483940D01*
X196037511Y-157487017D01*
X195911988Y-157559488D01*
X195911982Y-157559493D01*
X195809493Y-157661982D01*
X195809488Y-157661988D01*
X195737017Y-157787511D01*
X195737016Y-157787515D01*
X195699500Y-157927525D01*
X195699500Y-158072475D01*
X195731845Y-158193186D01*
X195737017Y-158212488D01*
X195809488Y-158338011D01*
X195809490Y-158338013D01*
X195809491Y-158338015D01*
X195911985Y-158440509D01*
X195911986Y-158440510D01*
X195911988Y-158440511D01*
X196037511Y-158512982D01*
X196037512Y-158512982D01*
X196037515Y-158512984D01*
X196177525Y-158550500D01*
X196253456Y-158550500D01*
X196320495Y-158570185D01*
X196341137Y-158586819D01*
X197205225Y-159450907D01*
X197206058Y-159451748D01*
X197216265Y-159462152D01*
X197219530Y-159467806D01*
X197340145Y-159588421D01*
X197340535Y-159588818D01*
X197356688Y-159619085D01*
X197373187Y-159649299D01*
X197373142Y-159649914D01*
X197373433Y-159650458D01*
X197370654Y-159684712D01*
X197368203Y-159718991D01*
X197367833Y-159719484D01*
X197367784Y-159720099D01*
X197346933Y-159747404D01*
X197326332Y-159774925D01*
X197325753Y-159775140D01*
X197325380Y-159775630D01*
X197293084Y-159787325D01*
X197260868Y-159799342D01*
X197259798Y-159799380D01*
X197259686Y-159799421D01*
X197259546Y-159799389D01*
X197252021Y-159799658D01*
X181386730Y-159799658D01*
X181297585Y-159823544D01*
X181217661Y-159869689D01*
X181217658Y-159869691D01*
X179489258Y-161598091D01*
X179489254Y-161598097D01*
X179456690Y-161654500D01*
X179443113Y-161678015D01*
X179443112Y-161678018D01*
X179419226Y-161767162D01*
X179419226Y-164633730D01*
X179399541Y-164700769D01*
X179382907Y-164721411D01*
X177219531Y-166884786D01*
X177219527Y-166884791D01*
X177193884Y-166929208D01*
X177193884Y-166929209D01*
X177173386Y-166964710D01*
X177149500Y-167053856D01*
X177149500Y-180796144D01*
X177164065Y-180850501D01*
X177164065Y-180850502D01*
X177173384Y-180885284D01*
X177173385Y-180885286D01*
X177219527Y-180965208D01*
X177219531Y-180965213D01*
X179413181Y-183158863D01*
X179446666Y-183220186D01*
X179449500Y-183246544D01*
X179449500Y-186475564D01*
X179429815Y-186542603D01*
X179377011Y-186588358D01*
X179307853Y-186598302D01*
X179244297Y-186569277D01*
X179225182Y-186548449D01*
X179182660Y-186489923D01*
X179182656Y-186489918D01*
X179010081Y-186317343D01*
X179010076Y-186317339D01*
X178812642Y-186173896D01*
X178812641Y-186173895D01*
X178812639Y-186173894D01*
X178595185Y-186063096D01*
X178363076Y-185987679D01*
X178363074Y-185987678D01*
X178363072Y-185987678D01*
X178192342Y-185960637D01*
X178122027Y-185949500D01*
X177877973Y-185949500D01*
X177822093Y-185958350D01*
X177636927Y-185987678D01*
X177404812Y-186063097D01*
X177187357Y-186173896D01*
X176989923Y-186317339D01*
X176989918Y-186317343D01*
X176817343Y-186489918D01*
X176817339Y-186489923D01*
X176673896Y-186687357D01*
X176563097Y-186904812D01*
X176487678Y-187136927D01*
X176449500Y-187377973D01*
X176449500Y-187622026D01*
X176468549Y-187742299D01*
X176487679Y-187863076D01*
X176563096Y-188095185D01*
X176667454Y-188300000D01*
X176673896Y-188312642D01*
X176817339Y-188510076D01*
X176817343Y-188510081D01*
X176989918Y-188682656D01*
X176989923Y-188682660D01*
X177132761Y-188786437D01*
X177187361Y-188826106D01*
X177404815Y-188936904D01*
X177636924Y-189012321D01*
X177877973Y-189050500D01*
X177877974Y-189050500D01*
X178122026Y-189050500D01*
X178122027Y-189050500D01*
X178363076Y-189012321D01*
X178595185Y-188936904D01*
X178812639Y-188826106D01*
X179010083Y-188682655D01*
X179182655Y-188510083D01*
X179225182Y-188451548D01*
X179280511Y-188408884D01*
X179350124Y-188402905D01*
X179411920Y-188435510D01*
X179446277Y-188496348D01*
X179449500Y-188524435D01*
X179449500Y-188688888D01*
X179429815Y-188755927D01*
X179413181Y-188776569D01*
X177541137Y-190648613D01*
X177479814Y-190682098D01*
X177453456Y-190684932D01*
X177434108Y-190684932D01*
X177306812Y-190719040D01*
X177192686Y-190784932D01*
X177192683Y-190784934D01*
X177099502Y-190878115D01*
X177099500Y-190878118D01*
X177033608Y-190992244D01*
X177007697Y-191088948D01*
X176999500Y-191119540D01*
X176999500Y-191251324D01*
X177009829Y-191289871D01*
X177033608Y-191378619D01*
X177048586Y-191404561D01*
X177099500Y-191492746D01*
X177192686Y-191585932D01*
X177306814Y-191651824D01*
X177434108Y-191685932D01*
X177434110Y-191685932D01*
X177565890Y-191685932D01*
X177565892Y-191685932D01*
X177693186Y-191651824D01*
X177807314Y-191585932D01*
X177900500Y-191492746D01*
X177966392Y-191378618D01*
X178000500Y-191251324D01*
X178000500Y-191231976D01*
X178020185Y-191164937D01*
X178036819Y-191144295D01*
X178237535Y-190943579D01*
X179738819Y-189442295D01*
X179800142Y-189408810D01*
X179869834Y-189413794D01*
X179925767Y-189455666D01*
X179950184Y-189521130D01*
X179950500Y-189529976D01*
X179950500Y-189752456D01*
X179930815Y-189819495D01*
X179914181Y-189840137D01*
X179182149Y-190572169D01*
X179120826Y-190605654D01*
X179094468Y-190608488D01*
X179066976Y-190608488D01*
X178938444Y-190642928D01*
X178926962Y-190646005D01*
X178829645Y-190702191D01*
X178829641Y-190702194D01*
X178801436Y-190718479D01*
X178698942Y-190820973D01*
X178682657Y-190849178D01*
X178682654Y-190849182D01*
X178626468Y-190946499D01*
X178626467Y-190946503D01*
X178588951Y-191086513D01*
X178588951Y-191231463D01*
X178611651Y-191316179D01*
X178626468Y-191371476D01*
X178698939Y-191496999D01*
X178698941Y-191497001D01*
X178698942Y-191497003D01*
X178801436Y-191599497D01*
X178801437Y-191599498D01*
X178801439Y-191599499D01*
X178926962Y-191671970D01*
X178926963Y-191671970D01*
X178926966Y-191671972D01*
X179066976Y-191709488D01*
X179066979Y-191709488D01*
X179211923Y-191709488D01*
X179211926Y-191709488D01*
X179351936Y-191671972D01*
X179477466Y-191599497D01*
X179579960Y-191497003D01*
X179652435Y-191371473D01*
X179689951Y-191231463D01*
X179689951Y-191107091D01*
X179709636Y-191040052D01*
X179726270Y-191019410D01*
X180063582Y-190682098D01*
X180239820Y-190505860D01*
X180259255Y-190495248D01*
X180275989Y-190480748D01*
X180289320Y-190478831D01*
X180301142Y-190472376D01*
X180323228Y-190473955D01*
X180345147Y-190470804D01*
X180357398Y-190476399D01*
X180370834Y-190477360D01*
X180388560Y-190490630D01*
X180408703Y-190499829D01*
X180415985Y-190511160D01*
X180426767Y-190519232D01*
X180434504Y-190539977D01*
X180446477Y-190558607D01*
X180449628Y-190580525D01*
X180451184Y-190584696D01*
X180451500Y-190593542D01*
X180451500Y-190654859D01*
X180431815Y-190721898D01*
X180415181Y-190742540D01*
X180334317Y-190823403D01*
X180334312Y-190823409D01*
X180261841Y-190948932D01*
X180261840Y-190948936D01*
X180224324Y-191088946D01*
X180224324Y-191233896D01*
X180246372Y-191316179D01*
X180261841Y-191373909D01*
X180334312Y-191499432D01*
X180334314Y-191499434D01*
X180334315Y-191499436D01*
X180436809Y-191601930D01*
X180436810Y-191601931D01*
X180436812Y-191601932D01*
X180562335Y-191674403D01*
X180562336Y-191674403D01*
X180562339Y-191674405D01*
X180702349Y-191711921D01*
X180702352Y-191711921D01*
X180847296Y-191711921D01*
X180847299Y-191711921D01*
X180987309Y-191674405D01*
X181112839Y-191601930D01*
X181206151Y-191508617D01*
X181267470Y-191475135D01*
X181337162Y-191480119D01*
X181393096Y-191521990D01*
X181399036Y-191530996D01*
X181400133Y-191532426D01*
X181400135Y-191532429D01*
X181502629Y-191634923D01*
X181502630Y-191634924D01*
X181502632Y-191634925D01*
X181628155Y-191707396D01*
X181628156Y-191707396D01*
X181628159Y-191707398D01*
X181768169Y-191744914D01*
X181768172Y-191744914D01*
X181913116Y-191744914D01*
X181913119Y-191744914D01*
X182053129Y-191707398D01*
X182178659Y-191634923D01*
X182281153Y-191532429D01*
X182353628Y-191406899D01*
X182363042Y-191371764D01*
X182366200Y-191366583D01*
X182366634Y-191360526D01*
X182384175Y-191337093D01*
X182399406Y-191312107D01*
X182404866Y-191309454D01*
X182408506Y-191304593D01*
X182435927Y-191294365D01*
X182462252Y-191281577D01*
X182468281Y-191282297D01*
X182473970Y-191280176D01*
X182502564Y-191286396D01*
X182531628Y-191289871D01*
X182537828Y-191294067D01*
X182542243Y-191295028D01*
X182570497Y-191316179D01*
X182658879Y-191404561D01*
X182692364Y-191465884D01*
X182695198Y-191492242D01*
X182695198Y-194341842D01*
X182710498Y-194398941D01*
X182710497Y-194398941D01*
X182710498Y-194398943D01*
X182719082Y-194430982D01*
X182719083Y-194430984D01*
X182765225Y-194510906D01*
X182765227Y-194510909D01*
X182765228Y-194510910D01*
X186059788Y-197805470D01*
X186059789Y-197805471D01*
X186059791Y-197805472D01*
X186094479Y-197825499D01*
X186139712Y-197851614D01*
X186228856Y-197875500D01*
X186228857Y-197875500D01*
X186321144Y-197875500D01*
X197660275Y-197875500D01*
X197727314Y-197895185D01*
X197773069Y-197947989D01*
X197774836Y-197952048D01*
X197804056Y-198022594D01*
X197919024Y-198194657D01*
X198065342Y-198340975D01*
X198065345Y-198340977D01*
X198237402Y-198455941D01*
X198428580Y-198535130D01*
X198573052Y-198563867D01*
X198631530Y-198575499D01*
X198631534Y-198575500D01*
X198631535Y-198575500D01*
X198838466Y-198575500D01*
X198838467Y-198575499D01*
X199041420Y-198535130D01*
X199232598Y-198455941D01*
X199404655Y-198340977D01*
X199550977Y-198194655D01*
X199665941Y-198022598D01*
X199745130Y-197831420D01*
X199785500Y-197628465D01*
X199785500Y-197421535D01*
X199745130Y-197218580D01*
X199665941Y-197027402D01*
X199550977Y-196855345D01*
X199550975Y-196855342D01*
X199507814Y-196812181D01*
X199474329Y-196750858D01*
X199479313Y-196681166D01*
X199521185Y-196625233D01*
X199586649Y-196600816D01*
X199595495Y-196600500D01*
X200056140Y-196600500D01*
X200056144Y-196600500D01*
X200068407Y-196597214D01*
X200138252Y-196598875D01*
X200196116Y-196638035D01*
X200223623Y-196702263D01*
X200224500Y-196716988D01*
X200224500Y-198394752D01*
X200236131Y-198453229D01*
X200236132Y-198453230D01*
X200280447Y-198519552D01*
X200346769Y-198563867D01*
X200346770Y-198563868D01*
X200405247Y-198575499D01*
X200405250Y-198575500D01*
X200405252Y-198575500D01*
X202144750Y-198575500D01*
X202144751Y-198575499D01*
X202159568Y-198572552D01*
X202203229Y-198563868D01*
X202203229Y-198563867D01*
X202203231Y-198563867D01*
X202269552Y-198519552D01*
X202313867Y-198453231D01*
X202313867Y-198453229D01*
X202313868Y-198453229D01*
X202325499Y-198394752D01*
X202325500Y-198394750D01*
X202325500Y-196816927D01*
X207070499Y-196816927D01*
X207096611Y-196948197D01*
X207096614Y-196948207D01*
X207147831Y-197071857D01*
X207147838Y-197071870D01*
X207222197Y-197183155D01*
X207222200Y-197183159D01*
X207316840Y-197277799D01*
X207316844Y-197277802D01*
X207428129Y-197352161D01*
X207428142Y-197352168D01*
X207551792Y-197403385D01*
X207551797Y-197403387D01*
X207551801Y-197403387D01*
X207551802Y-197403388D01*
X207683072Y-197429500D01*
X207683075Y-197429500D01*
X207816927Y-197429500D01*
X207905244Y-197411932D01*
X207948203Y-197403387D01*
X208071864Y-197352165D01*
X208183156Y-197277802D01*
X208277802Y-197183156D01*
X208352165Y-197071864D01*
X208403387Y-196948203D01*
X208421858Y-196855345D01*
X208429500Y-196816927D01*
X210070499Y-196816927D01*
X210096611Y-196948197D01*
X210096614Y-196948207D01*
X210147831Y-197071857D01*
X210147838Y-197071870D01*
X210222197Y-197183155D01*
X210222200Y-197183159D01*
X210316840Y-197277799D01*
X210316844Y-197277802D01*
X210428129Y-197352161D01*
X210428142Y-197352168D01*
X210551792Y-197403385D01*
X210551797Y-197403387D01*
X210551801Y-197403387D01*
X210551802Y-197403388D01*
X210683072Y-197429500D01*
X210683075Y-197429500D01*
X210816927Y-197429500D01*
X210905244Y-197411932D01*
X210948203Y-197403387D01*
X211071864Y-197352165D01*
X211183156Y-197277802D01*
X211277802Y-197183156D01*
X211352165Y-197071864D01*
X211403387Y-196948203D01*
X211406821Y-196930937D01*
X211409818Y-196915875D01*
X211409818Y-196915874D01*
X211429500Y-196816927D01*
X211429500Y-196683072D01*
X211403388Y-196551802D01*
X211403387Y-196551801D01*
X211403387Y-196551797D01*
X211394544Y-196530447D01*
X211352168Y-196428142D01*
X211352161Y-196428129D01*
X211277802Y-196316844D01*
X211277799Y-196316840D01*
X211183159Y-196222200D01*
X211183155Y-196222197D01*
X211071870Y-196147838D01*
X211071857Y-196147831D01*
X210948207Y-196096614D01*
X210948197Y-196096611D01*
X210816927Y-196070500D01*
X210816925Y-196070500D01*
X210683075Y-196070500D01*
X210683073Y-196070500D01*
X210551802Y-196096611D01*
X210551792Y-196096614D01*
X210428142Y-196147831D01*
X210428129Y-196147838D01*
X210316844Y-196222197D01*
X210316840Y-196222200D01*
X210222200Y-196316840D01*
X210222197Y-196316844D01*
X210147838Y-196428129D01*
X210147831Y-196428142D01*
X210096614Y-196551792D01*
X210096611Y-196551802D01*
X210070500Y-196683072D01*
X210070500Y-196683075D01*
X210070500Y-196816925D01*
X210070500Y-196816927D01*
X210070499Y-196816927D01*
X208429500Y-196816927D01*
X208429500Y-196683072D01*
X208403388Y-196551802D01*
X208403387Y-196551801D01*
X208403387Y-196551797D01*
X208394544Y-196530447D01*
X208352168Y-196428142D01*
X208352161Y-196428129D01*
X208277802Y-196316844D01*
X208277799Y-196316840D01*
X208183159Y-196222200D01*
X208183155Y-196222197D01*
X208071870Y-196147838D01*
X208071857Y-196147831D01*
X207948207Y-196096614D01*
X207948197Y-196096611D01*
X207816927Y-196070500D01*
X207816925Y-196070500D01*
X207683075Y-196070500D01*
X207683073Y-196070500D01*
X207551802Y-196096611D01*
X207551792Y-196096614D01*
X207428142Y-196147831D01*
X207428129Y-196147838D01*
X207316844Y-196222197D01*
X207316840Y-196222200D01*
X207222200Y-196316840D01*
X207222197Y-196316844D01*
X207147838Y-196428129D01*
X207147831Y-196428142D01*
X207096614Y-196551792D01*
X207096611Y-196551802D01*
X207070500Y-196683072D01*
X207070500Y-196683075D01*
X207070500Y-196816925D01*
X207070500Y-196816927D01*
X207070499Y-196816927D01*
X202325500Y-196816927D01*
X202325500Y-196655249D01*
X202325499Y-196655247D01*
X202313868Y-196596770D01*
X202313867Y-196596769D01*
X202269552Y-196530447D01*
X202203230Y-196486132D01*
X202203229Y-196486131D01*
X202144752Y-196474500D01*
X202144748Y-196474500D01*
X200580544Y-196474500D01*
X200513505Y-196454815D01*
X200467750Y-196402011D01*
X200457806Y-196332853D01*
X200486831Y-196269297D01*
X200492854Y-196262826D01*
X200762897Y-195992783D01*
X200824216Y-195959301D01*
X200893908Y-195964285D01*
X200898028Y-195965906D01*
X200968580Y-195995130D01*
X201171530Y-196035499D01*
X201171534Y-196035500D01*
X201171535Y-196035500D01*
X201378466Y-196035500D01*
X201378467Y-196035499D01*
X201581420Y-195995130D01*
X201772598Y-195915941D01*
X201944655Y-195800977D01*
X202090977Y-195654655D01*
X202205941Y-195482598D01*
X202285130Y-195291420D01*
X202325500Y-195088465D01*
X202325500Y-194881535D01*
X202285130Y-194678580D01*
X202205941Y-194487402D01*
X202090977Y-194315345D01*
X202090975Y-194315342D01*
X201944657Y-194169024D01*
X201788730Y-194064838D01*
X201772598Y-194054059D01*
X201719524Y-194032075D01*
X201581420Y-193974870D01*
X201581412Y-193974868D01*
X201378469Y-193934500D01*
X201378465Y-193934500D01*
X201171535Y-193934500D01*
X201171530Y-193934500D01*
X200968587Y-193974868D01*
X200968579Y-193974870D01*
X200777403Y-194054058D01*
X200605342Y-194169024D01*
X200459024Y-194315342D01*
X200344058Y-194487403D01*
X200264870Y-194678579D01*
X200264868Y-194678587D01*
X200224500Y-194881530D01*
X200224500Y-195088469D01*
X200264868Y-195291412D01*
X200264870Y-195291420D01*
X200294093Y-195361970D01*
X200301562Y-195431440D01*
X200270287Y-195493919D01*
X200267213Y-195497104D01*
X199901137Y-195863181D01*
X199874209Y-195877884D01*
X199848391Y-195894477D01*
X199842190Y-195895368D01*
X199839814Y-195896666D01*
X199813456Y-195899500D01*
X199735419Y-195899500D01*
X199668380Y-195879815D01*
X199622625Y-195827011D01*
X199612681Y-195757853D01*
X199635101Y-195702615D01*
X199718565Y-195587734D01*
X199800747Y-195426447D01*
X199800748Y-195426444D01*
X199856682Y-195254293D01*
X199885000Y-195075506D01*
X199885000Y-194894493D01*
X199856682Y-194715706D01*
X199800748Y-194543555D01*
X199800747Y-194543552D01*
X199718567Y-194382268D01*
X199647574Y-194284556D01*
X199647574Y-194284555D01*
X199178669Y-194753459D01*
X199135099Y-194677993D01*
X199042007Y-194584901D01*
X198966538Y-194541328D01*
X199435443Y-194072424D01*
X199337731Y-194001432D01*
X199176447Y-193919252D01*
X199176444Y-193919251D01*
X199133397Y-193905265D01*
X199075722Y-193865828D01*
X199048523Y-193801469D01*
X199060437Y-193732623D01*
X199107681Y-193681147D01*
X199171715Y-193663334D01*
X202621315Y-193663334D01*
X202688354Y-193683019D01*
X202708996Y-193699653D01*
X203074181Y-194064838D01*
X203107666Y-194126161D01*
X203110500Y-194152519D01*
X203110500Y-194285746D01*
X203111657Y-194293053D01*
X203137326Y-194455122D01*
X203137327Y-194455125D01*
X203190321Y-194618223D01*
X203263385Y-194761620D01*
X203268178Y-194771025D01*
X203368970Y-194909755D01*
X203368974Y-194909760D01*
X203490239Y-195031025D01*
X203490244Y-195031029D01*
X203611251Y-195118945D01*
X203628978Y-195131824D01*
X203781777Y-195209679D01*
X203944875Y-195262673D01*
X204114254Y-195289500D01*
X204114255Y-195289500D01*
X207685745Y-195289500D01*
X207685746Y-195289500D01*
X207770435Y-195276086D01*
X207770436Y-195276086D01*
X207798665Y-195271615D01*
X207855126Y-195262673D01*
X208018223Y-195209679D01*
X208171023Y-195131824D01*
X208240392Y-195081424D01*
X208309762Y-195031024D01*
X208431024Y-194909762D01*
X208431025Y-194909760D01*
X208438085Y-194902700D01*
X208438090Y-194902693D01*
X209014967Y-194325819D01*
X209076290Y-194292334D01*
X209102648Y-194289500D01*
X218303916Y-194289500D01*
X218333386Y-194293053D01*
X218337859Y-194294147D01*
X218394875Y-194312673D01*
X218447906Y-194321072D01*
X218452891Y-194322292D01*
X218457777Y-194325125D01*
X218479710Y-194332252D01*
X218539168Y-194362547D01*
X218651183Y-194398943D01*
X218718881Y-194420940D01*
X218905514Y-194450500D01*
X218905519Y-194450500D01*
X219094486Y-194450500D01*
X219281118Y-194420940D01*
X219348817Y-194398943D01*
X219460832Y-194362547D01*
X219629199Y-194276760D01*
X219782073Y-194165690D01*
X219915690Y-194032073D01*
X220026760Y-193879199D01*
X220112547Y-193710832D01*
X220170940Y-193531118D01*
X220177356Y-193490609D01*
X220200500Y-193344486D01*
X220200500Y-193155513D01*
X220170940Y-192968881D01*
X220112545Y-192789163D01*
X220026759Y-192620800D01*
X219915690Y-192467927D01*
X219782073Y-192334310D01*
X219629199Y-192223240D01*
X219564592Y-192190321D01*
X219460836Y-192137454D01*
X219281118Y-192079059D01*
X219094486Y-192049500D01*
X219094481Y-192049500D01*
X218905519Y-192049500D01*
X218905514Y-192049500D01*
X218718881Y-192079059D01*
X218650961Y-192101128D01*
X218640797Y-192104431D01*
X218602480Y-192110500D01*
X209102648Y-192110500D01*
X209035609Y-192090815D01*
X209014967Y-192074181D01*
X208125819Y-191185033D01*
X208092334Y-191123710D01*
X208089500Y-191097352D01*
X208089500Y-189514254D01*
X208087242Y-189499999D01*
X208073524Y-189413389D01*
X213899500Y-189413389D01*
X213899500Y-189586610D01*
X213919013Y-189709815D01*
X213926598Y-189757701D01*
X213980127Y-189922445D01*
X214058768Y-190076788D01*
X214160586Y-190216928D01*
X214283072Y-190339414D01*
X214423212Y-190441232D01*
X214577555Y-190519873D01*
X214742299Y-190573402D01*
X214913389Y-190600500D01*
X214913390Y-190600500D01*
X215086610Y-190600500D01*
X215086611Y-190600500D01*
X215257701Y-190573402D01*
X215422445Y-190519873D01*
X215576788Y-190441232D01*
X215716928Y-190339414D01*
X215839414Y-190216928D01*
X215941232Y-190076788D01*
X216019873Y-189922445D01*
X216073402Y-189757701D01*
X216100500Y-189586611D01*
X216100500Y-189413389D01*
X216073402Y-189242299D01*
X216019873Y-189077555D01*
X215941232Y-188923212D01*
X215839414Y-188783072D01*
X215716928Y-188660586D01*
X215576788Y-188558768D01*
X215422445Y-188480127D01*
X215257701Y-188426598D01*
X215257699Y-188426597D01*
X215257698Y-188426597D01*
X215108109Y-188402905D01*
X215086611Y-188399500D01*
X214913389Y-188399500D01*
X214891891Y-188402905D01*
X214742302Y-188426597D01*
X214577552Y-188480128D01*
X214423211Y-188558768D01*
X214343256Y-188616859D01*
X214283072Y-188660586D01*
X214283070Y-188660588D01*
X214283069Y-188660588D01*
X214160588Y-188783069D01*
X214160588Y-188783070D01*
X214160586Y-188783072D01*
X214129322Y-188826103D01*
X214058768Y-188923211D01*
X213980128Y-189077552D01*
X213926597Y-189242302D01*
X213899500Y-189413389D01*
X208073524Y-189413389D01*
X208062673Y-189344875D01*
X208009679Y-189181777D01*
X207931824Y-189028978D01*
X207918945Y-189011251D01*
X207831029Y-188890244D01*
X207831025Y-188890239D01*
X207709761Y-188768975D01*
X207027396Y-188086610D01*
X206287646Y-187346861D01*
X206275010Y-187332066D01*
X206239416Y-187283075D01*
X206239411Y-187283069D01*
X206116930Y-187160588D01*
X206116928Y-187160586D01*
X205976788Y-187058768D01*
X205822445Y-186980127D01*
X205657701Y-186926598D01*
X205657699Y-186926597D01*
X205657698Y-186926597D01*
X205526271Y-186905781D01*
X205486611Y-186899500D01*
X205313389Y-186899500D01*
X205273728Y-186905781D01*
X205142302Y-186926597D01*
X204977552Y-186980128D01*
X204823211Y-187058768D01*
X204743256Y-187116859D01*
X204683072Y-187160586D01*
X204683070Y-187160588D01*
X204683069Y-187160588D01*
X204560588Y-187283069D01*
X204560588Y-187283070D01*
X204560586Y-187283072D01*
X204560584Y-187283075D01*
X204458768Y-187423211D01*
X204380128Y-187577552D01*
X204326597Y-187742302D01*
X204307469Y-187863072D01*
X204299500Y-187913389D01*
X204299500Y-188086611D01*
X204326598Y-188257701D01*
X204357182Y-188351829D01*
X204380128Y-188422447D01*
X204406225Y-188473666D01*
X204458768Y-188576788D01*
X204560586Y-188716928D01*
X204683072Y-188839414D01*
X204726637Y-188871066D01*
X204732066Y-188875010D01*
X204746862Y-188887647D01*
X205874181Y-190014966D01*
X205907666Y-190076289D01*
X205910500Y-190102647D01*
X205910500Y-191685746D01*
X205913929Y-191707398D01*
X205937327Y-191855126D01*
X205976114Y-191974500D01*
X205990322Y-192018225D01*
X206068176Y-192171023D01*
X206082197Y-192190321D01*
X206134517Y-192262334D01*
X206168976Y-192309762D01*
X206268322Y-192409108D01*
X206294568Y-192435354D01*
X206294579Y-192435364D01*
X206758034Y-192898819D01*
X206791519Y-192960142D01*
X206786535Y-193029834D01*
X206744663Y-193085767D01*
X206679199Y-193110184D01*
X206670353Y-193110500D01*
X204152519Y-193110500D01*
X204085480Y-193090815D01*
X204064838Y-193074181D01*
X203493995Y-192503337D01*
X203493989Y-192503332D01*
X203409377Y-192418720D01*
X203314816Y-192355537D01*
X203312560Y-192354029D01*
X203294645Y-192342059D01*
X203294642Y-192342057D01*
X203294641Y-192342057D01*
X203167166Y-192289255D01*
X203167156Y-192289252D01*
X203031830Y-192262334D01*
X203031828Y-192262334D01*
X203031827Y-192262334D01*
X202757661Y-192262334D01*
X202690622Y-192242649D01*
X202644867Y-192189845D01*
X202634923Y-192120687D01*
X202663948Y-192057131D01*
X202669980Y-192050653D01*
X202800974Y-191919658D01*
X202800975Y-191919657D01*
X202800977Y-191919655D01*
X202915941Y-191747598D01*
X202995130Y-191556420D01*
X203035500Y-191353465D01*
X203035500Y-191146535D01*
X202995130Y-190943580D01*
X202915941Y-190752402D01*
X202800977Y-190580345D01*
X202800975Y-190580342D01*
X202654657Y-190434024D01*
X202574173Y-190380247D01*
X203474500Y-190380247D01*
X203474500Y-192119752D01*
X203485450Y-192174805D01*
X203485451Y-192174806D01*
X203486133Y-192178231D01*
X203530448Y-192244552D01*
X203596769Y-192288867D01*
X203645771Y-192298614D01*
X203655250Y-192300500D01*
X203655252Y-192300500D01*
X205394750Y-192300500D01*
X205394751Y-192300499D01*
X205417708Y-192295933D01*
X205453229Y-192288868D01*
X205453229Y-192288867D01*
X205453231Y-192288867D01*
X205519552Y-192244552D01*
X205563867Y-192178231D01*
X205563867Y-192178229D01*
X205563868Y-192178229D01*
X205575499Y-192119752D01*
X205575500Y-192119750D01*
X205575500Y-190380249D01*
X205575499Y-190380247D01*
X205563868Y-190321770D01*
X205563867Y-190321769D01*
X205519552Y-190255447D01*
X205453230Y-190211132D01*
X205453229Y-190211131D01*
X205394752Y-190199500D01*
X205394748Y-190199500D01*
X203655252Y-190199500D01*
X203655247Y-190199500D01*
X203596770Y-190211131D01*
X203596769Y-190211132D01*
X203530447Y-190255447D01*
X203486132Y-190321769D01*
X203486131Y-190321770D01*
X203474500Y-190380247D01*
X202574173Y-190380247D01*
X202568626Y-190376541D01*
X202482598Y-190319059D01*
X202291420Y-190239870D01*
X202291412Y-190239868D01*
X202088469Y-190199500D01*
X202088465Y-190199500D01*
X201881535Y-190199500D01*
X201881530Y-190199500D01*
X201678587Y-190239868D01*
X201678579Y-190239870D01*
X201487403Y-190319058D01*
X201315342Y-190434024D01*
X201169024Y-190580342D01*
X201054058Y-190752403D01*
X200974870Y-190943579D01*
X200974868Y-190943587D01*
X200934500Y-191146530D01*
X200934500Y-191353469D01*
X200974868Y-191556412D01*
X200974870Y-191556420D01*
X201054058Y-191747596D01*
X201169024Y-191919657D01*
X201300020Y-192050653D01*
X201333505Y-192111976D01*
X201328521Y-192181668D01*
X201286649Y-192237601D01*
X201221185Y-192262018D01*
X201212339Y-192262334D01*
X198787661Y-192262334D01*
X198720622Y-192242649D01*
X198674867Y-192189845D01*
X198664923Y-192120687D01*
X198693948Y-192057131D01*
X198699980Y-192050653D01*
X198830974Y-191919658D01*
X198830975Y-191919657D01*
X198830977Y-191919655D01*
X198945941Y-191747598D01*
X199025130Y-191556420D01*
X199065500Y-191353465D01*
X199065500Y-191146535D01*
X199025130Y-190943580D01*
X198945941Y-190752402D01*
X198830977Y-190580345D01*
X198830975Y-190580342D01*
X198684657Y-190434024D01*
X198598626Y-190376541D01*
X198512598Y-190319059D01*
X198321420Y-190239870D01*
X198321412Y-190239868D01*
X198118469Y-190199500D01*
X198118465Y-190199500D01*
X197911535Y-190199500D01*
X197911530Y-190199500D01*
X197708587Y-190239868D01*
X197708579Y-190239870D01*
X197517403Y-190319058D01*
X197345342Y-190434024D01*
X197199024Y-190580342D01*
X197084058Y-190752403D01*
X197004870Y-190943579D01*
X197004868Y-190943587D01*
X196964500Y-191146530D01*
X196964500Y-191353469D01*
X197004868Y-191556412D01*
X197004870Y-191556420D01*
X197084058Y-191747596D01*
X197199024Y-191919657D01*
X197330020Y-192050653D01*
X197363505Y-192111976D01*
X197358521Y-192181668D01*
X197316649Y-192237601D01*
X197251185Y-192262018D01*
X197242339Y-192262334D01*
X196968170Y-192262334D01*
X196832843Y-192289252D01*
X196832833Y-192289255D01*
X196705356Y-192342057D01*
X196685182Y-192355537D01*
X196685175Y-192355542D01*
X196590623Y-192418720D01*
X196506019Y-192503323D01*
X196506003Y-192503337D01*
X195605412Y-193403929D01*
X195565184Y-193430809D01*
X195420823Y-193490604D01*
X195420814Y-193490609D01*
X195289711Y-193578210D01*
X195289707Y-193578213D01*
X195178213Y-193689707D01*
X195178210Y-193689711D01*
X195090609Y-193820814D01*
X195090602Y-193820827D01*
X195030264Y-193966498D01*
X195030261Y-193966510D01*
X194999500Y-194121153D01*
X194999500Y-194278846D01*
X195030261Y-194433489D01*
X195030264Y-194433501D01*
X195090602Y-194579172D01*
X195090609Y-194579185D01*
X195178210Y-194710288D01*
X195178213Y-194710292D01*
X195289707Y-194821786D01*
X195289711Y-194821789D01*
X195420814Y-194909390D01*
X195420827Y-194909397D01*
X195566498Y-194969735D01*
X195566503Y-194969737D01*
X195721153Y-195000499D01*
X195721156Y-195000500D01*
X195721158Y-195000500D01*
X195878844Y-195000500D01*
X195878845Y-195000499D01*
X196033497Y-194969737D01*
X196178291Y-194909762D01*
X196179172Y-194909397D01*
X196179172Y-194909396D01*
X196179179Y-194909394D01*
X196310289Y-194821789D01*
X196421789Y-194710289D01*
X196509394Y-194579179D01*
X196509395Y-194579176D01*
X196509397Y-194579173D01*
X196569192Y-194434812D01*
X196596069Y-194394586D01*
X197291004Y-193699653D01*
X197352327Y-193666168D01*
X197378685Y-193663334D01*
X198298285Y-193663334D01*
X198365324Y-193683019D01*
X198411079Y-193735823D01*
X198421023Y-193804981D01*
X198391998Y-193868537D01*
X198336603Y-193905265D01*
X198293555Y-193919251D01*
X198293552Y-193919252D01*
X198132265Y-194001434D01*
X198034556Y-194072423D01*
X198034556Y-194072425D01*
X198503460Y-194541329D01*
X198427993Y-194584901D01*
X198334901Y-194677993D01*
X198291329Y-194753460D01*
X197822425Y-194284556D01*
X197822423Y-194284556D01*
X197751434Y-194382265D01*
X197669252Y-194543552D01*
X197669251Y-194543555D01*
X197613317Y-194715706D01*
X197585000Y-194894493D01*
X197585000Y-195075506D01*
X197613317Y-195254293D01*
X197669251Y-195426444D01*
X197669252Y-195426447D01*
X197751434Y-195587734D01*
X197834899Y-195702615D01*
X197858379Y-195768421D01*
X197842553Y-195836475D01*
X197792447Y-195885170D01*
X197734581Y-195899500D01*
X197703856Y-195899500D01*
X197614712Y-195923386D01*
X197614709Y-195923387D01*
X197534791Y-195969527D01*
X197534786Y-195969531D01*
X196870397Y-196633921D01*
X196809074Y-196667406D01*
X196782716Y-196670240D01*
X186717284Y-196670240D01*
X186650245Y-196650555D01*
X186629603Y-196633921D01*
X183991079Y-193995397D01*
X183957594Y-193934074D01*
X183954760Y-193907716D01*
X183954760Y-191249804D01*
X183974445Y-191182765D01*
X184027249Y-191137010D01*
X184096407Y-191127066D01*
X184159963Y-191156091D01*
X184166441Y-191162123D01*
X185438181Y-192433863D01*
X185471666Y-192495186D01*
X185474500Y-192521544D01*
X185474500Y-192540891D01*
X185508608Y-192668187D01*
X185541554Y-192725250D01*
X185574500Y-192782314D01*
X185667686Y-192875500D01*
X185781814Y-192941392D01*
X185909108Y-192975500D01*
X185909110Y-192975500D01*
X186040890Y-192975500D01*
X186040892Y-192975500D01*
X186168186Y-192941392D01*
X186282314Y-192875500D01*
X186375500Y-192782314D01*
X186441392Y-192668186D01*
X186475500Y-192540892D01*
X186475500Y-192409108D01*
X186441392Y-192281814D01*
X186375500Y-192167686D01*
X186282314Y-192074500D01*
X186225250Y-192041554D01*
X186168187Y-192008608D01*
X186104539Y-191991554D01*
X186040892Y-191974500D01*
X186040891Y-191974500D01*
X186021544Y-191974500D01*
X185954505Y-191954815D01*
X185933863Y-191938181D01*
X184907363Y-190911681D01*
X184873878Y-190850358D01*
X184878862Y-190780666D01*
X184920734Y-190724733D01*
X184986198Y-190700316D01*
X184995044Y-190700000D01*
X185094447Y-190700000D01*
X185281002Y-190670451D01*
X185460637Y-190612085D01*
X185628940Y-190526329D01*
X185736239Y-190448373D01*
X185736240Y-190448371D01*
X185668116Y-190380247D01*
X194424500Y-190380247D01*
X194424500Y-192119752D01*
X194436131Y-192178229D01*
X194436132Y-192178230D01*
X194480447Y-192244552D01*
X194546769Y-192288867D01*
X194546770Y-192288868D01*
X194605247Y-192300499D01*
X194605250Y-192300500D01*
X194605252Y-192300500D01*
X196344749Y-192300500D01*
X196348677Y-192299718D01*
X196403231Y-192288867D01*
X196469552Y-192244552D01*
X196513867Y-192178231D01*
X196525500Y-192119748D01*
X196525500Y-190380252D01*
X196525500Y-190380249D01*
X196525499Y-190380247D01*
X196513868Y-190321770D01*
X196513867Y-190321769D01*
X196469552Y-190255447D01*
X196403230Y-190211132D01*
X196403229Y-190211131D01*
X196344752Y-190199500D01*
X196344748Y-190199500D01*
X194605252Y-190199500D01*
X194605247Y-190199500D01*
X194546770Y-190211131D01*
X194546769Y-190211132D01*
X194480447Y-190255447D01*
X194436132Y-190321769D01*
X194436131Y-190321770D01*
X194424500Y-190380247D01*
X185668116Y-190380247D01*
X185413556Y-190125687D01*
X185478097Y-190082563D01*
X185582563Y-189978097D01*
X185625687Y-189913556D01*
X185948371Y-190236240D01*
X185948373Y-190236239D01*
X186026329Y-190128940D01*
X186112085Y-189960637D01*
X186170451Y-189781002D01*
X186200000Y-189594447D01*
X186200000Y-189405552D01*
X186170451Y-189218997D01*
X186112085Y-189039362D01*
X186026333Y-188871066D01*
X185948371Y-188763759D01*
X185948370Y-188763759D01*
X185625686Y-189086442D01*
X185582563Y-189021903D01*
X185478097Y-188917437D01*
X185413555Y-188874311D01*
X185736239Y-188551627D01*
X185628933Y-188473666D01*
X185460637Y-188387914D01*
X185281002Y-188329548D01*
X185094447Y-188300000D01*
X184905553Y-188300000D01*
X184718997Y-188329548D01*
X184539362Y-188387914D01*
X184371064Y-188473667D01*
X184371062Y-188473668D01*
X184263759Y-188551626D01*
X184263759Y-188551627D01*
X184586444Y-188874312D01*
X184521903Y-188917437D01*
X184417437Y-189021903D01*
X184374312Y-189086444D01*
X184051627Y-188763759D01*
X183997123Y-188768049D01*
X183969766Y-188762302D01*
X183941925Y-188759794D01*
X183936040Y-188755217D01*
X183928746Y-188753685D01*
X183908838Y-188734060D01*
X183886773Y-188716898D01*
X183882682Y-188708274D01*
X183878989Y-188704634D01*
X183870433Y-188685615D01*
X183868856Y-188681138D01*
X183862963Y-188659143D01*
X183797071Y-188545015D01*
X183703885Y-188451829D01*
X183646821Y-188418883D01*
X183589758Y-188385937D01*
X183526110Y-188368883D01*
X183462463Y-188351829D01*
X183330679Y-188351829D01*
X183203383Y-188385937D01*
X183089257Y-188451829D01*
X183089254Y-188451831D01*
X182996073Y-188545012D01*
X182996071Y-188545015D01*
X182930179Y-188659141D01*
X182914704Y-188716898D01*
X182896071Y-188786437D01*
X182896071Y-188918221D01*
X182903500Y-188945945D01*
X182930179Y-189045516D01*
X182948677Y-189077555D01*
X182996071Y-189159643D01*
X182996073Y-189159645D01*
X183072800Y-189236372D01*
X183106285Y-189297695D01*
X183109119Y-189324053D01*
X183109119Y-189709815D01*
X183089434Y-189776854D01*
X183036630Y-189822609D01*
X182967472Y-189832553D01*
X182903916Y-189803528D01*
X182897438Y-189797496D01*
X182691819Y-189591877D01*
X182658334Y-189530554D01*
X182655500Y-189504196D01*
X182655500Y-185413389D01*
X183899500Y-185413389D01*
X183899500Y-185586611D01*
X183926598Y-185757701D01*
X183980127Y-185922445D01*
X184058768Y-186076788D01*
X184160586Y-186216928D01*
X184283072Y-186339414D01*
X184423212Y-186441232D01*
X184577555Y-186519873D01*
X184742299Y-186573402D01*
X184913389Y-186600500D01*
X184913390Y-186600500D01*
X185086610Y-186600500D01*
X185086611Y-186600500D01*
X185257701Y-186573402D01*
X185422445Y-186519873D01*
X185576788Y-186441232D01*
X185716928Y-186339414D01*
X185839414Y-186216928D01*
X185941232Y-186076788D01*
X185971081Y-186018204D01*
X186019053Y-185967410D01*
X186081565Y-185950500D01*
X193512035Y-185950500D01*
X193579074Y-185970185D01*
X193599716Y-185986819D01*
X194166661Y-186553764D01*
X194200146Y-186615087D01*
X194200599Y-186665627D01*
X194199500Y-186671151D01*
X194199500Y-186828846D01*
X194230261Y-186983489D01*
X194230264Y-186983501D01*
X194290602Y-187129172D01*
X194290609Y-187129185D01*
X194378210Y-187260288D01*
X194378213Y-187260292D01*
X194489707Y-187371786D01*
X194489711Y-187371789D01*
X194620814Y-187459390D01*
X194620827Y-187459397D01*
X194766498Y-187519735D01*
X194766503Y-187519737D01*
X194921153Y-187550499D01*
X194921156Y-187550500D01*
X194921158Y-187550500D01*
X195078844Y-187550500D01*
X195078845Y-187550499D01*
X195233497Y-187519737D01*
X195379179Y-187459394D01*
X195510289Y-187371789D01*
X195621789Y-187260289D01*
X195709394Y-187129179D01*
X195769737Y-186983497D01*
X195800500Y-186828842D01*
X195800500Y-186671158D01*
X195800500Y-186671155D01*
X195800499Y-186671153D01*
X195789347Y-186615087D01*
X195769737Y-186516503D01*
X195738527Y-186441154D01*
X195709397Y-186370827D01*
X195709390Y-186370814D01*
X195621789Y-186239711D01*
X195621786Y-186239707D01*
X195510292Y-186128213D01*
X195510288Y-186128210D01*
X195379185Y-186040609D01*
X195379172Y-186040602D01*
X195233501Y-185980264D01*
X195233489Y-185980261D01*
X195078845Y-185949500D01*
X195078842Y-185949500D01*
X194921158Y-185949500D01*
X194921151Y-185949500D01*
X194915627Y-185950599D01*
X194846036Y-185944366D01*
X194803764Y-185916661D01*
X194026616Y-185139513D01*
X194026614Y-185139511D01*
X193975250Y-185109856D01*
X193923888Y-185080201D01*
X193911780Y-185076957D01*
X193899673Y-185073713D01*
X193899670Y-185073712D01*
X193861478Y-185063478D01*
X193809309Y-185049500D01*
X193809308Y-185049500D01*
X186081565Y-185049500D01*
X186014526Y-185029815D01*
X185971081Y-184981795D01*
X185941232Y-184923212D01*
X185941231Y-184923211D01*
X185941229Y-184923207D01*
X185911672Y-184882526D01*
X185839414Y-184783072D01*
X185716928Y-184660586D01*
X185576788Y-184558768D01*
X185422445Y-184480127D01*
X185257701Y-184426598D01*
X185257699Y-184426597D01*
X185257698Y-184426597D01*
X185126271Y-184405781D01*
X185086611Y-184399500D01*
X184913389Y-184399500D01*
X184873728Y-184405781D01*
X184742302Y-184426597D01*
X184577552Y-184480128D01*
X184423211Y-184558768D01*
X184343256Y-184616859D01*
X184283072Y-184660586D01*
X184283070Y-184660588D01*
X184283069Y-184660588D01*
X184160588Y-184783069D01*
X184160588Y-184783070D01*
X184160586Y-184783072D01*
X184150187Y-184797385D01*
X184058768Y-184923211D01*
X183980128Y-185077552D01*
X183926597Y-185242302D01*
X183920431Y-185281233D01*
X183899500Y-185413389D01*
X182655500Y-185413389D01*
X182655500Y-183225624D01*
X182664144Y-183196183D01*
X182670668Y-183166197D01*
X182674422Y-183161181D01*
X182675185Y-183158585D01*
X182691819Y-183137943D01*
X182787943Y-183041819D01*
X182849266Y-183008334D01*
X182875624Y-183005500D01*
X193458456Y-183005500D01*
X193525495Y-183025185D01*
X193546137Y-183041819D01*
X194134134Y-183629815D01*
X194719531Y-184215212D01*
X194784788Y-184280469D01*
X194784791Y-184280470D01*
X194784794Y-184280473D01*
X194864706Y-184326611D01*
X194864707Y-184326611D01*
X194864712Y-184326614D01*
X194953856Y-184350500D01*
X194953858Y-184350500D01*
X198296142Y-184350500D01*
X198296144Y-184350500D01*
X198385288Y-184326614D01*
X198465212Y-184280470D01*
X202431252Y-180314427D01*
X202492575Y-180280943D01*
X202562267Y-180285927D01*
X202606614Y-180314428D01*
X202692686Y-180400500D01*
X202806814Y-180466392D01*
X202934108Y-180500500D01*
X202934110Y-180500500D01*
X221065890Y-180500500D01*
X221065892Y-180500500D01*
X221193186Y-180466392D01*
X221307314Y-180400500D01*
X221400500Y-180307314D01*
X221466392Y-180193186D01*
X221500500Y-180065892D01*
X221500500Y-167934108D01*
X221466392Y-167806814D01*
X221400500Y-167692686D01*
X221307314Y-167599500D01*
X221250250Y-167566554D01*
X221193187Y-167533608D01*
X221124228Y-167515131D01*
X221065892Y-167499500D01*
X221065891Y-167499500D01*
X203374891Y-167499500D01*
X203307852Y-167479815D01*
X203262097Y-167427011D01*
X203252153Y-167357853D01*
X203281178Y-167294297D01*
X203287210Y-167287819D01*
X203719238Y-166855791D01*
X204163119Y-166411910D01*
X204209263Y-166331986D01*
X204210702Y-166326614D01*
X204233149Y-166242842D01*
X204233149Y-165779827D01*
X204252834Y-165712788D01*
X204269468Y-165692146D01*
X204269928Y-165691686D01*
X204283149Y-165678465D01*
X204349041Y-165564337D01*
X204383149Y-165437043D01*
X204383149Y-165305259D01*
X204383147Y-165305253D01*
X204382508Y-165300398D01*
X204393271Y-165231362D01*
X204439649Y-165179105D01*
X204444143Y-165176422D01*
X204457974Y-165168555D01*
X204497812Y-165157881D01*
X204611940Y-165091989D01*
X204637453Y-165066475D01*
X204651998Y-165058203D01*
X204670374Y-165053870D01*
X204686944Y-165044823D01*
X204713302Y-165041989D01*
X205477905Y-165041989D01*
X205544944Y-165061674D01*
X205565585Y-165078307D01*
X207369747Y-166882470D01*
X207369748Y-166882471D01*
X207369750Y-166882472D01*
X207416945Y-166909720D01*
X207416948Y-166909721D01*
X207424775Y-166914240D01*
X207424858Y-166914288D01*
X207438761Y-166924956D01*
X207439299Y-166924256D01*
X207445745Y-166929202D01*
X207445749Y-166929204D01*
X207445750Y-166929205D01*
X207461289Y-166938177D01*
X207473565Y-166946271D01*
X207487946Y-166957030D01*
X207487951Y-166957033D01*
X207499210Y-166961536D01*
X207512877Y-166967994D01*
X207514019Y-166968621D01*
X207525674Y-166975351D01*
X207525678Y-166975352D01*
X207525680Y-166975353D01*
X207526830Y-166975661D01*
X207526832Y-166975662D01*
X207533486Y-166977444D01*
X207543024Y-166980000D01*
X207556976Y-166984642D01*
X207569474Y-166989641D01*
X207573638Y-166991307D01*
X207573641Y-166991308D01*
X207585694Y-166992745D01*
X207603101Y-166996098D01*
X207614824Y-166999240D01*
X207640145Y-166999240D01*
X207665280Y-167002238D01*
X207686085Y-166999240D01*
X208122149Y-166999242D01*
X208122152Y-166999240D01*
X208130775Y-166999241D01*
X208130804Y-166999240D01*
X220796402Y-166999240D01*
X220796404Y-166999240D01*
X220885548Y-166975354D01*
X220896898Y-166968801D01*
X220965472Y-166929210D01*
X221358863Y-166535819D01*
X221420186Y-166502334D01*
X221446544Y-166499500D01*
X221465890Y-166499500D01*
X221465892Y-166499500D01*
X221593186Y-166465392D01*
X221707314Y-166399500D01*
X221800500Y-166306314D01*
X221866392Y-166192186D01*
X221900500Y-166064892D01*
X221900500Y-165945544D01*
X221920185Y-165878505D01*
X221972989Y-165832750D01*
X222042147Y-165822806D01*
X222105703Y-165851831D01*
X222112181Y-165857863D01*
X222363181Y-166108863D01*
X222396666Y-166170186D01*
X222399500Y-166196544D01*
X222399500Y-181594936D01*
X222379815Y-181661975D01*
X222363181Y-181682617D01*
X220683617Y-183362181D01*
X220622294Y-183395666D01*
X220595936Y-183398500D01*
X204742634Y-183398500D01*
X204675595Y-183378815D01*
X204654953Y-183362181D01*
X203483909Y-182191137D01*
X203450424Y-182129814D01*
X203447590Y-182103456D01*
X203447590Y-182084110D01*
X203447590Y-182084108D01*
X203413482Y-181956814D01*
X203347590Y-181842686D01*
X203254404Y-181749500D01*
X203170154Y-181700858D01*
X203140277Y-181683608D01*
X203059540Y-181661975D01*
X203012982Y-181649500D01*
X202881198Y-181649500D01*
X202753902Y-181683608D01*
X202639776Y-181749500D01*
X202639773Y-181749502D01*
X202546592Y-181842683D01*
X202546590Y-181842686D01*
X202480698Y-181956812D01*
X202470888Y-181993424D01*
X202446590Y-182084108D01*
X202446590Y-182215892D01*
X202474802Y-182321182D01*
X202482540Y-182350060D01*
X202480877Y-182419910D01*
X202441714Y-182477772D01*
X202424767Y-182489539D01*
X202390115Y-182509546D01*
X202390109Y-182509550D01*
X202296928Y-182602731D01*
X202296926Y-182602734D01*
X202231034Y-182716860D01*
X202196926Y-182844156D01*
X202196926Y-182975939D01*
X202231034Y-183103235D01*
X202263980Y-183160298D01*
X202296926Y-183217362D01*
X202390112Y-183310548D01*
X202504240Y-183376440D01*
X202631534Y-183410548D01*
X202650882Y-183410548D01*
X202717921Y-183430233D01*
X202738563Y-183446867D01*
X203756909Y-184465212D01*
X203822166Y-184530469D01*
X203822169Y-184530470D01*
X203822172Y-184530473D01*
X203902084Y-184576611D01*
X203902085Y-184576611D01*
X203902090Y-184576614D01*
X203991234Y-184600500D01*
X203991236Y-184600500D01*
X213926879Y-184600500D01*
X213993918Y-184620185D01*
X214039673Y-184672989D01*
X214049617Y-184742147D01*
X214027197Y-184797385D01*
X213973670Y-184871059D01*
X213887914Y-185039362D01*
X213829548Y-185218997D01*
X213800000Y-185405552D01*
X213800000Y-185594447D01*
X213829548Y-185781002D01*
X213887914Y-185960637D01*
X213973666Y-186128933D01*
X214051627Y-186236239D01*
X214374311Y-185913554D01*
X214417437Y-185978097D01*
X214521903Y-186082563D01*
X214586442Y-186125686D01*
X214263759Y-186448370D01*
X214263759Y-186448371D01*
X214371066Y-186526333D01*
X214539362Y-186612085D01*
X214718997Y-186670451D01*
X214905553Y-186700000D01*
X215094447Y-186700000D01*
X215281002Y-186670451D01*
X215460637Y-186612085D01*
X215628940Y-186526329D01*
X215736239Y-186448373D01*
X215736240Y-186448371D01*
X215413556Y-186125687D01*
X215478097Y-186082563D01*
X215582563Y-185978097D01*
X215625687Y-185913556D01*
X215948371Y-186236240D01*
X215948373Y-186236239D01*
X216026329Y-186128940D01*
X216112085Y-185960637D01*
X216170451Y-185781002D01*
X216200000Y-185594447D01*
X216200000Y-185405552D01*
X216170451Y-185218997D01*
X216112085Y-185039362D01*
X216026329Y-184871059D01*
X215972803Y-184797385D01*
X215949323Y-184731578D01*
X215965149Y-184663525D01*
X216015255Y-184614830D01*
X216073121Y-184600500D01*
X221046142Y-184600500D01*
X221046144Y-184600500D01*
X221135288Y-184576614D01*
X221135292Y-184576612D01*
X221166196Y-184558769D01*
X221166198Y-184558768D01*
X221215212Y-184530470D01*
X223212819Y-182532863D01*
X223274142Y-182499378D01*
X223343834Y-182504362D01*
X223399767Y-182546234D01*
X223424184Y-182611698D01*
X223424500Y-182620544D01*
X223424500Y-186441154D01*
X223404815Y-186508193D01*
X223352011Y-186553948D01*
X223282853Y-186563892D01*
X223219297Y-186534867D01*
X223200182Y-186514040D01*
X223182656Y-186489918D01*
X223010081Y-186317343D01*
X223010076Y-186317339D01*
X222812642Y-186173896D01*
X222812641Y-186173895D01*
X222812639Y-186173894D01*
X222595185Y-186063096D01*
X222363076Y-185987679D01*
X222363074Y-185987678D01*
X222363072Y-185987678D01*
X222192342Y-185960637D01*
X222122027Y-185949500D01*
X221877973Y-185949500D01*
X221822093Y-185958350D01*
X221636927Y-185987678D01*
X221404812Y-186063097D01*
X221187357Y-186173896D01*
X220989923Y-186317339D01*
X220989918Y-186317343D01*
X220817343Y-186489918D01*
X220817339Y-186489923D01*
X220673896Y-186687357D01*
X220563097Y-186904812D01*
X220487678Y-187136927D01*
X220449500Y-187377973D01*
X220449500Y-187622026D01*
X220468549Y-187742299D01*
X220487679Y-187863076D01*
X220563096Y-188095185D01*
X220667454Y-188300000D01*
X220673896Y-188312642D01*
X220817339Y-188510076D01*
X220817343Y-188510081D01*
X220989918Y-188682656D01*
X220989923Y-188682660D01*
X221132761Y-188786437D01*
X221187361Y-188826106D01*
X221404815Y-188936904D01*
X221636924Y-189012321D01*
X221877973Y-189050500D01*
X221877974Y-189050500D01*
X222122026Y-189050500D01*
X222122027Y-189050500D01*
X222363076Y-189012321D01*
X222595185Y-188936904D01*
X222812639Y-188826106D01*
X223010083Y-188682655D01*
X223182655Y-188510083D01*
X223200181Y-188485961D01*
X223255511Y-188443294D01*
X223325124Y-188437315D01*
X223386919Y-188469920D01*
X223421277Y-188530758D01*
X223424500Y-188558845D01*
X223424500Y-194710258D01*
X223404815Y-194777297D01*
X223388181Y-194797939D01*
X221547939Y-196638181D01*
X221486616Y-196671666D01*
X221460258Y-196674500D01*
X221174234Y-196674500D01*
X221027863Y-196713719D01*
X220955817Y-196755316D01*
X220908062Y-196782887D01*
X220846063Y-196799500D01*
X220440691Y-196799500D01*
X220351458Y-196823410D01*
X220281608Y-196821747D01*
X220223746Y-196782584D01*
X220207258Y-196755168D01*
X220206969Y-196755316D01*
X220204872Y-196751200D01*
X220204802Y-196751084D01*
X220204755Y-196750971D01*
X220111859Y-196568652D01*
X220019963Y-196442169D01*
X220019963Y-196442168D01*
X219333863Y-197128269D01*
X219300075Y-197069745D01*
X219230255Y-196999925D01*
X219144745Y-196950556D01*
X219099451Y-196938419D01*
X219807832Y-196230037D01*
X219807831Y-196230035D01*
X219681359Y-196138149D01*
X219681350Y-196138143D01*
X219499031Y-196045246D01*
X219304417Y-195982011D01*
X219102317Y-195950002D01*
X218897683Y-195950002D01*
X218695582Y-195982011D01*
X218500968Y-196045246D01*
X218318647Y-196138144D01*
X218192167Y-196230036D01*
X218192167Y-196230037D01*
X218900549Y-196938419D01*
X218855255Y-196950556D01*
X218769745Y-196999925D01*
X218699925Y-197069745D01*
X218666135Y-197128269D01*
X217980035Y-196442169D01*
X217980034Y-196442169D01*
X217888139Y-196568653D01*
X217884543Y-196575711D01*
X217836565Y-196626504D01*
X217768743Y-196643295D01*
X217702610Y-196620753D01*
X217670960Y-196588300D01*
X217621789Y-196514711D01*
X217621786Y-196514707D01*
X217510292Y-196403213D01*
X217510288Y-196403210D01*
X217476148Y-196380398D01*
X217379185Y-196315609D01*
X217379172Y-196315602D01*
X217233501Y-196255264D01*
X217233489Y-196255261D01*
X217078845Y-196224500D01*
X217078842Y-196224500D01*
X216921158Y-196224500D01*
X216921155Y-196224500D01*
X216766510Y-196255261D01*
X216766498Y-196255264D01*
X216620827Y-196315602D01*
X216620814Y-196315609D01*
X216489711Y-196403210D01*
X216489707Y-196403213D01*
X216378213Y-196514707D01*
X216378210Y-196514711D01*
X216290609Y-196645814D01*
X216290602Y-196645827D01*
X216230264Y-196791498D01*
X216230261Y-196791510D01*
X216199500Y-196946153D01*
X216199500Y-197653846D01*
X216230261Y-197808489D01*
X216230264Y-197808501D01*
X216290602Y-197954172D01*
X216290609Y-197954185D01*
X216378210Y-198085288D01*
X216378213Y-198085292D01*
X216489707Y-198196786D01*
X216489711Y-198196789D01*
X216620814Y-198284390D01*
X216620827Y-198284397D01*
X216757425Y-198340977D01*
X216766503Y-198344737D01*
X216921153Y-198375499D01*
X216921156Y-198375500D01*
X216921158Y-198375500D01*
X217078844Y-198375500D01*
X217078845Y-198375499D01*
X217233497Y-198344737D01*
X217379179Y-198284394D01*
X217510289Y-198196789D01*
X217621789Y-198085289D01*
X217706430Y-197958613D01*
X217708942Y-197955349D01*
X217733971Y-197937117D01*
X217757739Y-197917254D01*
X217761971Y-197916722D01*
X217765418Y-197914212D01*
X217796332Y-197912406D01*
X217827064Y-197908547D01*
X217830911Y-197910387D01*
X217835169Y-197910139D01*
X217862153Y-197925334D01*
X217890092Y-197938701D01*
X217894424Y-197943507D01*
X217896049Y-197944422D01*
X217897185Y-197946570D01*
X217907548Y-197958065D01*
X217980033Y-198057833D01*
X217980035Y-198057834D01*
X218638419Y-197399450D01*
X218650556Y-197444745D01*
X218699925Y-197530255D01*
X218769745Y-197600075D01*
X218828268Y-197633863D01*
X218192166Y-198269965D01*
X218192167Y-198269966D01*
X218250802Y-198312567D01*
X218252843Y-198314082D01*
X218377902Y-198408919D01*
X218377908Y-198408922D01*
X218518549Y-198464384D01*
X218518552Y-198464385D01*
X218525637Y-198465236D01*
X218549177Y-198470421D01*
X218695586Y-198517992D01*
X218850000Y-198542449D01*
X218850000Y-197646410D01*
X218855255Y-197649444D01*
X218950630Y-197675000D01*
X219049370Y-197675000D01*
X219144745Y-197649444D01*
X219150000Y-197646410D01*
X219150000Y-198542448D01*
X219304411Y-198517992D01*
X219450820Y-198470421D01*
X219474362Y-198465236D01*
X219481443Y-198464386D01*
X219481454Y-198464383D01*
X219622091Y-198408922D01*
X219622097Y-198408919D01*
X219747189Y-198314058D01*
X219749230Y-198312543D01*
X219807831Y-198269966D01*
X219807832Y-198269965D01*
X219171730Y-197633863D01*
X219230255Y-197600075D01*
X219300075Y-197530255D01*
X219349444Y-197444745D01*
X219361580Y-197399451D01*
X220019963Y-198057834D01*
X220019963Y-198057833D01*
X220111861Y-197931349D01*
X220204752Y-197749038D01*
X220204801Y-197748921D01*
X220204831Y-197748883D01*
X220206969Y-197744688D01*
X220207849Y-197745136D01*
X220248638Y-197694514D01*
X220314930Y-197672444D01*
X220351456Y-197676589D01*
X220440691Y-197700500D01*
X220846063Y-197700500D01*
X220908062Y-197717112D01*
X221027865Y-197786281D01*
X221174234Y-197825500D01*
X221174236Y-197825500D01*
X221825764Y-197825500D01*
X221825766Y-197825500D01*
X221972135Y-197786281D01*
X222103365Y-197710515D01*
X224287819Y-195526061D01*
X224349142Y-195492576D01*
X224418834Y-195497560D01*
X224474767Y-195539432D01*
X224499184Y-195604896D01*
X224499500Y-195613742D01*
X224499500Y-195996948D01*
X224499351Y-196003033D01*
X224482947Y-196336928D01*
X224481754Y-196349037D01*
X224433151Y-196676694D01*
X224430777Y-196688630D01*
X224350292Y-197009944D01*
X224346759Y-197021588D01*
X224235170Y-197333459D01*
X224230514Y-197344702D01*
X224088885Y-197644151D01*
X224083148Y-197654883D01*
X223912862Y-197938988D01*
X223906102Y-197949106D01*
X223708775Y-198215170D01*
X223701055Y-198224576D01*
X223478611Y-198470006D01*
X223470006Y-198478611D01*
X223224576Y-198701055D01*
X223215170Y-198708775D01*
X222949106Y-198906102D01*
X222938988Y-198912862D01*
X222654883Y-199083148D01*
X222644151Y-199088885D01*
X222344702Y-199230514D01*
X222333459Y-199235170D01*
X222021588Y-199346759D01*
X222009944Y-199350292D01*
X221688630Y-199430777D01*
X221676694Y-199433151D01*
X221349037Y-199481754D01*
X221336928Y-199482947D01*
X221021989Y-199498419D01*
X221003031Y-199499351D01*
X220996949Y-199499500D01*
X179003051Y-199499500D01*
X178996968Y-199499351D01*
X178976900Y-199498365D01*
X178663071Y-199482947D01*
X178650962Y-199481754D01*
X178323305Y-199433151D01*
X178311369Y-199430777D01*
X177990055Y-199350292D01*
X177978411Y-199346759D01*
X177666540Y-199235170D01*
X177655301Y-199230515D01*
X177355844Y-199088883D01*
X177345121Y-199083150D01*
X177061011Y-198912862D01*
X177050893Y-198906102D01*
X176784829Y-198708775D01*
X176775423Y-198701055D01*
X176600427Y-198542448D01*
X176529986Y-198478604D01*
X176521395Y-198470013D01*
X176298944Y-198224576D01*
X176291224Y-198215170D01*
X176277592Y-198196789D01*
X176093895Y-197949103D01*
X176087137Y-197938988D01*
X176086016Y-197937117D01*
X175916844Y-197654871D01*
X175911120Y-197644163D01*
X175769479Y-197344688D01*
X175764829Y-197333459D01*
X175735192Y-197250630D01*
X175659066Y-197037870D01*
X175653240Y-197021588D01*
X175649707Y-197009944D01*
X175569219Y-196688617D01*
X175566848Y-196676694D01*
X175565470Y-196667406D01*
X175518245Y-196349037D01*
X175517052Y-196336927D01*
X175516065Y-196316844D01*
X175500649Y-196003032D01*
X175500500Y-195996948D01*
X175500500Y-160377973D01*
X176449500Y-160377973D01*
X176449500Y-160622026D01*
X176486183Y-160853636D01*
X176487679Y-160863076D01*
X176563096Y-161095185D01*
X176665693Y-161296544D01*
X176673896Y-161312642D01*
X176817339Y-161510076D01*
X176817343Y-161510081D01*
X176989918Y-161682656D01*
X176989923Y-161682660D01*
X177083298Y-161750500D01*
X177187361Y-161826106D01*
X177404815Y-161936904D01*
X177636924Y-162012321D01*
X177877973Y-162050500D01*
X177877974Y-162050500D01*
X178122026Y-162050500D01*
X178122027Y-162050500D01*
X178363076Y-162012321D01*
X178595185Y-161936904D01*
X178812639Y-161826106D01*
X179010083Y-161682655D01*
X179182655Y-161510083D01*
X179326106Y-161312639D01*
X179436904Y-161095185D01*
X179512321Y-160863076D01*
X179550500Y-160622027D01*
X179550500Y-160377973D01*
X179512321Y-160136924D01*
X179436904Y-159904815D01*
X179326106Y-159687361D01*
X179307779Y-159662136D01*
X179182660Y-159489923D01*
X179182656Y-159489918D01*
X179010081Y-159317343D01*
X179010076Y-159317339D01*
X178812642Y-159173896D01*
X178812641Y-159173895D01*
X178812639Y-159173894D01*
X178595185Y-159063096D01*
X178363076Y-158987679D01*
X178363074Y-158987678D01*
X178363072Y-158987678D01*
X178194769Y-158961021D01*
X178122027Y-158949500D01*
X177877973Y-158949500D01*
X177822093Y-158958350D01*
X177636927Y-158987678D01*
X177404812Y-159063097D01*
X177187357Y-159173896D01*
X176989923Y-159317339D01*
X176989918Y-159317343D01*
X176817343Y-159489918D01*
X176817339Y-159489923D01*
X176673896Y-159687357D01*
X176563097Y-159904812D01*
X176487678Y-160136927D01*
X176449500Y-160377973D01*
X175500500Y-160377973D01*
X175500500Y-152701423D01*
X175475815Y-152309075D01*
X175463006Y-152105483D01*
X175388165Y-151513061D01*
X175276274Y-150926507D01*
X175127774Y-150348137D01*
X174943250Y-149780232D01*
X174723432Y-149225034D01*
X174469186Y-148684734D01*
X174181517Y-148161465D01*
X173861558Y-147657291D01*
X173510574Y-147174202D01*
X173129948Y-146714105D01*
X173129944Y-146714101D01*
X173129941Y-146714097D01*
X172721184Y-146278815D01*
X172285902Y-145870058D01*
X172285895Y-145870052D01*
X171825798Y-145489426D01*
X171806630Y-145475500D01*
X171496576Y-145250233D01*
X171342709Y-145138442D01*
X170838535Y-144818483D01*
X170838522Y-144818476D01*
X170838512Y-144818470D01*
X170481737Y-144622332D01*
X170315266Y-144530814D01*
X169774966Y-144276568D01*
X169774958Y-144276564D01*
X169774952Y-144276562D01*
X169219773Y-144056752D01*
X169219768Y-144056750D01*
X169186320Y-144045882D01*
X168651871Y-143872228D01*
X168651854Y-143872223D01*
X168073504Y-143723728D01*
X168073492Y-143723725D01*
X167486945Y-143611836D01*
X167486928Y-143611833D01*
X166894530Y-143536995D01*
X166894491Y-143536992D01*
X166298576Y-143499500D01*
X166298565Y-143499500D01*
X166003246Y-143499500D01*
X165996756Y-143499330D01*
X165692953Y-143483407D01*
X165680046Y-143482050D01*
X165382794Y-143434971D01*
X165370097Y-143432273D01*
X165079376Y-143354374D01*
X165067033Y-143350363D01*
X164786064Y-143242510D01*
X164774206Y-143237231D01*
X164506036Y-143100591D01*
X164494796Y-143094101D01*
X164242391Y-142930187D01*
X164231890Y-142922558D01*
X163997989Y-142733149D01*
X163988344Y-142724464D01*
X163775535Y-142511655D01*
X163766850Y-142502010D01*
X163759325Y-142492718D01*
X163577441Y-142268109D01*
X163569812Y-142257608D01*
X163542244Y-142215157D01*
X163405896Y-142005199D01*
X163399408Y-141993963D01*
X163367817Y-141931963D01*
X163262767Y-141725790D01*
X163257489Y-141713935D01*
X163255744Y-141709390D01*
X163149635Y-141432965D01*
X163145625Y-141420623D01*
X163117725Y-141316498D01*
X163067724Y-141129896D01*
X163065028Y-141117205D01*
X163058952Y-141078844D01*
X163028297Y-140885288D01*
X163017949Y-140819953D01*
X163016592Y-140807046D01*
X163011880Y-140717144D01*
X163000701Y-140503862D01*
X163000535Y-140496527D01*
X163000704Y-140472136D01*
X163005435Y-139785850D01*
X163005459Y-139784143D01*
X163012191Y-139460512D01*
X163020121Y-139079300D01*
X163020169Y-139077585D01*
X163020169Y-139077583D01*
X163044503Y-138379600D01*
X163044573Y-138377966D01*
X163078408Y-137688570D01*
X163078508Y-137686811D01*
X163080735Y-137651722D01*
X163121832Y-137004094D01*
X163121941Y-137002557D01*
X163174555Y-136328072D01*
X163174692Y-136326458D01*
X163236612Y-135658701D01*
X163236777Y-135657049D01*
X163269407Y-135353856D01*
X165399500Y-135353856D01*
X165399500Y-137536094D01*
X165417295Y-137602506D01*
X165421527Y-137618300D01*
X165423387Y-137625240D01*
X165423387Y-137625241D01*
X165469527Y-137705158D01*
X165469531Y-137705163D01*
X169943206Y-142178838D01*
X169976691Y-142240161D01*
X169979525Y-142266519D01*
X169979525Y-142342450D01*
X170008006Y-142448740D01*
X170017042Y-142482463D01*
X170089513Y-142607986D01*
X170089515Y-142607988D01*
X170089516Y-142607990D01*
X170192010Y-142710484D01*
X170192011Y-142710485D01*
X170192013Y-142710486D01*
X170317536Y-142782957D01*
X170317537Y-142782957D01*
X170317540Y-142782959D01*
X170457550Y-142820475D01*
X170457553Y-142820475D01*
X170602497Y-142820475D01*
X170602500Y-142820475D01*
X170742510Y-142782959D01*
X170868040Y-142710484D01*
X170970534Y-142607990D01*
X171043009Y-142482460D01*
X171080525Y-142342450D01*
X171080525Y-142197500D01*
X171043009Y-142057490D01*
X171032211Y-142038788D01*
X170970536Y-141931963D01*
X170970531Y-141931957D01*
X170896230Y-141857656D01*
X170862745Y-141796333D01*
X170867729Y-141726641D01*
X170896230Y-141682294D01*
X170965509Y-141613015D01*
X171037984Y-141487485D01*
X171075500Y-141347475D01*
X171075500Y-141202525D01*
X171037984Y-141062515D01*
X171024051Y-141038383D01*
X170965511Y-140936988D01*
X170965506Y-140936982D01*
X170863017Y-140834493D01*
X170863011Y-140834488D01*
X170737488Y-140762017D01*
X170737489Y-140762017D01*
X170726006Y-140758940D01*
X170597475Y-140724500D01*
X170597472Y-140724500D01*
X170521544Y-140724500D01*
X170492103Y-140715855D01*
X170462117Y-140709332D01*
X170457101Y-140705577D01*
X170454505Y-140704815D01*
X170433863Y-140688181D01*
X170386819Y-140641137D01*
X170353334Y-140579814D01*
X170350500Y-140553456D01*
X170350500Y-138187663D01*
X170370185Y-138120624D01*
X170422989Y-138074869D01*
X170463687Y-138064136D01*
X171012163Y-138016151D01*
X171043755Y-138006942D01*
X171069405Y-137999467D01*
X171069407Y-137999465D01*
X171069410Y-137999465D01*
X171131616Y-137949538D01*
X171169982Y-137879608D01*
X171176474Y-137820333D01*
X171016151Y-135987837D01*
X171006247Y-135953858D01*
X170999467Y-135930594D01*
X170999464Y-135930588D01*
X170949539Y-135868385D01*
X170949537Y-135868383D01*
X170879610Y-135830019D01*
X170879609Y-135830018D01*
X170879608Y-135830018D01*
X170820333Y-135823526D01*
X170820331Y-135823526D01*
X168987841Y-135983848D01*
X168987828Y-135983851D01*
X168930594Y-136000532D01*
X168930588Y-136000535D01*
X168868385Y-136050460D01*
X168868383Y-136050462D01*
X168830019Y-136120389D01*
X168830018Y-136120392D01*
X168823526Y-136179664D01*
X168823526Y-136179673D01*
X168983848Y-138012158D01*
X168983851Y-138012171D01*
X169000532Y-138069405D01*
X169000535Y-138069411D01*
X169050460Y-138131614D01*
X169050462Y-138131616D01*
X169120392Y-138169982D01*
X169179667Y-138176474D01*
X169514693Y-138147162D01*
X169583192Y-138160928D01*
X169633375Y-138209544D01*
X169649500Y-138270690D01*
X169649500Y-140594406D01*
X169629815Y-140661445D01*
X169577011Y-140707200D01*
X169507853Y-140717144D01*
X169444297Y-140688119D01*
X169437819Y-140682087D01*
X167289185Y-138533453D01*
X167255700Y-138472130D01*
X167260684Y-138402438D01*
X167302556Y-138346505D01*
X167368020Y-138322088D01*
X167378181Y-138322126D01*
X167378181Y-138321876D01*
X167556274Y-138321876D01*
X167556275Y-138321876D01*
X167727365Y-138294778D01*
X167892109Y-138241249D01*
X168046452Y-138162608D01*
X168186592Y-138060790D01*
X168309078Y-137938304D01*
X168410896Y-137798164D01*
X168489537Y-137643821D01*
X168543066Y-137479077D01*
X168570164Y-137307987D01*
X168570164Y-137134765D01*
X168543066Y-136963675D01*
X168489537Y-136798931D01*
X168410896Y-136644588D01*
X168309078Y-136504448D01*
X168186592Y-136381962D01*
X168046452Y-136280144D01*
X167892109Y-136201503D01*
X167727365Y-136147974D01*
X167727363Y-136147973D01*
X167727362Y-136147973D01*
X167595935Y-136127157D01*
X167556275Y-136120876D01*
X167383053Y-136120876D01*
X167343392Y-136127157D01*
X167211966Y-136147973D01*
X167047216Y-136201504D01*
X166892875Y-136280144D01*
X166854823Y-136307791D01*
X166752736Y-136381962D01*
X166752734Y-136381964D01*
X166752733Y-136381964D01*
X166630252Y-136504445D01*
X166630252Y-136504446D01*
X166630250Y-136504448D01*
X166586523Y-136564632D01*
X166528432Y-136644587D01*
X166449792Y-136798928D01*
X166396261Y-136963678D01*
X166369164Y-137134765D01*
X166369164Y-137312859D01*
X166367126Y-137312859D01*
X166354502Y-137372856D01*
X166305435Y-137422597D01*
X166237266Y-137437915D01*
X166171636Y-137413945D01*
X166157586Y-137401854D01*
X166136819Y-137381087D01*
X166103334Y-137319764D01*
X166100500Y-137293406D01*
X166100500Y-135596544D01*
X166120185Y-135529505D01*
X166136819Y-135508863D01*
X167498317Y-134147365D01*
X168880470Y-132765212D01*
X168926614Y-132685288D01*
X168929685Y-132673828D01*
X168950500Y-132596144D01*
X168950500Y-123096544D01*
X168970185Y-123029505D01*
X168986819Y-123008863D01*
X180358863Y-111636819D01*
X180420186Y-111603334D01*
X180446544Y-111600500D01*
X195523161Y-111600500D01*
X195590200Y-111620185D01*
X195610842Y-111636819D01*
X196215664Y-112241641D01*
X196249149Y-112302964D01*
X196244165Y-112372656D01*
X196235370Y-112391322D01*
X195857065Y-113046568D01*
X195857065Y-113046570D01*
X195837898Y-113103031D01*
X195837898Y-113103033D01*
X195837898Y-113103034D01*
X195843115Y-113182628D01*
X195878394Y-113254166D01*
X195923225Y-113293482D01*
X196522908Y-113639709D01*
X197479328Y-114191899D01*
X197516275Y-114213230D01*
X197572739Y-114232397D01*
X197652333Y-114227180D01*
X197723871Y-114191901D01*
X197763187Y-114147070D01*
X198590753Y-112713684D01*
X201629500Y-112713684D01*
X201629500Y-112886906D01*
X201656598Y-113057996D01*
X201710127Y-113222740D01*
X201788768Y-113377083D01*
X201890586Y-113517223D01*
X202013072Y-113639709D01*
X202153212Y-113741527D01*
X202307555Y-113820168D01*
X202472299Y-113873697D01*
X202643389Y-113900795D01*
X202643390Y-113900795D01*
X202816610Y-113900795D01*
X202816611Y-113900795D01*
X202987701Y-113873697D01*
X203152445Y-113820168D01*
X203306788Y-113741527D01*
X203446928Y-113639709D01*
X203569414Y-113517223D01*
X203671232Y-113377083D01*
X203749873Y-113222740D01*
X203803402Y-113057996D01*
X203830500Y-112886906D01*
X203830500Y-112713684D01*
X203803402Y-112542594D01*
X203749873Y-112377850D01*
X203671232Y-112223507D01*
X203569414Y-112083367D01*
X203446928Y-111960881D01*
X203306788Y-111859063D01*
X203152445Y-111780422D01*
X202987701Y-111726893D01*
X202987699Y-111726892D01*
X202987698Y-111726892D01*
X202856271Y-111706076D01*
X202816611Y-111699795D01*
X202643389Y-111699795D01*
X202603728Y-111706076D01*
X202472302Y-111726892D01*
X202307552Y-111780423D01*
X202153211Y-111859063D01*
X202077032Y-111914411D01*
X202013072Y-111960881D01*
X202013070Y-111960883D01*
X202013069Y-111960883D01*
X201890588Y-112083364D01*
X201890588Y-112083365D01*
X201890586Y-112083367D01*
X201846859Y-112143551D01*
X201788768Y-112223506D01*
X201710128Y-112377847D01*
X201656597Y-112542597D01*
X201629500Y-112713684D01*
X198590753Y-112713684D01*
X198682935Y-112554020D01*
X198702102Y-112497556D01*
X198696885Y-112417962D01*
X198661606Y-112346424D01*
X198616775Y-112307108D01*
X198616772Y-112307106D01*
X197023726Y-111387360D01*
X197023723Y-111387359D01*
X196967263Y-111368193D01*
X196967261Y-111368193D01*
X196914198Y-111371671D01*
X196887666Y-111373410D01*
X196859379Y-111387360D01*
X196816129Y-111408689D01*
X196816128Y-111408689D01*
X196816128Y-111408690D01*
X196776810Y-111453523D01*
X196776809Y-111453524D01*
X196726608Y-111540474D01*
X196676041Y-111588689D01*
X196607433Y-111601911D01*
X196542569Y-111575943D01*
X196531541Y-111566154D01*
X195934918Y-110969531D01*
X195934913Y-110969527D01*
X195854995Y-110923387D01*
X195854994Y-110923386D01*
X195854993Y-110923386D01*
X195765849Y-110899500D01*
X180203856Y-110899500D01*
X180114712Y-110923386D01*
X180114709Y-110923387D01*
X180034791Y-110969527D01*
X180034786Y-110969531D01*
X168319531Y-122684786D01*
X168319529Y-122684789D01*
X168290614Y-122734873D01*
X168273385Y-122764713D01*
X168249500Y-122853856D01*
X168249500Y-132353456D01*
X168229815Y-132420495D01*
X168213181Y-132441137D01*
X165469531Y-135184786D01*
X165469527Y-135184791D01*
X165439074Y-135237539D01*
X165439074Y-135237540D01*
X165423386Y-135264710D01*
X165399632Y-135353364D01*
X165399500Y-135353856D01*
X163269407Y-135353856D01*
X163307751Y-134997576D01*
X163307940Y-134995934D01*
X163388087Y-134342764D01*
X163388300Y-134341136D01*
X163477268Y-133696348D01*
X163477510Y-133694692D01*
X163575516Y-133056017D01*
X163575782Y-133054364D01*
X163682377Y-132424115D01*
X163682707Y-132422256D01*
X163683033Y-132420495D01*
X163798216Y-131797952D01*
X163798542Y-131796267D01*
X163922475Y-131180087D01*
X163922813Y-131178474D01*
X164055572Y-130568007D01*
X164055945Y-130566357D01*
X164196272Y-129966794D01*
X164196976Y-129963941D01*
X164242162Y-129789714D01*
X164504772Y-128777153D01*
X164505826Y-128773345D01*
X164846089Y-127616169D01*
X164847263Y-127612406D01*
X165220085Y-126482200D01*
X165221384Y-126478470D01*
X165626311Y-125374882D01*
X165627789Y-125371055D01*
X165673732Y-125257701D01*
X166064375Y-124293873D01*
X166065970Y-124290123D01*
X166533808Y-123239139D01*
X166535534Y-123235430D01*
X167034249Y-122210464D01*
X167036157Y-122206710D01*
X167565345Y-121207741D01*
X167567360Y-121204090D01*
X168126762Y-120230906D01*
X168128910Y-120227315D01*
X168718121Y-119280051D01*
X168720414Y-119276505D01*
X169339081Y-118355248D01*
X169341538Y-118351725D01*
X169989318Y-117456609D01*
X169991824Y-117453273D01*
X170668316Y-116584553D01*
X170671000Y-116581227D01*
X171375793Y-115739200D01*
X171378600Y-115735967D01*
X172111143Y-114921114D01*
X172114080Y-114917961D01*
X172873846Y-114130733D01*
X172876894Y-114127685D01*
X173663260Y-113368637D01*
X173666414Y-113365698D01*
X174478625Y-112635497D01*
X174481845Y-112632705D01*
X175318958Y-111932156D01*
X175322294Y-111929464D01*
X176183226Y-111259431D01*
X176186634Y-111256874D01*
X177070176Y-110618266D01*
X177073711Y-110615805D01*
X177978336Y-110009678D01*
X177981953Y-110007347D01*
X178905927Y-109434795D01*
X178909643Y-109432583D01*
X179851001Y-108894730D01*
X179854842Y-108892627D01*
X180463136Y-108573378D01*
X180811196Y-108390707D01*
X180815166Y-108388713D01*
X181783969Y-107923878D01*
X181787967Y-107922048D01*
X182766243Y-107495493D01*
X182770322Y-107493803D01*
X183754576Y-107106735D01*
X183758829Y-107105153D01*
X184745393Y-106758613D01*
X184749699Y-106757191D01*
X185737303Y-106451252D01*
X185740610Y-106450278D01*
X186228813Y-106314150D01*
X186230973Y-106313570D01*
X186718622Y-106187629D01*
X186720769Y-106187097D01*
X187206755Y-106071588D01*
X187208924Y-106071095D01*
X187690586Y-105966549D01*
X187692903Y-105966070D01*
X188171253Y-105872147D01*
X188173546Y-105871721D01*
X188646764Y-105788659D01*
X188649210Y-105788255D01*
X189117282Y-105715910D01*
X189119689Y-105715564D01*
X189581995Y-105653899D01*
X189584403Y-105653603D01*
X190039656Y-105602620D01*
X190042273Y-105602355D01*
X190491056Y-105561830D01*
X190493677Y-105561623D01*
X190933462Y-105531592D01*
X190936192Y-105531435D01*
X191367186Y-105511655D01*
X191370578Y-105511549D01*
X192003255Y-105500518D01*
X192005416Y-105500500D01*
X199934108Y-105500500D01*
X207994584Y-105500500D01*
X207996744Y-105500518D01*
G37*
%TD.AperFunction*%
%TA.AperFunction,Conductor*%
G36*
X204025174Y-162291742D02*
G01*
X204054363Y-162293830D01*
X204059222Y-162297467D01*
X204065212Y-162298475D01*
X204086868Y-162318162D01*
X204110297Y-162335700D01*
X204113568Y-162342434D01*
X204116912Y-162345474D01*
X204130804Y-162377915D01*
X204151565Y-162455394D01*
X204151566Y-162455397D01*
X204203719Y-162545729D01*
X204220192Y-162613629D01*
X204197339Y-162679656D01*
X204184014Y-162695409D01*
X204088545Y-162790879D01*
X204088542Y-162790883D01*
X204022650Y-162905009D01*
X204013552Y-162938964D01*
X203988542Y-163032305D01*
X203988542Y-163164089D01*
X204018974Y-163277661D01*
X204022650Y-163291382D01*
X204025761Y-163298893D01*
X204022480Y-163300251D01*
X204035127Y-163352338D01*
X204012286Y-163418369D01*
X203973267Y-163453846D01*
X203954428Y-163464722D01*
X203954419Y-163464729D01*
X203861238Y-163557910D01*
X203861236Y-163557913D01*
X203795344Y-163672039D01*
X203774856Y-163748503D01*
X203761237Y-163799334D01*
X203761236Y-163799336D01*
X203761236Y-163931118D01*
X203795344Y-164058414D01*
X203828290Y-164115477D01*
X203861236Y-164172541D01*
X203861238Y-164172543D01*
X203900816Y-164212121D01*
X203934301Y-164273444D01*
X203929317Y-164343136D01*
X203907747Y-164376712D01*
X203909073Y-164377729D01*
X203904126Y-164384175D01*
X203838234Y-164498301D01*
X203804126Y-164625597D01*
X203804126Y-164757379D01*
X203804767Y-164762249D01*
X203793999Y-164831284D01*
X203747618Y-164883539D01*
X203713923Y-164898204D01*
X203689463Y-164904759D01*
X203689461Y-164904759D01*
X203689461Y-164904760D01*
X203575335Y-164970651D01*
X203575332Y-164970653D01*
X203482151Y-165063834D01*
X203482149Y-165063837D01*
X203416257Y-165177963D01*
X203395026Y-165257201D01*
X203382149Y-165305259D01*
X203382149Y-165437043D01*
X203392991Y-165477506D01*
X203416257Y-165564338D01*
X203425053Y-165579572D01*
X203482149Y-165678465D01*
X203482151Y-165678467D01*
X203495830Y-165692146D01*
X203510533Y-165719073D01*
X203527126Y-165744892D01*
X203528017Y-165751092D01*
X203529315Y-165753469D01*
X203532149Y-165779827D01*
X203532149Y-166000153D01*
X203512464Y-166067192D01*
X203495830Y-166087834D01*
X202068533Y-167515130D01*
X202068532Y-167515131D01*
X202068530Y-167515135D01*
X202057865Y-167533608D01*
X202040125Y-167564333D01*
X202022386Y-167595058D01*
X201998500Y-167684203D01*
X201998500Y-179704456D01*
X201978815Y-179771495D01*
X201962181Y-179792137D01*
X199700212Y-182054105D01*
X199638889Y-182087590D01*
X199569197Y-182082606D01*
X199513264Y-182040734D01*
X199492757Y-181998520D01*
X199491392Y-181993424D01*
X199425500Y-181879296D01*
X199332314Y-181786110D01*
X199218186Y-181720218D01*
X199218185Y-181720217D01*
X199211147Y-181716154D01*
X199212680Y-181713498D01*
X199169609Y-181678768D01*
X199147564Y-181612467D01*
X199164863Y-181544773D01*
X199183801Y-181520401D01*
X199530470Y-181173733D01*
X199576614Y-181093809D01*
X199600500Y-181004664D01*
X199600500Y-180912377D01*
X199600500Y-174244664D01*
X199620185Y-174177625D01*
X199636819Y-174156983D01*
X201109863Y-172683939D01*
X201171186Y-172650454D01*
X201197544Y-172647620D01*
X201216890Y-172647620D01*
X201216892Y-172647620D01*
X201344186Y-172613512D01*
X201458314Y-172547620D01*
X201551500Y-172454434D01*
X201617392Y-172340306D01*
X201651500Y-172213012D01*
X201651500Y-172081228D01*
X201617392Y-171953934D01*
X201551500Y-171839806D01*
X201458314Y-171746620D01*
X201458312Y-171746619D01*
X201458310Y-171746617D01*
X201386355Y-171705074D01*
X201338139Y-171654507D01*
X201324917Y-171585899D01*
X201350885Y-171521035D01*
X201360661Y-171510019D01*
X201432469Y-171438213D01*
X201478613Y-171358289D01*
X201490154Y-171315218D01*
X201502499Y-171269145D01*
X201502499Y-165544545D01*
X201511143Y-165515104D01*
X201517667Y-165485118D01*
X201521421Y-165480102D01*
X201522184Y-165477506D01*
X201538818Y-165456864D01*
X201658862Y-165336820D01*
X201720185Y-165303335D01*
X201746543Y-165300501D01*
X201807513Y-165300501D01*
X201807515Y-165300501D01*
X201934809Y-165266393D01*
X202048937Y-165200501D01*
X202142123Y-165107315D01*
X202208015Y-164993187D01*
X202242123Y-164865893D01*
X202242123Y-164734109D01*
X202208015Y-164606815D01*
X202142123Y-164492687D01*
X202048937Y-164399501D01*
X201967569Y-164352523D01*
X201934810Y-164333609D01*
X201833143Y-164306368D01*
X201807515Y-164299501D01*
X201675731Y-164299501D01*
X201548435Y-164333609D01*
X201434309Y-164399501D01*
X201434306Y-164399503D01*
X201341125Y-164492684D01*
X201341123Y-164492687D01*
X201282281Y-164594603D01*
X201231713Y-164642818D01*
X201163106Y-164656040D01*
X201098241Y-164630072D01*
X201089805Y-164622801D01*
X201076592Y-164610336D01*
X201069055Y-164597282D01*
X200975869Y-164504096D01*
X200945198Y-164486388D01*
X200934658Y-164476445D01*
X200924044Y-164458286D01*
X200909531Y-164443065D01*
X200906768Y-164428730D01*
X200899400Y-164416124D01*
X200900288Y-164395108D01*
X200896309Y-164374458D01*
X200901735Y-164360904D01*
X200902352Y-164346317D01*
X200914459Y-164329120D01*
X200922277Y-164309593D01*
X200937478Y-164296426D01*
X200942575Y-164289187D01*
X200945497Y-164287998D01*
X200945050Y-164287415D01*
X200951491Y-164282472D01*
X200951492Y-164282470D01*
X200951495Y-164282469D01*
X201174164Y-164059798D01*
X201235485Y-164026315D01*
X201261844Y-164023481D01*
X202073196Y-164023481D01*
X202140235Y-164043166D01*
X202160877Y-164059800D01*
X202174558Y-164073481D01*
X202288686Y-164139373D01*
X202415980Y-164173481D01*
X202415982Y-164173481D01*
X202547762Y-164173481D01*
X202547764Y-164173481D01*
X202675058Y-164139373D01*
X202789186Y-164073481D01*
X202882372Y-163980295D01*
X202948264Y-163866167D01*
X202982372Y-163738873D01*
X202982372Y-163607089D01*
X202948264Y-163479795D01*
X202882372Y-163365667D01*
X202882367Y-163365662D01*
X202877425Y-163359221D01*
X202878806Y-163358161D01*
X202850060Y-163305517D01*
X202855044Y-163235825D01*
X202883545Y-163191478D01*
X202894637Y-163180386D01*
X202960529Y-163066258D01*
X202994637Y-162938964D01*
X202994637Y-162807180D01*
X202960529Y-162679886D01*
X202954143Y-162668826D01*
X202942479Y-162648623D01*
X202918874Y-162607738D01*
X202902402Y-162539839D01*
X202925254Y-162473812D01*
X202980175Y-162430622D01*
X203026262Y-162421739D01*
X203724904Y-162421739D01*
X203724906Y-162421739D01*
X203814050Y-162397853D01*
X203893974Y-162351708D01*
X203923351Y-162322330D01*
X203928676Y-162319422D01*
X203932081Y-162314393D01*
X203958985Y-162302871D01*
X203984671Y-162288846D01*
X203990728Y-162289279D01*
X203996310Y-162286889D01*
X204025174Y-162291742D01*
G37*
%TD.AperFunction*%
%TA.AperFunction,Conductor*%
G36*
X194698625Y-164351551D02*
G01*
X194705752Y-164352485D01*
X194705836Y-164352496D01*
X194705847Y-164352497D01*
X194705857Y-164352500D01*
X194705867Y-164352500D01*
X194706019Y-164352519D01*
X194706033Y-164352523D01*
X194751195Y-164352500D01*
X197508694Y-164352500D01*
X197575733Y-164372185D01*
X197621488Y-164424989D01*
X197631432Y-164494147D01*
X197616081Y-164538500D01*
X197554328Y-164645457D01*
X197554328Y-164645458D01*
X197554327Y-164645460D01*
X197554327Y-164645461D01*
X197531759Y-164729688D01*
X197520219Y-164772755D01*
X197520219Y-164904538D01*
X197554327Y-165031834D01*
X197620219Y-165145961D01*
X197623873Y-165150722D01*
X197649070Y-165215890D01*
X197649500Y-165226212D01*
X197649500Y-165546143D01*
X197669160Y-165619518D01*
X197673385Y-165635285D01*
X197673387Y-165635290D01*
X197719527Y-165715208D01*
X197719531Y-165715213D01*
X197913201Y-165908883D01*
X197932907Y-165934564D01*
X197957530Y-165977212D01*
X197957532Y-165977214D01*
X198095158Y-166114840D01*
X198128643Y-166176163D01*
X198123659Y-166245855D01*
X198081787Y-166301788D01*
X198069478Y-166309908D01*
X197994687Y-166353089D01*
X197994684Y-166353091D01*
X197901503Y-166446272D01*
X197901501Y-166446275D01*
X197835609Y-166560401D01*
X197801501Y-166687697D01*
X197801501Y-166819480D01*
X197835609Y-166946776D01*
X197852109Y-166975354D01*
X197901501Y-167060903D01*
X197994687Y-167154089D01*
X198038500Y-167179384D01*
X198086715Y-167229950D01*
X198100500Y-167286771D01*
X198100500Y-167384803D01*
X198080815Y-167451842D01*
X198028011Y-167497597D01*
X197958853Y-167507541D01*
X197895297Y-167478516D01*
X197888819Y-167472484D01*
X197333449Y-166917114D01*
X197299964Y-166855791D01*
X197297130Y-166829433D01*
X197297130Y-166508676D01*
X197316815Y-166441637D01*
X197333449Y-166420995D01*
X197335356Y-166419088D01*
X197347130Y-166407314D01*
X197413022Y-166293186D01*
X197447130Y-166165892D01*
X197447130Y-166034108D01*
X197413022Y-165906814D01*
X197347130Y-165792686D01*
X197253944Y-165699500D01*
X197196880Y-165666554D01*
X197139817Y-165633608D01*
X197076169Y-165616554D01*
X197012522Y-165599500D01*
X196880738Y-165599500D01*
X196753442Y-165633608D01*
X196639316Y-165699500D01*
X196639313Y-165699502D01*
X196546132Y-165792683D01*
X196546128Y-165792689D01*
X196538996Y-165805042D01*
X196488428Y-165853257D01*
X196419821Y-165866478D01*
X196354957Y-165840509D01*
X196314429Y-165783594D01*
X196307610Y-165743040D01*
X196307610Y-165718457D01*
X196307609Y-165718455D01*
X196299654Y-165678464D01*
X196276847Y-165563805D01*
X196268307Y-165543187D01*
X196216507Y-165418129D01*
X196216500Y-165418116D01*
X196128899Y-165287013D01*
X196128896Y-165287009D01*
X196017402Y-165175515D01*
X196017398Y-165175512D01*
X195886295Y-165087911D01*
X195886282Y-165087904D01*
X195740611Y-165027566D01*
X195740599Y-165027563D01*
X195585955Y-164996802D01*
X195585952Y-164996802D01*
X195428268Y-164996802D01*
X195428265Y-164996802D01*
X195273620Y-165027563D01*
X195273608Y-165027566D01*
X195127937Y-165087904D01*
X195127924Y-165087911D01*
X194996821Y-165175512D01*
X194996817Y-165175515D01*
X194885323Y-165287009D01*
X194885320Y-165287013D01*
X194797719Y-165418116D01*
X194797712Y-165418129D01*
X194737374Y-165563800D01*
X194737371Y-165563812D01*
X194706610Y-165718455D01*
X194706610Y-165876150D01*
X194707708Y-165881669D01*
X194701478Y-165951260D01*
X194673771Y-165993536D01*
X194254128Y-166413181D01*
X194192805Y-166446666D01*
X194166447Y-166449500D01*
X182113719Y-166449500D01*
X182046680Y-166429815D01*
X182000925Y-166377011D01*
X181990981Y-166307853D01*
X182006331Y-166263501D01*
X182046928Y-166193186D01*
X182081036Y-166065892D01*
X182081036Y-166046544D01*
X182100721Y-165979505D01*
X182117355Y-165958863D01*
X183689399Y-164386819D01*
X183750722Y-164353334D01*
X183777080Y-164350500D01*
X194682512Y-164350500D01*
X194698625Y-164351551D01*
G37*
%TD.AperFunction*%
%TA.AperFunction,Conductor*%
G36*
X200567311Y-151610384D02*
G01*
X200598030Y-151617528D01*
X200600581Y-151620153D01*
X200604094Y-151621185D01*
X200624741Y-151645013D01*
X200646725Y-151667634D01*
X200647452Y-151671222D01*
X200649849Y-151673989D01*
X200654336Y-151705201D01*
X200660600Y-151736112D01*
X200659271Y-151739523D01*
X200659793Y-151743147D01*
X200646693Y-151771831D01*
X200635251Y-151801221D01*
X200631692Y-151804679D01*
X200630768Y-151806703D01*
X200609940Y-151825818D01*
X200559556Y-151862423D01*
X200559556Y-151862425D01*
X201028460Y-152331329D01*
X200952993Y-152374901D01*
X200859901Y-152467993D01*
X200816329Y-152543460D01*
X200347425Y-152074556D01*
X200347423Y-152074556D01*
X200276434Y-152172265D01*
X200194252Y-152333552D01*
X200194251Y-152333555D01*
X200138317Y-152505706D01*
X200110000Y-152684493D01*
X200110000Y-152865506D01*
X200138317Y-153044293D01*
X200194251Y-153216444D01*
X200194252Y-153216447D01*
X200276431Y-153377730D01*
X200330838Y-153452615D01*
X200354317Y-153518422D01*
X200338491Y-153586476D01*
X200288385Y-153635170D01*
X200230519Y-153649500D01*
X199630041Y-153649500D01*
X199563002Y-153629815D01*
X199517247Y-153577011D01*
X199507303Y-153507853D01*
X199532843Y-153449888D01*
X199532592Y-153449721D01*
X199533546Y-153448292D01*
X199534190Y-153446832D01*
X199535967Y-153444664D01*
X199535977Y-153444655D01*
X199650941Y-153272598D01*
X199730130Y-153081420D01*
X199770500Y-152878465D01*
X199770500Y-152671535D01*
X199730130Y-152468580D01*
X199650941Y-152277402D01*
X199535977Y-152105345D01*
X199535975Y-152105342D01*
X199389657Y-151959024D01*
X199217598Y-151844059D01*
X199207945Y-151840060D01*
X199153544Y-151796221D01*
X199131478Y-151729927D01*
X199148757Y-151662228D01*
X199199893Y-151614617D01*
X199255399Y-151601500D01*
X200537055Y-151601500D01*
X200567311Y-151610384D01*
G37*
%TD.AperFunction*%
%TA.AperFunction,Conductor*%
G36*
X202760068Y-151621185D02*
G01*
X202805823Y-151673989D01*
X202815767Y-151743147D01*
X202796131Y-151794391D01*
X202761132Y-151846769D01*
X202761131Y-151846770D01*
X202749500Y-151905247D01*
X202749500Y-153278456D01*
X202729815Y-153345495D01*
X202713181Y-153366137D01*
X202466137Y-153613181D01*
X202439209Y-153627884D01*
X202413391Y-153644477D01*
X202407190Y-153645368D01*
X202404814Y-153646666D01*
X202378456Y-153649500D01*
X202289481Y-153649500D01*
X202222442Y-153629815D01*
X202176687Y-153577011D01*
X202166743Y-153507853D01*
X202189162Y-153452615D01*
X202243568Y-153377730D01*
X202325747Y-153216447D01*
X202325748Y-153216444D01*
X202381682Y-153044293D01*
X202410000Y-152865506D01*
X202410000Y-152684493D01*
X202381682Y-152505706D01*
X202325748Y-152333555D01*
X202325747Y-152333552D01*
X202243567Y-152172268D01*
X202172574Y-152074556D01*
X202172574Y-152074555D01*
X201703669Y-152543459D01*
X201660099Y-152467993D01*
X201567007Y-152374901D01*
X201491538Y-152331328D01*
X201960443Y-151862424D01*
X201910059Y-151825818D01*
X201867394Y-151770488D01*
X201861415Y-151700874D01*
X201894021Y-151639079D01*
X201954860Y-151604722D01*
X201982945Y-151601500D01*
X202693029Y-151601500D01*
X202760068Y-151621185D01*
G37*
%TD.AperFunction*%
%TD*%
M02*
