%TF.GenerationSoftware,KiCad,Pcbnew,9.0.5*%
%TF.CreationDate,2026-08-03T23:31:17+07:00*%
%TF.ProjectId,minichinh,6d696e69-6368-4696-9e68-2e6b69636164,rev?*%
%TF.SameCoordinates,Original*%
%TF.FileFunction,Soldermask,Bot*%
%TF.FilePolarity,Negative*%
%FSLAX46Y46*%
G04 Gerber Fmt 4.6, Leading zero omitted, Abs format (unit mm)*
G04 Created by KiCad (PCBNEW 9.0.5) date 2026-08-03 23:31:17*
%MOMM*%
%LPD*%
G01*
G04 APERTURE LIST*
G04 Aperture macros list*
%AMRoundRect*
0 Rectangle with rounded corners*
0 $1 Rounding radius*
0 $2 $3 $4 $5 $6 $7 $8 $9 X,Y pos of 4 corners*
0 Add a 4 corners polygon primitive as box body*
4,1,4,$2,$3,$4,$5,$6,$7,$8,$9,$2,$3,0*
0 Add four circle primitives for the rounded corners*
1,1,$1+$1,$2,$3*
1,1,$1+$1,$4,$5*
1,1,$1+$1,$6,$7*
1,1,$1+$1,$8,$9*
0 Add four rect primitives between the rounded corners*
20,1,$1+$1,$2,$3,$4,$5,0*
20,1,$1+$1,$4,$5,$6,$7,0*
20,1,$1+$1,$6,$7,$8,$9,0*
20,1,$1+$1,$8,$9,$2,$3,0*%
%AMRotRect*
0 Rectangle, with rotation*
0 The origin of the aperture is its center*
0 $1 length*
0 $2 width*
0 $3 Rotation angle, in degrees counterclockwise*
0 Add horizontal line*
21,1,$1,$2,0,0,$3*%
G04 Aperture macros list end*
%ADD10R,0.800000X0.500000*%
%ADD11R,1.000000X1.000000*%
%ADD12RoundRect,0.237500X-0.237500X0.300000X-0.237500X-0.300000X0.237500X-0.300000X0.237500X0.300000X0*%
%ADD13C,1.800000*%
%ADD14RotRect,1.800000X1.800000X175.000000*%
%ADD15R,1.700000X1.700000*%
%ADD16C,1.700000*%
%ADD17RotRect,1.800000X1.800000X120.000000*%
%ADD18C,0.850000*%
%ADD19RotRect,1.800000X1.800000X240.000000*%
%ADD20RotRect,1.800000X1.800000X185.000000*%
%ADD21RoundRect,0.250000X0.350000X0.625000X-0.350000X0.625000X-0.350000X-0.625000X0.350000X-0.625000X0*%
%ADD22O,1.200000X1.750000*%
%ADD23RoundRect,0.237500X0.237500X-0.300000X0.237500X0.300000X-0.237500X0.300000X-0.237500X-0.300000X0*%
G04 APERTURE END LIST*
D10*
%TO.C,J5*%
X187875630Y-145203210D03*
D11*
X187475630Y-143603210D03*
X187475630Y-147603210D03*
D10*
X187875630Y-146003210D03*
%TD*%
D12*
%TO.C,C4*%
X189925987Y-146462498D03*
X189925987Y-144737498D03*
%TD*%
D13*
%TO.C,J4*%
X215000000Y-189500000D03*
X215000000Y-185500000D03*
%TD*%
D14*
%TO.C,D3*%
X232530336Y-137221376D03*
D13*
X230000000Y-137000000D03*
%TD*%
%TO.C,J7*%
X185000000Y-185500000D03*
X185000000Y-189500000D03*
%TD*%
D15*
%TO.C,J3*%
X204525000Y-191250000D03*
D16*
X201985000Y-191250000D03*
%TD*%
D17*
%TO.C,D4*%
X204000000Y-115000000D03*
D13*
X202730000Y-112800295D03*
%TD*%
D18*
%TO.C,SW1*%
X207750000Y-196750000D03*
X210750000Y-196750000D03*
%TD*%
D19*
%TO.C,Q10*%
X187000000Y-115000000D03*
D13*
X185730000Y-117199705D03*
%TD*%
D15*
%TO.C,J9*%
X203800000Y-152775000D03*
D16*
X201260000Y-152775000D03*
X198720000Y-152775000D03*
X196180000Y-152775001D03*
%TD*%
D11*
%TO.C,J6*%
X212548429Y-147600403D03*
D10*
X212148429Y-146000403D03*
X212148429Y-145200403D03*
D11*
X212548429Y-143600403D03*
%TD*%
D14*
%TO.C,Q11*%
X226530335Y-125221376D03*
D13*
X223999999Y-125000000D03*
%TD*%
D15*
%TO.C,J2*%
X195475000Y-191250000D03*
D16*
X198015000Y-191250000D03*
%TD*%
D20*
%TO.C,D2*%
X170000000Y-137000000D03*
D13*
X167469664Y-137221376D03*
%TD*%
D19*
%TO.C,D1*%
X197270000Y-112800295D03*
D13*
X196000000Y-115000000D03*
%TD*%
D15*
%TO.C,J8*%
X201275000Y-197525000D03*
D16*
X198735000Y-197525000D03*
X201275000Y-194985000D03*
X198735000Y-194985000D03*
%TD*%
D20*
%TO.C,Q9*%
X176000000Y-125000000D03*
D13*
X173469664Y-125221376D03*
%TD*%
D21*
%TO.C,J1*%
X219000000Y-197300000D03*
D22*
X217000000Y-197300000D03*
%TD*%
D17*
%TO.C,Q12*%
X214270000Y-117199705D03*
D13*
X213000000Y-115000000D03*
%TD*%
D23*
%TO.C,C15*%
X210100000Y-146462500D03*
X210100000Y-144737500D03*
%TD*%
M02*
